<svg width="24" height="24" viewBox="0 0 24 24" fill="none" xmlns="http://www.w3.org/2000/svg">
<path d="M10.8677 15.7179L9.94247 16.0546L9.38121 14.5126L10.9233 13.9513L11.2879 14.4734C11.586 14.9325 11.3689 15.5355 10.8677 15.7179ZM18.8447 14.1242C18.8447 14.1242 13.3135 13.0813 10.9233 13.9513L8.95884 8.55409C11.1948 7.74026 14.9159 3.3298 14.9159 3.3298L18.8447 14.1242Z" fill="#342277"/>
<path d="M6.78777 14.5835C7.85234 14.196 8.40123 13.0189 8.01376 11.9543C7.62629 10.8898 6.44918 10.3409 5.38461 10.7284C4.32004 11.1158 3.77114 12.2929 4.15861 13.3575C4.54608 14.4221 5.7232 14.971 6.78777 14.5835Z" fill="#342277"/>
<path d="M17.6158 7.14952L16.4593 7.57047L17.3012 9.88356L18.4577 9.46261C19.1131 9.22408 19.4318 8.5405 19.1933 7.88512C18.9548 7.22975 18.2712 6.91099 17.6158 7.14952ZM12.4808 18.7107C12.218 19.0683 11.6854 19.5241 10.9039 19.8959C10.6866 20.0186 10.3992 19.9486 10.2239 19.7068L6.60526 15.0427C6.60526 15.0427 9.12783 11.4177 10.1521 14.2319C10.9239 16.3523 11.9091 17.2598 12.3333 17.5856C12.6243 17.7853 12.7505 18.1323 12.656 18.4723C12.607 18.5775 12.5439 18.6441 12.4808 18.7107Z" fill="#342277"/>
<path d="M7.06797 15.3545L10.9231 13.9513L8.9587 8.55412L5.10355 9.95728C4.67948 10.1116 4.4588 10.5849 4.61315 11.0089L6.01631 14.8641C6.17066 15.2882 6.64391 15.5088 7.06797 15.3545Z" fill="#FF7901"/>
<path d="M19.5107 14.7549C19.0866 14.9093 18.6133 14.6886 18.459 14.2645L14.5301 3.47013C14.3758 3.04606 14.5965 2.57281 15.0205 2.41846C15.4446 2.26412 15.9179 2.4848 16.0722 2.90886L20.0011 13.7033C20.1554 14.1273 19.9347 14.6006 19.5107 14.7549Z" fill="#FF7901"/>
</svg>
