<svg width="412" height="59" viewBox="0 0 412 59" fill="none" xmlns="http://www.w3.org/2000/svg">
<path fill-rule="evenodd" clip-rule="evenodd" d="M171.672 10.2221C172.312 11.3017 172.825 12.395 173.311 13.552C177.723 24.0472 188.453 32.3844 205.5 32.3844C222.353 32.3844 233.032 24.2356 237.536 13.9089C238.044 12.7439 238.574 11.6435 239.23 10.5548C242.832 4.57365 248.873 0 255.856 0H384C397.199 0 403.799 0 407.9 4.1005C412 8.20101 412 14.8007 412 28V57C412 57.9428 412 58.4142 411.707 58.7071C411.414 59 410.943 59 410 59H2.00001C1.05719 59 0.585786 59 0.292893 58.7071C0 58.4142 0 57.9428 0 57V28C0 14.8007 0 8.20101 4.1005 4.1005C8.20101 0 14.8007 0 28 0H155.629C162.381 0 168.228 4.41472 171.672 10.2221Z" fill="url(#paint0_linear_2408_31298)"/>
<defs>
<linearGradient id="paint0_linear_2408_31298" x1="0" y1="21.5" x2="412" y2="21.5" gradientUnits="userSpaceOnUse">
<stop stop-color="#342277"/>
<stop offset="1" stop-color="#0B093A"/>
</linearGradient>
</defs>
</svg>
