<svg width="367" height="11" viewBox="0 0 367 11" fill="none" xmlns="http://www.w3.org/2000/svg">
<path d="M15.5 1H0.5L5.5 10H10.5L15.5 1Z" fill="#F7F7F7"/>
<path d="M28.5 1H13.5L18.5 10H23.5L28.5 1Z" fill="#F7F7F7"/>
<path d="M41.5 1H26.5L31.5 10H36.5L41.5 1Z" fill="#F7F7F7"/>
<path d="M54.5 1H39.5L44.5 10H49.5L54.5 1Z" fill="#F7F7F7"/>
<path d="M67.5 1H52.5L57.5 10H62.5L67.5 1Z" fill="#F7F7F7"/>
<path d="M80.5 1H65.5L70.5 10H75.5L80.5 1Z" fill="#F7F7F7"/>
<path d="M93.5 1H78.5L83.5 10H88.5L93.5 1Z" fill="#F7F7F7"/>
<path d="M106.5 1H91.5L96.5 10H101.5L106.5 1Z" fill="#F7F7F7"/>
<path d="M119.5 1H104.5L109.5 10H114.5L119.5 1Z" fill="#F7F7F7"/>
<path d="M132.5 1H117.5L122.5 10H127.5L132.5 1Z" fill="#F7F7F7"/>
<path d="M145.5 1H130.5L135.5 10H140.5L145.5 1Z" fill="#F7F7F7"/>
<path d="M158.5 1H143.5L148.5 10H153.5L158.5 1Z" fill="#F7F7F7"/>
<path d="M171.5 1H156.5L161.5 10H166.5L171.5 1Z" fill="#F7F7F7"/>
<path d="M184.5 1H169.5L174.5 10H179.5L184.5 1Z" fill="#F7F7F7"/>
<path d="M197.5 1H182.5L187.5 10H192.5L197.5 1Z" fill="#F7F7F7"/>
<path d="M210.5 1H195.5L200.5 10H205.5L210.5 1Z" fill="#F7F7F7"/>
<path d="M223.5 1H208.5L213.5 10H218.5L223.5 1Z" fill="#F7F7F7"/>
<path d="M236.5 1H221.5L226.5 10H231.5L236.5 1Z" fill="#F7F7F7"/>
<path d="M249.5 1H234.5L239.5 10H244.5L249.5 1Z" fill="#F7F7F7"/>
<path d="M262.5 1H247.5L252.5 10H257.5L262.5 1Z" fill="#F7F7F7"/>
<path d="M275.5 1H260.5L265.5 10H270.5L275.5 1Z" fill="#F7F7F7"/>
<path d="M288.5 1H273.5L278.5 10H283.5L288.5 1Z" fill="#F7F7F7"/>
<path d="M301.5 1H286.5L291.5 10H296.5L301.5 1Z" fill="#F7F7F7"/>
<path d="M314.5 1H299.5L304.5 10H309.5L314.5 1Z" fill="#F7F7F7"/>
<path d="M327.5 1H312.5L317.5 10H322.5L327.5 1Z" fill="#F7F7F7"/>
<path d="M340.5 1H325.5L330.5 10H335.5L340.5 1Z" fill="#F7F7F7"/>
<path d="M353.5 1H338.5L343.5 10H348.5L353.5 1Z" fill="#F7F7F7"/>
<path d="M366.5 1H351.5L356.5 10H361.5L366.5 1Z" fill="#F7F7F7"/>
<path d="M0.5 1C2.45262 4.70998 5.5 10 5.5 10H10.5L14.5 3L18.5 10H23.5L27.5 3L31.5 10H36.5L40.5 3L44.5 10H49.5L53.5 3L57.5 10H62.5L66.5 3L70.5 10H75.5L79.5 3L83.5 10H88.5L92.5 3L96.5 10H101.5L105.5 3L109.5 10H114.5L118.5 3L122.5 10H127.5L131.5 3L135.5 10H140.5L144.5 3L148.5 10H153.5L157.5 3L161.5 10H166.5L170.5 3L174.5 10H179.5L183.5 3L187.5 10H192.5L196.5 3L200.5 10H205.5L209.5 3L213.5 10H218.5L222.5 3L226.5 10H231.5L235.5 3L239.5 10H244.5L248.5 3L252.5 10H257.5L261.5 3L265.5 10H270.5L274.5 3L278.5 10H283.5L287.5 3L291.5 10H296.5L300.5 3L304.5 10H309.5L313.5 3L317.5 10H322.5L326.5 3L330.5 10H335.5L339.5 3L343.5 10H348.5L352.5 3L356.5 10H361.5L366.5 1" stroke="#C2C2C2" stroke-linecap="round"/>
</svg>
