<svg width="65" height="23" viewBox="0 0 65 23" fill="none" xmlns="http://www.w3.org/2000/svg">
<path d="M10.8008 6.51172L12.4219 8.11328L10.8008 9.73438L9.19922 8.11328L10.8008 6.51172ZM7.51953 6.51172L9.14062 8.11328L7.51953 9.73438L5.91797 8.11328L7.51953 6.51172ZM14.6484 10.4668L16.9336 10.1934L17.1289 12.8887C17.1615 13.403 17.3014 13.7806 17.5488 14.0215C17.7962 14.2559 18.1966 14.373 18.75 14.373H18.9746V17H18.75C18.0078 17 17.3893 16.8633 16.8945 16.5898C16.4062 16.3099 16.0026 15.9193 15.6836 15.418C15.0977 15.9779 14.3783 16.3815 13.5254 16.6289C12.679 16.8763 11.5625 17 10.1758 17H8.54492C7.02148 17 5.68034 16.8665 4.52148 16.5996C3.36263 16.3327 2.45768 15.8542 1.80664 15.1641C1.1556 14.474 0.830078 13.4909 0.830078 12.2148C0.830078 11.6549 0.891927 11.1081 1.01562 10.5742C1.14583 10.0404 1.30534 9.54557 1.49414 9.08984L3.68164 9.91992C3.57747 10.2194 3.47005 10.5645 3.35938 10.9551C3.25521 11.3392 3.20312 11.7103 3.20312 12.0684C3.20312 12.7389 3.4375 13.2402 3.90625 13.5723C4.375 13.8978 5.01302 14.1126 5.82031 14.2168C6.6276 14.321 7.53581 14.373 8.54492 14.373H10.1758C11.1393 14.373 11.9596 14.3307 12.6367 14.2461C13.3203 14.1615 13.8411 13.9889 14.1992 13.7285C14.5638 13.4681 14.7461 13.0742 14.7461 12.5469C14.7461 12.2214 14.7363 11.8698 14.7168 11.4922C14.6973 11.1146 14.6745 10.7728 14.6484 10.4668ZM22.1043 7.88867C22.9507 8.40951 23.7221 8.93034 24.4188 9.45117C25.1219 9.97201 25.6818 10.5352 26.0984 11.1406C26.5216 11.7396 26.7332 12.4199 26.7332 13.1816C26.7332 14.1647 26.5086 14.9362 26.0594 15.4961C25.6102 16.0495 24.9689 16.4401 24.1355 16.668C23.3087 16.8893 22.3224 17 21.1766 17H18.7938V14.373H21.1668C22.254 14.373 23.0581 14.2917 23.5789 14.1289C24.1063 13.9661 24.3699 13.6374 24.3699 13.1426C24.3699 12.8887 24.2104 12.6087 23.8914 12.3027C23.5789 11.9902 23.1818 11.6712 22.7 11.3457C22.2247 11.0137 21.7332 10.6849 21.2254 10.3594C20.7176 10.0339 20.2684 9.72786 19.8777 9.44141C19.6173 9.2526 19.4188 9.00846 19.282 8.70898C19.1518 8.40299 19.0867 8.09049 19.0867 7.77148C19.0867 7.42643 19.1681 7.10091 19.3309 6.79492C19.5001 6.48893 19.7573 6.26758 20.1023 6.13086L27.5438 3.09375V5.68164L22.1043 7.88867Z" fill="#342277"/>
<path d="M26.8844 22.3125L25.9664 19.9102C27.4117 19.5977 28.525 19.1061 29.3062 18.4355C30.094 17.765 30.4879 16.7819 30.4879 15.4863C30.4879 14.9004 30.4 14.2526 30.2242 13.543C30.0549 12.8268 29.8629 12.1497 29.648 11.5117L32.0797 10.7109C32.3271 11.4141 32.5159 12.1595 32.6461 12.9473C32.7828 13.7285 32.8512 14.487 32.8512 15.2227C32.8512 17.1888 32.3173 18.7708 31.2496 19.9688C30.1884 21.1667 28.7333 21.9479 26.8844 22.3125ZM35.2191 3.35742H37.6703V12.3613C37.6703 13.097 37.781 13.6178 38.0023 13.9238C38.2302 14.2233 38.6664 14.373 39.3109 14.373H39.5551V17H39.3109C37.8982 17 36.863 16.6322 36.2055 15.8965C35.5479 15.1543 35.2191 14.0378 35.2191 12.5469V3.35742ZM39.8039 17H39.3742L39.384 14.373H39.7551C40.1001 14.373 40.4029 14.2493 40.6633 14.002C40.9302 13.748 41.1809 13.4258 41.4152 13.0352C41.6561 12.6445 41.9035 12.2279 42.1574 11.7852C42.4113 11.3424 42.6978 10.9258 43.0168 10.5352C43.3423 10.1445 43.7199 9.82552 44.1496 9.57812C44.5793 9.32422 45.0904 9.19727 45.6828 9.19727C46.412 9.19727 47.0435 9.35026 47.5773 9.65625C48.1112 9.95573 48.5441 10.3659 48.8762 10.8867C49.2082 11.401 49.4296 11.9772 49.5402 12.6152C49.6509 13.2663 49.8397 13.722 50.1066 13.9824C50.3736 14.2428 50.6633 14.373 50.9758 14.373H51.2297V17H50.966C50.5493 17 50.1392 16.9089 49.7355 16.7266C49.3319 16.5378 49.0096 16.2969 48.7687 16.0039C48.4497 16.4206 48.0884 16.7298 47.6848 16.9316C47.2876 17.127 46.8026 17.2246 46.2297 17.2246C45.5591 17.2246 44.9341 17.0814 44.3547 16.7949C43.7753 16.502 43.1991 16.1276 42.6262 15.6719C42.2551 16.0495 41.8742 16.3652 41.4836 16.6191C41.0995 16.873 40.5396 17 39.8039 17ZM45.7609 11.6973C45.481 11.6973 45.2271 11.7917 44.9992 11.9805C44.7779 12.1628 44.5826 12.3906 44.4133 12.6641C44.244 12.9375 44.0975 13.2012 43.9738 13.4551C44.1757 13.6504 44.371 13.8197 44.5598 13.9629C44.7486 14.0996 44.9276 14.2135 45.0969 14.3047C45.3247 14.4284 45.5331 14.5163 45.7219 14.5684C45.9172 14.6204 46.0897 14.6465 46.2395 14.6465C46.6105 14.6465 46.8775 14.5228 47.0402 14.2754C47.2095 14.028 47.2941 13.7285 47.2941 13.377C47.2941 12.9147 47.1574 12.5208 46.884 12.1953C46.6171 11.8633 46.2427 11.6973 45.7609 11.6973Z" fill="#0B093A"/>
<path d="M51.8398 5.27148V3.875L59.6816 0.681641V2.08789L51.8398 5.27148ZM54.3496 7.88867C55.196 8.40951 55.9674 8.93034 56.6641 9.45117C57.3672 9.97201 57.9271 10.5352 58.3438 11.1406C58.7669 11.7396 58.9785 12.4199 58.9785 13.1816C58.9785 14.1647 58.7539 14.9362 58.3047 15.4961C57.8555 16.0495 57.2142 16.4401 56.3809 16.668C55.554 16.8893 54.5677 17 53.4219 17H51.0391V14.373H53.4121C54.4993 14.373 55.3034 14.2917 55.8242 14.1289C56.3516 13.9661 56.6152 13.6374 56.6152 13.1426C56.6152 12.8887 56.4557 12.6087 56.1367 12.3027C55.8242 11.9902 55.4271 11.6712 54.9453 11.3457C54.4701 11.0137 53.9785 10.6849 53.4707 10.3594C52.9629 10.0339 52.5137 9.72786 52.123 9.44141C51.8626 9.2526 51.6641 9.00846 51.5273 8.70898C51.3971 8.40299 51.332 8.09049 51.332 7.77148C51.332 7.42643 51.4134 7.10091 51.5762 6.79492C51.7454 6.48893 52.0026 6.26758 52.3477 6.13086L59.7891 3.09375V5.68164L54.3496 7.88867ZM64.325 3.35742V16.9902H61.8836V3.35742H64.325Z" fill="#FF7901"/>
</svg>
