<svg width="128" height="44" viewBox="0 0 128 44" fill="none" xmlns="http://www.w3.org/2000/svg">
<path d="M16.332 14.3164L18.6016 16.5586L16.332 18.8281L14.0898 16.5586L16.332 14.3164ZM11.7383 14.3164L14.0078 16.5586L11.7383 18.8281L9.49609 16.5586L11.7383 14.3164ZM21.7188 19.8535L24.918 19.4707L25.1914 23.2441C25.237 23.9642 25.4329 24.4928 25.7793 24.8301C26.1257 25.1582 26.6862 25.3223 27.4609 25.3223H27.7754V29H27.4609C26.4219 29 25.556 28.8086 24.8633 28.4258C24.1797 28.0339 23.6146 27.487 23.168 26.7852C22.3477 27.569 21.3405 28.1341 20.1465 28.4805C18.9616 28.8268 17.3984 29 15.457 29H13.1738C11.041 29 9.16341 28.8132 7.54102 28.4395C5.91862 28.0658 4.65169 27.3958 3.74023 26.4297C2.82878 25.4635 2.37305 24.0872 2.37305 22.3008C2.37305 21.5169 2.45964 20.7513 2.63281 20.0039C2.8151 19.2565 3.03841 18.5638 3.30273 17.9258L6.36523 19.0879C6.2194 19.5072 6.06901 19.9902 5.91406 20.5371C5.76823 21.0749 5.69531 21.5944 5.69531 22.0957C5.69531 23.0345 6.02344 23.7363 6.67969 24.2012C7.33594 24.6569 8.22917 24.9577 9.35938 25.1035C10.4896 25.2493 11.7611 25.3223 13.1738 25.3223H15.457C16.806 25.3223 17.9544 25.263 18.9023 25.1445C19.8594 25.026 20.5885 24.7845 21.0898 24.4199C21.6003 24.0553 21.8555 23.5039 21.8555 22.7656C21.8555 22.3099 21.8418 21.8177 21.8145 21.2891C21.7871 20.7604 21.7552 20.2819 21.7188 19.8535ZM31.877 16.2441C33.0618 16.9733 34.1419 17.7025 35.1172 18.4316C36.1016 19.1608 36.8854 19.9492 37.4688 20.7969C38.0612 21.6354 38.3574 22.5879 38.3574 23.6543C38.3574 25.0306 38.043 26.1107 37.4141 26.8945C36.7852 27.6693 35.8874 28.2161 34.7207 28.5352C33.5632 28.8451 32.1823 29 30.5781 29H27.2422V25.3223H30.5645C32.0866 25.3223 33.2122 25.2083 33.9414 24.9805C34.6797 24.7526 35.0488 24.2923 35.0488 23.5996C35.0488 23.2441 34.8255 22.8522 34.3789 22.4238C33.9414 21.9863 33.3854 21.5397 32.7109 21.084C32.0456 20.6191 31.3574 20.1589 30.6465 19.7031C29.9355 19.2474 29.3066 18.819 28.7598 18.418C28.3952 18.1536 28.1172 17.8118 27.9258 17.3926C27.7435 16.9642 27.6523 16.5267 27.6523 16.0801C27.6523 15.597 27.7663 15.1413 27.9941 14.7129C28.2311 14.2845 28.5911 13.9746 29.0742 13.7832L39.4922 9.53125V13.1543L31.877 16.2441Z" fill="#342277"/>
<path d="M38.2891 36.4375L37.0039 33.0742C39.0273 32.6367 40.5859 31.9486 41.6797 31.0098C42.7826 30.071 43.334 28.6947 43.334 26.8809C43.334 26.0605 43.2109 25.1536 42.9648 24.1602C42.7279 23.1576 42.459 22.2096 42.1582 21.3164L45.5625 20.1953C45.9089 21.1797 46.1732 22.2233 46.3555 23.3262C46.5469 24.4199 46.6426 25.4818 46.6426 26.5117C46.6426 29.2643 45.8952 31.4792 44.4004 33.1562C42.9147 34.8333 40.8776 35.9271 38.2891 36.4375ZM49.6777 9.90039H53.1094V22.5059C53.1094 23.5358 53.2643 24.265 53.5742 24.6934C53.8932 25.1126 54.5039 25.3223 55.4062 25.3223H55.748V29H55.4062C53.4284 29 51.9792 28.485 51.0586 27.4551C50.138 26.416 49.6777 24.8529 49.6777 22.7656V9.90039ZM55.8164 29H55.2148L55.2285 25.3223H55.748C56.2311 25.3223 56.6549 25.1491 57.0195 24.8027C57.3932 24.4473 57.7441 23.9961 58.0723 23.4492C58.4095 22.9023 58.7559 22.319 59.1113 21.6992C59.4668 21.0794 59.8678 20.4961 60.3145 19.9492C60.7702 19.4023 61.2988 18.9557 61.9004 18.6094C62.502 18.2539 63.2174 18.0762 64.0469 18.0762C65.0677 18.0762 65.9518 18.2904 66.6992 18.7188C67.4466 19.138 68.0527 19.7122 68.5176 20.4414C68.9824 21.1615 69.2923 21.9681 69.4473 22.8613C69.6022 23.7728 69.8665 24.4108 70.2402 24.7754C70.6139 25.14 71.0195 25.3223 71.457 25.3223H71.8125V29H71.4434C70.86 29 70.2858 28.8724 69.7207 28.6172C69.1556 28.3529 68.7044 28.0156 68.3672 27.6055C67.9206 28.1888 67.4147 28.6217 66.8496 28.9043C66.2936 29.1777 65.6146 29.3145 64.8125 29.3145C63.8737 29.3145 62.9987 29.1139 62.1875 28.7129C61.3763 28.3027 60.5697 27.7786 59.7676 27.1406C59.248 27.6693 58.7148 28.1113 58.168 28.4668C57.6302 28.8223 56.8464 29 55.8164 29ZM64.1562 21.5762C63.7643 21.5762 63.4089 21.7083 63.0898 21.9727C62.7799 22.2279 62.5065 22.5469 62.2695 22.9297C62.0326 23.3125 61.8275 23.6816 61.6543 24.0371C61.9368 24.3105 62.2103 24.5475 62.4746 24.748C62.7389 24.9395 62.9896 25.099 63.2266 25.2266C63.5456 25.3997 63.8372 25.5228 64.1016 25.5957C64.375 25.6686 64.6165 25.7051 64.8262 25.7051C65.3457 25.7051 65.7194 25.5319 65.9473 25.1855C66.1842 24.8392 66.3027 24.4199 66.3027 23.9277C66.3027 23.2806 66.1113 22.7292 65.7285 22.2734C65.3548 21.8086 64.8307 21.5762 64.1562 21.5762Z" fill="#0B093A"/>
<path d="M72.3867 12.5801V10.625L83.3652 6.1543V8.12305L72.3867 12.5801ZM75.9004 16.2441C77.0853 16.9733 78.1654 17.7025 79.1406 18.4316C80.125 19.1608 80.9089 19.9492 81.4922 20.7969C82.0846 21.6354 82.3809 22.5879 82.3809 23.6543C82.3809 25.0306 82.0664 26.1107 81.4375 26.8945C80.8086 27.6693 79.9108 28.2161 78.7441 28.5352C77.5866 28.8451 76.2057 29 74.6016 29H71.2656V25.3223H74.5879C76.11 25.3223 77.2357 25.2083 77.9648 24.9805C78.7031 24.7526 79.0723 24.2923 79.0723 23.5996C79.0723 23.2441 78.849 22.8522 78.4023 22.4238C77.9648 21.9863 77.4089 21.5397 76.7344 21.084C76.069 20.6191 75.3809 20.1589 74.6699 19.7031C73.959 19.2474 73.3301 18.819 72.7832 18.418C72.4186 18.1536 72.1406 17.8118 71.9492 17.3926C71.7669 16.9642 71.6758 16.5267 71.6758 16.0801C71.6758 15.597 71.7897 15.1413 72.0176 14.7129C72.2546 14.2845 72.6146 13.9746 73.0977 13.7832L83.5156 9.53125V13.1543L75.9004 16.2441ZM89.5859 9.90039V28.9863H86.168V9.90039H89.5859Z" fill="#FF7901"/>
<path fill-rule="evenodd" clip-rule="evenodd" d="M113.5 34C121.232 34 127.5 27.732 127.5 20C127.5 12.268 121.232 6 113.5 6C105.768 6 99.5 12.268 99.5 20C99.5 22.2131 100.013 24.3062 100.928 26.1668C100.923 26.1545 100.917 26.1423 100.912 26.1301L109.377 17.6688C109.821 17.2103 111.039 16.2254 112.362 15.9539C112.865 15.8177 114.164 15.5986 115.332 15.8117L116.222 16.0597L113.606 13.4619L116.069 10.999C116.616 11.4235 117.59 12.6672 117.109 14.2464L118.105 13.232C118.732 13.8608 119.753 15.5132 118.816 17.0923C118.764 17.529 118.794 18.4562 119.334 18.6722L121.414 19.7595L118.105 20.3615C117.583 20.4151 116.575 20.8351 116.718 22.0874C117.002 22.8962 117.181 24.5094 115.631 24.4919C115.142 24.5113 114.198 24.2248 114.332 22.9229C114.378 22.6456 114.616 21.9925 115.197 21.5984C114.647 21.8563 113.213 22.7492 111.876 24.2583C111.42 24.8056 110.359 26.2505 109.76 27.6516C109.337 28.728 108.559 31.3237 108.819 33.1976C108.456 33.0677 108.082 32.918 107.703 32.7473C109.47 33.5518 111.432 34 113.5 34ZM104.447 30.6796C104.424 30.6592 104.401 30.6387 104.378 30.618C104.37 30.6119 104.362 30.6057 104.353 30.5993C104.384 30.6262 104.416 30.653 104.447 30.6796Z" fill="#150E30"/>
<ellipse cx="116.733" cy="18.5592" rx="0.740683" ry="0.751629" fill="#150E30"/>
</svg>
