<svg width="118" height="38" viewBox="0 0 118 38" fill="none" xmlns="http://www.w3.org/2000/svg">
<path d="M13.5312 12.9062L15.3359 14.6992L13.5312 16.5156L11.75 14.6992L13.5312 12.9062ZM9.61719 12.9062L11.4219 14.6992L9.61719 16.5156L7.82422 14.6992L9.61719 12.9062ZM18.3828 17.3125L20.7617 17.0195L20.9844 20.043C21.0312 20.7227 21.2227 21.2734 21.5586 21.6953C21.8945 22.1094 22.4141 22.3164 23.1172 22.3164H23.375V25H23.1172C22.2344 25 21.5 24.8359 20.9141 24.5078C20.3359 24.1719 19.8594 23.6719 19.4844 23.0078C19.0391 23.4844 18.5195 23.8672 17.9258 24.1562C17.332 24.4453 16.6211 24.6602 15.793 24.8008C14.9727 24.9336 13.9883 25 12.8398 25H10.8828C9.46094 25 8.1875 24.8945 7.0625 24.6836C5.94531 24.4648 4.99609 24.1211 4.21484 23.6523C3.43359 23.1836 2.83594 22.5781 2.42188 21.8359C2.01562 21.0859 1.8125 20.1719 1.8125 19.0938C1.8125 18.4844 1.87891 17.8906 2.01172 17.3125C2.15234 16.7266 2.32812 16.1758 2.53906 15.6602L4.78906 16.5039C4.66406 16.8555 4.54688 17.25 4.4375 17.6875C4.33594 18.1172 4.28516 18.5273 4.28516 18.918C4.28516 19.5664 4.4375 20.1094 4.74219 20.5469C5.05469 20.9844 5.49609 21.332 6.06641 21.5898C6.64453 21.8477 7.33594 22.0352 8.14062 22.1523C8.95312 22.2617 9.86719 22.3164 10.8828 22.3164H12.8398C14.0352 22.3164 15.0508 22.2305 15.8867 22.0586C16.7305 21.8789 17.375 21.5938 17.8203 21.2031C18.2656 20.8125 18.4883 20.293 18.4883 19.6445C18.4883 19.2852 18.4727 18.8906 18.4414 18.4609C18.418 18.0312 18.3984 17.6484 18.3828 17.3125ZM26.375 13.8672C26.9531 14.25 27.5273 14.6367 28.0977 15.0273C28.668 15.418 29.2031 15.8203 29.7031 16.2344C30.2031 16.6484 30.6445 17.0859 31.0273 17.5469C31.418 18.0078 31.7227 18.4961 31.9414 19.0117C32.1602 19.5195 32.2695 20.0625 32.2695 20.6406C32.2695 21.7266 32.0234 22.5859 31.5312 23.2188C31.0391 23.8516 30.3086 24.3086 29.3398 24.5898C28.3789 24.8633 27.1953 25 25.7891 25H22.9531V22.3164H25.7773C26.7148 22.3164 27.4766 22.2695 28.0625 22.1758C28.6562 22.0742 29.0938 21.8984 29.375 21.6484C29.6641 21.3984 29.8086 21.0469 29.8086 20.5938C29.8086 20.2734 29.6836 19.9453 29.4336 19.6094C29.1914 19.2656 28.8672 18.9219 28.4609 18.5781C28.0547 18.2266 27.6094 17.8828 27.125 17.5469C26.6406 17.2031 26.1523 16.8633 25.6602 16.5273C25.168 16.1914 24.7148 15.8633 24.3008 15.543C24.0195 15.3242 23.8008 15.0703 23.6445 14.7812C23.4883 14.4844 23.4102 14.1719 23.4102 13.8438C23.4102 13.4688 23.5117 13.1016 23.7148 12.7422C23.918 12.3828 24.2109 12.125 24.5938 11.9688L33.2891 8.42969V11.0664L26.375 13.8672ZM32.1289 31.3398L31.2266 28.9258C32.4375 28.6602 33.4336 28.2812 34.2148 27.7891C35.0039 27.3047 35.5898 26.6953 35.9727 25.9609C36.3555 25.2344 36.5469 24.3711 36.5469 23.3711C36.5469 22.6836 36.457 21.9414 36.2773 21.1445C36.0977 20.3477 35.8789 19.5664 35.6211 18.8008L38.0938 17.9805C38.3828 18.8008 38.6016 19.6445 38.75 20.5117C38.9062 21.3789 38.9844 22.2188 38.9844 23.0312C38.9844 24.4844 38.7227 25.7812 38.1992 26.9219C37.6758 28.0625 36.9062 29.0117 35.8906 29.7695C34.875 30.5273 33.6211 31.0508 32.1289 31.3398ZM41.75 8.61719H44.2812V19.7266C44.2812 20.7109 44.4453 21.3906 44.7734 21.7656C45.1016 22.1328 45.6641 22.3164 46.4609 22.3164H46.7422V25H46.4609C44.8516 25 43.6641 24.582 42.8984 23.7461C42.1328 22.9023 41.75 21.6016 41.75 19.8438V8.61719ZM46.8125 25H46.3203V22.3164H46.7539C47.2148 22.3164 47.6133 22.168 47.9492 21.8711C48.2852 21.5664 48.5938 21.1797 48.875 20.7109C49.1641 20.2344 49.4531 19.7305 49.7422 19.1992C50.0391 18.668 50.3711 18.1641 50.7383 17.6875C51.1055 17.2109 51.5391 16.8242 52.0391 16.5273C52.5469 16.2305 53.1562 16.082 53.8672 16.082C54.7188 16.082 55.4453 16.2578 56.0469 16.6094C56.6562 16.9609 57.1484 17.4414 57.5234 18.0508C57.9062 18.6523 58.168 19.332 58.3086 20.0898C58.4102 20.5977 58.5547 21.0195 58.7422 21.3555C58.9297 21.6836 59.1484 21.9258 59.3984 22.082C59.6562 22.2383 59.9297 22.3164 60.2188 22.3164H60.5234V25H60.207C59.707 25 59.2148 24.8906 58.7305 24.6719C58.2539 24.4531 57.8672 24.1484 57.5703 23.7578C57.2188 24.2422 56.8008 24.6172 56.3164 24.8828C55.832 25.1406 55.2266 25.2695 54.5 25.2695C53.9688 25.2695 53.4648 25.1914 52.9883 25.0352C52.5195 24.8789 52.0586 24.6562 51.6055 24.3672C51.1523 24.0781 50.6914 23.7305 50.2227 23.3242C49.9102 23.6602 49.6016 23.957 49.2969 24.2148C49 24.4648 48.6562 24.6602 48.2656 24.8008C47.875 24.9336 47.3906 25 46.8125 25ZM53.9375 18.6602C53.5781 18.6602 53.25 18.7812 52.9531 19.0234C52.6641 19.2578 52.4023 19.5586 52.168 19.9258C51.9414 20.293 51.7422 20.6602 51.5703 21.0273C51.8203 21.2773 52.0664 21.4961 52.3086 21.6836C52.5508 21.8711 52.7812 22.0273 53 22.1523C53.2969 22.3242 53.5703 22.4492 53.8203 22.5273C54.0781 22.6055 54.3047 22.6445 54.5 22.6445C55.0078 22.6445 55.3789 22.4961 55.6133 22.1992C55.8555 21.9023 55.9766 21.5078 55.9766 21.0156C55.9766 20.3438 55.7969 19.7852 55.4375 19.3398C55.0781 18.8867 54.5781 18.6602 53.9375 18.6602Z" fill="#FCFCFC"/>
<path d="M61.1211 10.8789V9.37891L70.2969 5.65234V7.15234L61.1211 10.8789ZM63.5 13.8672C64.0781 14.25 64.6523 14.6367 65.2227 15.0273C65.793 15.418 66.3281 15.8203 66.8281 16.2344C67.3281 16.6484 67.7695 17.0859 68.1523 17.5469C68.543 18.0078 68.8477 18.4961 69.0664 19.0117C69.2852 19.5195 69.3945 20.0625 69.3945 20.6406C69.3945 21.7266 69.1484 22.5859 68.6562 23.2188C68.1641 23.8516 67.4336 24.3086 66.4648 24.5898C65.5039 24.8633 64.3203 25 62.9141 25H60.0781V22.3164H62.9023C63.8398 22.3164 64.6016 22.2695 65.1875 22.1758C65.7812 22.0742 66.2188 21.8984 66.5 21.6484C66.7891 21.3984 66.9336 21.0469 66.9336 20.5938C66.9336 20.2734 66.8086 19.9453 66.5586 19.6094C66.3164 19.2656 65.9922 18.9219 65.5859 18.5781C65.1797 18.2266 64.7344 17.8828 64.25 17.5469C63.7656 17.2031 63.2773 16.8633 62.7852 16.5273C62.293 16.1914 61.8398 15.8633 61.4258 15.543C61.1445 15.3242 60.9258 15.0703 60.7695 14.7812C60.6133 14.4844 60.5352 14.1719 60.5352 13.8438C60.5352 13.4688 60.6367 13.1016 60.8398 12.7422C61.043 12.3828 61.3359 12.125 61.7188 11.9688L70.4141 8.42969V11.0664L63.5 13.8672ZM75.2891 8.61719V24.9883H72.7695V8.61719H75.2891Z" fill="#FF7901"/>
<path fill-rule="evenodd" clip-rule="evenodd" d="M101.5 35C110.613 35 118 27.6127 118 18.5C118 9.3873 110.613 2 101.5 2C92.3873 2 85 9.3873 85 18.5C85 21.106 85.6041 23.5709 86.68 25.7622C86.6746 25.7497 86.6692 25.7371 86.6638 25.7246L96.6404 15.7523C97.1636 15.2119 98.5996 14.0512 100.158 13.7312C100.751 13.5707 102.282 13.3124 103.658 13.5635L104.708 13.8559L101.624 10.7942L104.527 7.89149C105.172 8.39175 106.32 9.85756 105.753 11.7187L106.927 10.5232C107.666 11.2643 108.869 13.2117 107.765 15.0729C107.703 15.5875 107.739 16.6803 108.376 16.9349L110.827 18.2164L106.927 18.9259C106.312 18.989 105.124 19.4841 105.292 20.9599C105.626 21.9131 105.838 23.8144 104.011 23.7938C103.435 23.8167 102.322 23.479 102.48 21.9447C102.535 21.6178 102.815 20.8481 103.499 20.3837C102.851 20.6876 101.162 21.74 99.586 23.5185C99.0485 24.1636 97.7972 25.8665 97.0919 27.5178C96.5931 28.7863 95.6763 31.8455 95.9825 34.0541C95.5533 33.9002 95.1099 33.7229 94.6611 33.5204C96.7447 34.4706 99.0605 35 101.5 35ZM90.8263 31.083C90.8005 31.0601 90.7747 31.037 90.7491 31.0139C90.7398 31.007 90.7305 31 90.721 30.9929C90.756 31.0231 90.7911 31.0531 90.8263 31.083Z" fill="#FF7901"/>
<ellipse cx="105.309" cy="16.8011" rx="0.872948" ry="0.885849" fill="#FF7901"/>
</svg>
