<svg width="16" height="17" viewBox="0 0 16 17" fill="none" xmlns="http://www.w3.org/2000/svg">
<g clip-path="url(#clip0_3123_48131)">
<path d="M10.9131 3.18712L10.9362 3.20047C11.136 3.31578 11.3026 3.41194 11.4066 3.53723C11.5163 3.66949 11.5767 3.85589 11.517 4.19317C11.4573 4.53044 11.2983 4.90122 11.0952 5.29635C10.9542 5.57061 10.7744 5.89009 10.5634 6.2576L10.4024 6.15701L10.4003 6.15575L8.62246 5.12929L8.45771 5.02867C8.66813 4.66644 8.85305 4.35431 9.01857 4.09743C9.25921 3.72397 9.5008 3.40085 9.76304 3.18051C10.0253 2.96017 10.2169 2.91927 10.3863 2.94819C10.5468 2.97559 10.7134 3.07177 10.9131 3.18712Z" fill="#5D4E92"/>
<path d="M8.03654 5.75734L5.46892 10.2045C5.25863 10.5685 5.09235 10.8563 4.9699 11.1485C4.84745 11.4407 4.78314 11.703 4.70181 12.0349L4.6798 12.1246C4.52845 12.7408 4.40371 13.2487 4.34704 13.6138C4.28778 13.9957 4.29007 14.298 4.45778 14.3948C4.62549 14.4916 4.8884 14.3425 5.18949 14.1002C5.47737 13.8686 5.85487 13.5066 6.31284 13.0674L6.37953 13.0035C6.62623 12.7671 6.8213 12.5803 7.0131 12.3281C7.20489 12.076 7.371 11.7881 7.58107 11.424L10.1407 6.99063L9.97686 6.88682L8.19779 5.85967L8.03654 5.75734Z" fill="#5D4E92"/>
</g>
<defs>
<clipPath id="clip0_3123_48131">
<rect width="16" height="16" fill="white" transform="matrix(0 1 -1 0 16 0.5)"/>
</clipPath>
</defs>
</svg>
