<svg width="24" height="25" viewBox="0 0 24 25" fill="none" xmlns="http://www.w3.org/2000/svg">
<path d="M14.6855 12.0113L6.38379 10.5488V21.3556C6.38369 21.473 6.40678 21.5894 6.45173 21.6979C6.49667 21.8064 6.5626 21.905 6.64573 21.988C6.72885 22.0709 6.82754 22.1367 6.93613 22.1815C7.04472 22.2262 7.16108 22.2491 7.27854 22.2488H21.6035C21.7211 22.2493 21.8376 22.2266 21.9464 22.1819C22.0552 22.1372 22.154 22.0715 22.2373 21.9885C22.3206 21.9055 22.3867 21.8068 22.4317 21.6982C22.4768 21.5896 22.4999 21.4732 22.4998 21.3556V17.3738L14.6855 12.0113Z" fill="#185C37"/>
<path d="M14.6855 2.75H7.27854C7.16108 2.74971 7.04472 2.7726 6.93613 2.81736C6.82754 2.86213 6.72885 2.92789 6.64573 3.01088C6.5626 3.09386 6.49667 3.19244 6.45173 3.30096C6.40678 3.40947 6.38369 3.5258 6.38379 3.64325V7.625L14.6855 12.5L19.0813 13.9625L22.4998 12.5V7.625L14.6855 2.75Z" fill="#21A366"/>
<path d="M6.38379 7.625H14.6855V12.5H6.38379V7.625Z" fill="#107C41"/>
<path opacity="0.1" d="M12.3253 6.64844H6.38379V18.8359H12.3253C12.562 18.8348 12.7888 18.7403 12.9564 18.5731C13.124 18.4059 13.219 18.1794 13.2208 17.9427V7.54169C13.219 7.30494 13.124 7.07843 12.9564 6.91123C12.7888 6.74403 12.562 6.64961 12.3253 6.64844Z" fill="black"/>
<path opacity="0.2" d="M11.837 7.13867H6.38379V19.3262H11.837C12.0738 19.325 12.3005 19.2306 12.4682 19.0634C12.6358 18.8962 12.7308 18.6697 12.7325 18.4329V8.03192C12.7308 7.79518 12.6358 7.56866 12.4682 7.40146C12.3005 7.23427 12.0738 7.13985 11.837 7.13867Z" fill="black"/>
<path opacity="0.2" d="M11.837 7.13867H6.38379V18.3512H11.837C12.0738 18.35 12.3005 18.2556 12.4682 18.0884C12.6358 17.9212 12.7308 17.6947 12.7325 17.4579V8.03192C12.7308 7.79518 12.6358 7.56866 12.4682 7.40146C12.3005 7.23427 12.0738 7.13985 11.837 7.13867Z" fill="black"/>
<path opacity="0.2" d="M11.3488 7.13867H6.38379V18.3512H11.3488C11.5855 18.35 11.8123 18.2556 11.9799 18.0884C12.1475 17.9212 12.2425 17.6947 12.2443 17.4579V8.03192C12.2425 7.79518 12.1475 7.56866 11.9799 7.40146C11.8123 7.23427 11.5855 7.13985 11.3488 7.13867Z" fill="black"/>
<path d="M2.3955 7.13868H11.349C11.5862 7.13848 11.8137 7.23245 11.9816 7.39995C12.1496 7.56744 12.2441 7.79475 12.2445 8.03193V16.9704C12.2441 17.2076 12.1496 17.4349 11.9816 17.6024C11.8137 17.7699 11.5862 17.8639 11.349 17.8637H2.3955C2.27798 17.8641 2.16154 17.8413 2.05286 17.7965C1.94418 17.7518 1.84541 17.6861 1.7622 17.6031C1.679 17.5201 1.613 17.4215 1.56801 17.3129C1.52301 17.2043 1.4999 17.0879 1.5 16.9704V8.03193C1.4999 7.91441 1.52301 7.79802 1.56801 7.68946C1.613 7.58089 1.679 7.48228 1.7622 7.39929C1.84541 7.31629 1.94418 7.25054 2.05286 7.20582C2.16154 7.1611 2.27798 7.13828 2.3955 7.13868Z" fill="url(#paint0_linear_4952_20402)"/>
<path d="M4.27539 15.4072L6.15864 12.4942L4.43364 9.59766H5.81889L6.76014 11.4524C6.84714 11.6279 6.91014 11.7584 6.93864 11.8454H6.95139C7.01289 11.7049 7.07789 11.5684 7.14639 11.4359L8.15289 9.60066H9.42789L7.65864 12.4807L9.47289 15.4094H8.11614L7.02864 13.3762C6.97829 13.2887 6.93539 13.1971 6.90039 13.1024H6.88239C6.85061 13.1947 6.80833 13.283 6.75639 13.3657L5.63664 15.4072H4.27539Z" fill="white"/>
<path d="M21.6043 2.75001H14.6855V7.625H22.4998V3.64325C22.4999 3.52573 22.4768 3.40935 22.4318 3.30079C22.3868 3.19222 22.3208 3.09361 22.2376 3.01061C22.1544 2.92762 22.0556 2.86187 21.9469 2.81715C21.8383 2.77243 21.7218 2.74961 21.6043 2.75001Z" fill="#33C481"/>
<path d="M14.6855 12.5H22.4998V17.375H14.6855V12.5Z" fill="#107C41"/>
<defs>
<linearGradient id="paint0_linear_4952_20402" x1="3.3705" y1="6.43668" x2="10.374" y2="18.5657" gradientUnits="userSpaceOnUse">
<stop stop-color="#18884F"/>
<stop offset="0.5" stop-color="#117E43"/>
<stop offset="1" stop-color="#0B6631"/>
</linearGradient>
</defs>
</svg>
