<svg width="96" height="96" viewBox="0 0 96 96" fill="none" xmlns="http://www.w3.org/2000/svg">
<rect x="11" y="11" width="74" height="74" rx="21" stroke="#D3D3D3" stroke-width="6"/>
<path d="M48.0312 73.8945C46.7461 73.8945 45.7891 73.1836 45.7891 71.6523V69.1094C42.2344 68.7812 39.0078 67.5508 36.8477 65.6641C35.125 64.1875 34.1133 62.4375 34.1133 60.8242C34.1133 59.2109 35.1797 58.2539 36.6562 58.2539C37.5859 58.2539 38.1602 58.5273 39.4453 59.9766C41.9336 62.9297 44.668 64.2422 48.25 64.2422C52.9531 64.2422 55.6602 62.082 55.6602 58.6094C55.6602 55.9297 53.9375 54.3711 49.8086 53.3594L43.9297 51.9102C37.9688 50.5156 34.7695 46.9883 34.7695 41.9023C34.7695 35.9961 39.1445 31.8945 45.9805 31.2656V28.8867C45.9805 27.3555 46.9375 26.6445 48.1953 26.6445C49.4531 26.6445 50.4375 27.3555 50.4375 28.8867V31.3477C53.6914 31.7852 56.6172 33.0156 58.5859 34.9297C60.1719 36.4336 61.1016 38.1562 61.1016 39.6602C61.1016 41.1094 60.0898 42.0391 58.7227 42.0391C57.6289 42.0391 56.8359 41.6016 55.7148 40.2891C53.3359 37.3359 51.0938 36.1602 47.7852 36.1602C43.6289 36.1602 40.9492 38.3477 40.9492 41.4922C40.9492 44.0078 42.7266 45.8125 46.1992 46.6055L51.9961 48C58.668 49.5586 61.8125 52.7852 61.8125 58.0625C61.8125 64.1875 57.3828 68.3984 50.2188 69.1367V71.6523C50.2188 73.1836 49.2891 73.8945 48.0312 73.8945Z" fill="#D3D3D3"/>
<path d="M48 26.3594V72.3594" stroke="#D3D3D3" stroke-width="5" stroke-linecap="round"/>
</svg>
