<svg width="96" height="96" viewBox="0 0 96 96" fill="none" xmlns="http://www.w3.org/2000/svg">
<g clip-path="url(#clip0_5102_26366)">
<path d="M42.7698 68.6426L38.1436 70.3264L35.3373 62.6161L43.0476 59.8097L44.871 62.4205C46.3614 64.7159 45.2757 67.7305 42.7698 68.6426ZM82.6553 60.6743C82.6553 60.6743 54.9987 55.4599 43.0476 59.8097L33.2254 32.8235C44.4055 28.7543 63.0109 6.70186 63.0109 6.70186L82.6553 60.6743Z" fill="#C2C2C2"/>
<path d="M22.3711 62.973C27.694 61.0357 30.4385 55.1501 28.5011 49.8272C26.5637 44.5043 20.6781 41.7598 15.3552 43.6972C10.0323 45.6345 7.28784 51.5201 9.22521 56.843C11.1626 62.1659 17.0482 64.9104 22.3711 62.973Z" fill="#C2C2C2"/>
<path d="M76.5126 25.8029L70.7298 27.9076L74.9394 39.4732L80.7221 37.3684C83.999 36.1757 85.5928 32.7578 84.4001 29.4809C83.2074 26.204 79.7895 24.6102 76.5126 25.8029ZM50.8374 83.6092C49.5235 85.3972 46.8603 87.6763 42.9527 89.5352C41.8663 90.1489 40.4292 89.7988 39.5525 88.5898L21.4594 65.2688C21.4594 65.2688 34.0724 47.1438 39.1939 61.2152C43.0527 71.8169 47.9786 76.3546 50.0997 77.9838C51.5546 78.9823 52.186 80.7172 51.7133 82.4173C51.4681 82.9431 51.1528 83.2762 50.8374 83.6092Z" fill="#C2C2C2"/>
<path d="M23.7716 66.8272L43.0475 59.8114L33.2253 32.8251L13.9494 39.841C11.8291 40.6127 10.7257 42.979 11.4974 45.0993L18.5133 64.3752C19.285 66.4955 21.6512 67.5989 23.7716 66.8272Z" fill="#DEDEDE"/>
<path d="M85.9856 63.8304C83.8652 64.6022 81.499 63.4988 80.7272 61.3784L61.0829 7.40596C60.3111 5.28561 61.4145 2.91936 63.5349 2.14761C65.6552 1.37587 68.0215 2.47927 68.7932 4.59962L88.4376 58.5721C89.2093 60.6924 88.1059 63.0587 85.9856 63.8304Z" fill="#DEDEDE"/>
</g>
<defs>
<clipPath id="clip0_5102_26366">
<rect width="96" height="96" rx="12" fill="white"/>
</clipPath>
</defs>
</svg>
