<svg width="96" height="96" viewBox="0 0 96 96" fill="none" xmlns="http://www.w3.org/2000/svg">
<path d="M84.6673 40.6654C84.6673 30.3977 84.6673 25.2639 82.6691 21.3422C80.9114 17.8926 78.1068 15.0879 74.6572 13.3302C70.7354 11.332 65.6016 11.332 55.334 11.332H40.6673C30.3997 11.332 25.2659 11.332 21.3442 13.3302C17.8945 15.0879 15.0899 17.8926 13.3322 21.3422C11.334 25.2639 11.334 30.3977 11.334 40.6654V56.1693C11.334 63.8071 17.5256 69.9987 25.1634 69.9987H27.3698C30.2265 69.9987 32.1799 72.8839 31.119 75.5363C29.6212 79.2806 33.9335 82.6657 37.2151 80.3217L46.7878 73.4841C46.8854 73.4144 46.9342 73.3795 46.9822 73.3457C50.0402 71.1908 53.6843 70.023 57.4251 69.9991C57.4838 69.9987 57.5438 69.9987 57.6638 69.9987H59.6761C65.8696 69.9987 68.9664 69.9987 71.4925 69.258C77.4842 67.5011 82.1698 62.8156 83.9266 56.8238C84.6673 54.2978 84.6673 51.201 84.6673 45.0075V40.6654Z" stroke="#D3D3D3" stroke-width="6"/>
<path d="M37.0003 40.6647C37.0003 42.6898 35.3587 44.3314 33.3337 44.3314C31.3086 44.3314 29.667 42.6898 29.667 40.6647C29.667 38.6397 31.3086 36.998 33.3337 36.998C35.3587 36.998 37.0003 38.6397 37.0003 40.6647Z" fill="#D3D3D3"/>
<path d="M51.667 40.6647C51.667 42.6898 50.0254 44.3314 48.0003 44.3314C45.9753 44.3314 44.3337 42.6898 44.3337 40.6647C44.3337 38.6397 45.9753 36.998 48.0003 36.998C50.0254 36.998 51.667 38.6397 51.667 40.6647Z" fill="#D3D3D3"/>
<path d="M66.3337 40.6647C66.3337 42.6898 64.692 44.3314 62.667 44.3314C60.642 44.3314 59.0003 42.6898 59.0003 40.6647C59.0003 38.6397 60.642 36.998 62.667 36.998C64.692 36.998 66.3337 38.6397 66.3337 40.6647Z" fill="#D3D3D3"/>
</svg>
