<svg width="24" height="25" viewBox="0 0 24 25" fill="none" xmlns="http://www.w3.org/2000/svg">
<rect x="2" y="2.42499" width="20" height="20" rx="6" fill="#342277"/>
<path d="M6 11.3636C6 9.83622 6 9.07251 6.29725 8.48912C6.55873 7.97595 6.97595 7.55873 7.48912 7.29725C8.07251 7 8.83622 7 10.3636 7H13.6364C15.1638 7 15.9275 7 16.5109 7.29725C17.0241 7.55873 17.4413 7.97595 17.7027 8.48912C18 9.07251 18 9.83622 18 11.3636C18 12.8911 18 13.6548 17.7027 14.2382C17.4413 14.7513 17.0241 15.1685 16.5109 15.43C15.9275 15.7273 15.1638 15.7273 13.6364 15.7273H10.3636C8.83622 15.7273 8.07251 15.7273 7.48912 15.43C6.97595 15.1685 6.55873 14.7513 6.29725 14.2382C6 13.6548 6 12.8911 6 11.3636Z" fill="#FF7901"/>
<path d="M7.48912 15.43L7.71611 14.9845L7.48912 15.43ZM6.29725 14.2382L6.74276 14.0112L6.29725 14.2382ZM17.7027 14.2382L17.2572 14.0112L17.7027 14.2382ZM16.5109 15.43L16.2839 14.9845L16.5109 15.43ZM16.5109 7.29725L16.2839 7.74276L16.5109 7.29725ZM17.7027 8.48912L17.2572 8.71611L17.7027 8.48912ZM7.48912 7.29725L7.71611 7.74276L7.48912 7.29725ZM6.29725 8.48912L6.74276 8.71611L6.29725 8.48912ZM9.69691 17.424C9.42902 17.491 9.26614 17.7625 9.33311 18.0304C9.40009 18.2983 9.67155 18.4611 9.93945 18.3942L9.69691 17.424ZM10.6771 17.6944L10.5558 17.2093L10.6771 17.6944ZM13.3229 17.6944L13.4442 17.2093L13.3229 17.6944ZM14.0606 18.3942C14.3284 18.4611 14.5999 18.2983 14.6669 18.0304C14.7339 17.7625 14.571 17.491 14.3031 17.424L14.0606 18.3942ZM12.5 15.7273C12.5 15.4511 12.2761 15.2273 12 15.2273C11.7239 15.2273 11.5 15.4511 11.5 15.7273H12.5ZM12 17.5315V18.0315V17.5315ZM10.3636 7.5H13.6364V6.5H10.3636V7.5ZM13.6364 15.2273H10.3636V16.2273H13.6364V15.2273ZM10.3636 15.2273C9.59168 15.2273 9.04278 15.2269 8.61309 15.1918C8.18923 15.1571 7.92558 15.0912 7.71611 14.9845L7.26212 15.8755C7.63605 16.066 8.04595 16.1488 8.53165 16.1885C9.01151 16.2277 9.60818 16.2273 10.3636 16.2273V15.2273ZM5.5 11.3636C5.5 12.1191 5.49961 12.7158 5.53882 13.1956C5.5785 13.6813 5.66122 14.0912 5.85175 14.4652L6.74276 14.0112C6.63603 13.8017 6.57013 13.538 6.5355 13.1142C6.50039 12.6845 6.5 12.1356 6.5 11.3636H5.5ZM7.71611 14.9845C7.29702 14.771 6.95629 14.4302 6.74276 14.0112L5.85175 14.4652C6.16116 15.0724 6.65487 15.5661 7.26212 15.8755L7.71611 14.9845ZM17.5 11.3636C17.5 12.1356 17.4996 12.6845 17.4645 13.1142C17.4299 13.538 17.364 13.8017 17.2572 14.0112L18.1482 14.4652C18.3388 14.0912 18.4215 13.6813 18.4612 13.1956C18.5004 12.7158 18.5 12.1191 18.5 11.3636H17.5ZM13.6364 16.2273C14.3918 16.2273 14.9885 16.2277 15.4683 16.1885C15.954 16.1488 16.3639 16.066 16.7379 15.8755L16.2839 14.9845C16.0744 15.0912 15.8108 15.1571 15.3869 15.1918C14.9572 15.2269 14.4083 15.2273 13.6364 15.2273V16.2273ZM17.2572 14.0112C17.0437 14.4302 16.703 14.771 16.2839 14.9845L16.7379 15.8755C17.3451 15.5661 17.8388 15.0724 18.1482 14.4652L17.2572 14.0112ZM13.6364 7.5C14.4083 7.5 14.9572 7.50039 15.3869 7.5355C15.8108 7.57013 16.0744 7.63603 16.2839 7.74276L16.7379 6.85175C16.3639 6.66122 15.954 6.5785 15.4683 6.53882C14.9885 6.49961 14.3918 6.5 13.6364 6.5V7.5ZM18.5 11.3636C18.5 10.6082 18.5004 10.0115 18.4612 9.53165C18.4215 9.04595 18.3388 8.63605 18.1482 8.26212L17.2572 8.71611C17.364 8.92558 17.4299 9.18923 17.4645 9.61309C17.4996 10.0428 17.5 10.5917 17.5 11.3636H18.5ZM16.2839 7.74276C16.703 7.95629 17.0437 8.29702 17.2572 8.71611L18.1482 8.26212C17.8388 7.65487 17.3451 7.16116 16.7379 6.85175L16.2839 7.74276ZM10.3636 6.5C9.60818 6.5 9.01151 6.49961 8.53165 6.53882C8.04595 6.5785 7.63605 6.66122 7.26212 6.85175L7.71611 7.74276C7.92558 7.63603 8.18923 7.57013 8.61309 7.5355C9.04278 7.50039 9.59168 7.5 10.3636 7.5V6.5ZM6.5 11.3636C6.5 10.5917 6.50039 10.0428 6.5355 9.61309C6.57013 9.18923 6.63603 8.92558 6.74276 8.71611L5.85175 8.26212C5.66122 8.63605 5.5785 9.04595 5.53882 9.53165C5.49961 10.0115 5.5 10.6082 5.5 11.3636H6.5ZM7.26212 6.85175C6.65487 7.16116 6.16116 7.65487 5.85175 8.26212L6.74276 8.71611C6.95629 8.29702 7.29702 7.95629 7.71611 7.74276L7.26212 6.85175ZM9.93945 18.3942L10.7983 18.1794L10.5558 17.2093L9.69691 17.424L9.93945 18.3942ZM13.2017 18.1794L14.0606 18.3942L14.3031 17.424L13.4442 17.2093L13.2017 18.1794ZM12.5 17.3636V15.7273H11.5V17.3636H12.5ZM10.7983 18.1794C11.1928 18.0808 11.5964 18.0315 12 18.0315V17.0315C11.515 17.0315 11.0299 17.0908 10.5558 17.2093L10.7983 18.1794ZM12 18.0315C12.4036 18.0315 12.8072 18.0808 13.2017 18.1794L13.4442 17.2093C12.9701 17.0908 12.485 17.0315 12 17.0315V18.0315ZM11.5 17.3636V17.5315H12.5V17.3636H11.5Z" fill="#FF7901"/>
<line x1="16" y1="9.25" x2="9" y2="9.25" stroke="#342277" stroke-width="0.5"/>
<line x1="16" y1="11.25" x2="12" y2="11.25" stroke="#342277" stroke-width="0.5"/>
<line x1="16" y1="13.25" x2="12" y2="13.25" stroke="#342277" stroke-width="0.5"/>
</svg>
