<svg width="20" height="20" viewBox="0 0 20 20" fill="none" xmlns="http://www.w3.org/2000/svg">
<rect x="1.6665" y="1.66663" width="16.6667" height="16.6667" rx="5" fill="#483885"/>
<path d="M9.99316 15.6362C9.69482 15.6362 9.47266 15.4712 9.47266 15.1157V14.5254C8.64746 14.4492 7.89844 14.1636 7.39697 13.7256C6.99707 13.3828 6.76221 12.9766 6.76221 12.6021C6.76221 12.2275 7.00977 12.0054 7.35254 12.0054C7.56836 12.0054 7.70166 12.0688 8 12.4053C8.57764 13.0908 9.2124 13.3955 10.0439 13.3955C11.1357 13.3955 11.7642 12.894 11.7642 12.0879C11.7642 11.4658 11.3643 11.104 10.4058 10.8691L9.04102 10.5327C7.65723 10.209 6.91455 9.39014 6.91455 8.20947C6.91455 6.83838 7.93018 5.88623 9.51709 5.74023V5.18799C9.51709 4.83252 9.73926 4.66748 10.0312 4.66748C10.3232 4.66748 10.5518 4.83252 10.5518 5.18799V5.75928C11.3071 5.86084 11.9863 6.14648 12.4434 6.59082C12.8115 6.93994 13.0273 7.33984 13.0273 7.68896C13.0273 8.02539 12.7925 8.24121 12.4751 8.24121C12.2212 8.24121 12.0371 8.13965 11.7769 7.83496C11.2246 7.14941 10.7041 6.87646 9.93604 6.87646C8.97119 6.87646 8.34912 7.38428 8.34912 8.11426C8.34912 8.69824 8.76172 9.11719 9.56787 9.30127L10.9136 9.625C12.4624 9.98682 13.1924 10.7358 13.1924 11.9609C13.1924 13.3828 12.1641 14.3604 10.501 14.5317V15.1157C10.501 15.4712 10.2852 15.6362 9.99316 15.6362Z" fill="#FFA14D"/>
<path d="M10 6L10 14" stroke="#FFA14D" stroke-linecap="round"/>
</svg>
