<svg width="379" height="9" viewBox="0 0 379 9" fill="none" xmlns="http://www.w3.org/2000/svg">
<path d="M15 0H0L5 9H10L15 0Z" fill="#D3D3D3"/>
<path d="M28 0H13L18 9H23L28 0Z" fill="#D3D3D3"/>
<path d="M41 0H26L31 9H36L41 0Z" fill="#D3D3D3"/>
<path d="M54 0H39L44 9H49L54 0Z" fill="#D3D3D3"/>
<path d="M67 0H52L57 9H62L67 0Z" fill="#D3D3D3"/>
<path d="M80 0H65L70 9H75L80 0Z" fill="#D3D3D3"/>
<path d="M93 0H78L83 9H88L93 0Z" fill="#D3D3D3"/>
<path d="M106 0H91L96 9H101L106 0Z" fill="#D3D3D3"/>
<path d="M119 0H104L109 9H114L119 0Z" fill="#D3D3D3"/>
<path d="M132 0H117L122 9H127L132 0Z" fill="#D3D3D3"/>
<path d="M145 0H130L135 9H140L145 0Z" fill="#D3D3D3"/>
<path d="M158 0H143L148 9H153L158 0Z" fill="#D3D3D3"/>
<path d="M171 0H156L161 9H166L171 0Z" fill="#D3D3D3"/>
<path d="M184 0H169L174 9H179L184 0Z" fill="#D3D3D3"/>
<path d="M197 0H182L187 9H192L197 0Z" fill="#D3D3D3"/>
<path d="M210 0H195L200 9H205L210 0Z" fill="#D3D3D3"/>
<path d="M223 0H208L213 9H218L223 0Z" fill="#D3D3D3"/>
<path d="M236 0H221L226 9H231L236 0Z" fill="#D3D3D3"/>
<path d="M249 0H234L239 9H244L249 0Z" fill="#D3D3D3"/>
<path d="M262 0H247L252 9H257L262 0Z" fill="#D3D3D3"/>
<path d="M275 0H260L265 9H270L275 0Z" fill="#D3D3D3"/>
<path d="M288 0H273L278 9H283L288 0Z" fill="#D3D3D3"/>
<path d="M301 0H286L291 9H296L301 0Z" fill="#D3D3D3"/>
<path d="M314 0H299L304 9H309L314 0Z" fill="#D3D3D3"/>
<path d="M327 0H312L317 9H322L327 0Z" fill="#D3D3D3"/>
<path d="M340 0H325L330 9H335L340 0Z" fill="#D3D3D3"/>
<path d="M353 0H338L343 9H348L353 0Z" fill="#D3D3D3"/>
<path d="M366 0H351L356 9H361L366 0Z" fill="#D3D3D3"/>
<path d="M379 0H364L369 9H374L379 0Z" fill="#D3D3D3"/>
</svg>
