<svg width="14" height="10" viewBox="0 0 14 10" fill="none" xmlns="http://www.w3.org/2000/svg">
<path d="M13.4321 1.6101C13.631 1.37145 13.5987 1.01675 13.3601 0.817874C13.1214 0.618995 12.7667 0.651239 12.5679 0.889895L8.52485 5.7415C7.71272 6.71606 7.14142 7.3995 6.6459 7.84696C6.16193 8.28399 5.82793 8.42289 5.49998 8.42289C5.17204 8.42289 4.83804 8.28399 4.35407 7.84696C3.85854 7.3995 3.28724 6.71605 2.47511 5.7415L1.43211 4.4899C1.23323 4.25124 0.878536 4.21899 0.63988 4.41787C0.401224 4.61675 0.368979 4.97145 0.567859 5.2101L1.63981 6.49644C2.41626 7.42821 3.03808 8.17441 3.6001 8.68192C4.18064 9.20615 4.77409 9.54789 5.49998 9.54789C6.22588 9.54789 6.81933 9.20615 7.39987 8.68192C7.96188 8.17442 8.58369 7.42823 9.36013 6.49647L13.4321 1.6101Z" fill="#FCFCFC"/>
</svg>
