<svg width="33" height="32" viewBox="0 0 33 32" fill="none" xmlns="http://www.w3.org/2000/svg">
<path d="M23.5911 13.6279C23.1251 13.6279 22.7474 14.0056 22.7474 14.4716C22.7474 14.9376 23.1251 15.3154 23.5911 15.3154H26.6593C27.1253 15.3154 27.5031 14.9376 27.5031 14.4716C27.5031 14.0056 27.1253 13.6279 26.6593 13.6279H23.5911Z" fill="#7C7C7C"/>
<path fill-rule="evenodd" clip-rule="evenodd" d="M28.1036 3.79966C28.1907 4.29911 28.2118 4.89265 28.2177 5.57172C28.3153 5.62263 28.411 5.67681 28.5051 5.73449C29.3755 6.26787 30.1074 6.99969 30.6407 7.87009C31.228 8.82843 31.4416 9.93911 31.5298 11.3508C31.594 12.3778 31.594 13.6269 31.594 15.1611V15.1929C31.594 16.0726 31.594 16.8563 31.5824 17.5538C31.5464 19.7227 31.4059 21.2562 30.6407 22.5049C30.1074 23.3753 29.3755 24.1071 28.5051 24.6405C27.674 25.1499 26.7311 25.3769 25.5796 25.4864C24.4499 25.5938 23.0359 25.5938 21.2321 25.5938H17.7684C15.9647 25.5938 14.5505 25.5938 13.4208 25.4864C12.2694 25.3769 11.3265 25.1499 10.4953 24.6405C9.62491 24.1071 8.8931 23.3753 8.35971 22.5049C7.85037 21.6737 7.62336 20.7309 7.51388 19.5794C7.40647 18.4497 7.40647 17.0356 7.40648 15.2318L7.40657 14.6403C7.39174 14.0844 7.3963 13.4629 7.40121 12.7928C7.40379 12.4396 7.40648 12.0728 7.40648 11.6951L7.40648 11.6463C7.40647 9.72004 7.40646 8.20824 7.53116 7.00839C7.65833 5.78462 7.9228 4.78645 8.51925 3.93059C8.87961 3.4135 9.31679 2.95732 9.81553 2.57956C10.6461 1.95042 11.6181 1.67074 12.8034 1.53685C13.9598 1.40623 15.4146 1.40624 17.2575 1.40625L23.4091 1.40625C24.3074 1.40621 25.0689 1.40618 25.676 1.49127C26.3243 1.58215 26.9194 1.78433 27.3955 2.28069C27.8088 2.71154 28.0046 3.23132 28.1036 3.79966ZM23.3497 3.09376C24.3236 3.09376 24.9656 3.0957 25.4417 3.16243C25.8898 3.22524 26.0641 3.33044 26.1777 3.44883C26.2827 3.55832 26.3774 3.72362 26.4412 4.08945C26.4839 4.33405 26.5071 4.63302 26.5194 5.01547C26.0551 4.93048 25.554 4.87811 25.0081 4.84442C23.9843 4.78125 22.7402 4.78125 21.2138 4.78126H17.7684C15.9646 4.78125 14.5506 4.78124 13.4208 4.88866C12.2694 4.99814 11.3265 5.22515 10.4953 5.73449C10.0472 6.00907 9.63591 6.33622 9.26946 6.7078C9.39294 5.88956 9.59516 5.33818 9.90371 4.89542C10.1642 4.52158 10.4786 4.19427 10.8344 3.92473C11.3269 3.55173 11.9601 3.33034 12.9928 3.21369C14.0435 3.09501 15.4031 3.09376 17.3099 3.09376H23.3497ZM11.377 7.17332C11.8985 6.85376 12.5526 6.66632 13.5806 6.56858C14.6211 6.46965 15.9551 6.46875 17.8127 6.46875H21.1877C22.7454 6.46875 23.9382 6.46912 24.9042 6.52872C25.8692 6.58827 26.5438 6.70435 27.0757 6.90632C27.2749 6.98197 27.4551 7.07018 27.6234 7.17332C28.2668 7.56756 28.8077 8.10847 29.2019 8.75181C29.4794 9.20456 29.6561 9.75488 29.7621 10.5597H23.5911C21.4306 10.5597 19.6792 12.3111 19.6792 14.4716C19.6792 16.6321 21.4306 18.3835 23.5911 18.3835H29.872C29.807 20.0264 29.6277 20.9284 29.2019 21.6232C28.8077 22.2665 28.2668 22.8074 27.6234 23.2017C27.102 23.5212 26.4479 23.7087 25.4199 23.8064C24.3794 23.9054 23.0454 23.9063 21.1877 23.9063H17.8127C15.9551 23.9063 14.6211 23.9054 13.5806 23.8064C12.5526 23.7087 11.8985 23.5212 11.377 23.2017C10.7337 22.8074 10.1928 22.2665 9.79854 21.6232C9.47899 21.1017 9.29154 20.4476 9.1938 19.4197C9.09487 18.3791 9.09398 17.0451 9.09398 15.1875C9.09398 13.3299 9.09487 11.9959 9.1938 10.9554C9.29154 9.92738 9.47899 9.27327 9.79854 8.75181C10.1928 8.10847 10.7337 7.56756 11.377 7.17332ZM21.3667 14.4716C21.3667 13.2431 22.3626 12.2472 23.5911 12.2472H29.8812C29.9063 13.0616 29.9065 14.0225 29.9065 15.1875C29.9065 15.7319 29.9065 16.2326 29.9038 16.696H23.5911C22.3626 16.696 21.3667 15.7001 21.3667 14.4716Z" fill="#7C7C7C"/>
<path d="M10.0385 14.297C11.6216 14.297 12.8124 14.2979 13.7468 14.3991C14.6893 14.5012 15.3728 14.7056 15.9364 15.1151C16.3001 15.3793 16.6199 15.6991 16.8841 16.0628L17.3698 15.7098L16.8841 16.0628C17.2936 16.6264 17.498 17.3098 17.6001 18.2523C17.7013 19.1868 17.7022 20.3776 17.7022 21.9606V21.9607V22.0381V22.0382C17.7022 23.6212 17.7013 24.8119 17.6001 25.7464C17.498 26.6889 17.2936 27.3723 16.8841 27.9359C16.6199 28.2996 16.3001 28.6194 15.9364 28.8836C15.3728 29.2931 14.6893 29.4975 13.7468 29.5996C12.8124 29.7008 11.6216 29.7017 10.0386 29.7017H10.0385H9.96108H9.96103C8.37803 29.7017 7.18727 29.7008 6.25283 29.5996C5.31033 29.4975 4.62692 29.2931 4.06324 28.8836L3.69235 29.3941L4.06324 28.8836C3.6996 28.6194 3.3798 28.2996 3.11559 27.9359C2.70606 27.3723 2.50171 26.6889 2.39959 25.7464C2.29835 24.8119 2.29751 23.6211 2.29751 22.038V21.9607C2.29751 20.3776 2.29835 19.1868 2.39959 18.2523C2.50171 17.3098 2.70606 16.6264 3.11559 16.0628C3.3798 15.6991 3.6996 15.3793 4.06324 15.1151C4.62692 14.7056 5.31033 14.5012 6.25283 14.3991C7.18729 14.2979 8.3781 14.297 9.96115 14.297H10.0385Z" fill="white" stroke="#7C7C7C" stroke-width="1.26202" stroke-linecap="round"/>
<path d="M5.88965 18.7305L14.3031 18.7305" stroke="#7C7C7C" stroke-width="1.26202" stroke-linecap="round"/>
<path d="M5.88965 22.0957L14.3031 22.0957" stroke="#7C7C7C" stroke-width="1.26202" stroke-linecap="round"/>
<path d="M9.9043 25.4609H14.111" stroke="#7C7C7C" stroke-width="1.26202" stroke-linecap="round"/>
</svg>
