<svg width="50" height="50" viewBox="0 0 50 50" fill="none" xmlns="http://www.w3.org/2000/svg">
<path d="M22.5643 6.09375C23.6468 4.21875 26.3532 4.21875 27.4357 6.09375L42.5911 32.3438C43.6737 34.2188 42.3205 36.5625 40.1554 36.5625H9.84455C7.67949 36.5625 6.32633 34.2188 7.40886 32.3438L22.5643 6.09375Z" fill="#FECF3E" stroke="#0F0F0F" stroke-width="1.875"/>
<path d="M25.8593 16.1719C25.8593 15.5247 25.3346 15 24.6874 15C24.0402 15 23.5156 15.5247 23.5156 16.1719V25.5469C23.5156 26.1941 24.0402 26.7187 24.6874 26.7187C25.3346 26.7187 25.8593 26.1941 25.8593 25.5469V16.1719Z" fill="#0F0F0F"/>
<path d="M26.25 30.2344C26.25 31.0973 25.5504 31.7969 24.6875 31.7969C23.8246 31.7969 23.125 31.0973 23.125 30.2344C23.125 29.3714 23.8246 28.6719 24.6875 28.6719C25.5504 28.6719 26.25 29.3714 26.25 30.2344Z" fill="#0F0F0F"/>
</svg>
