<svg width="19" height="19" viewBox="0 0 19 19" fill="none" xmlns="http://www.w3.org/2000/svg">
<path d="M6.43491 2.38799C6.33074 2.41575 6.11199 2.50596 5.9488 2.58577C5.54949 2.78008 5.15019 3.17217 4.96616 3.55038C4.86199 3.75857 4.6363 4.50806 4.48005 5.14997C4.46269 5.2159 4.59116 5.10487 4.95227 4.74747C5.66755 4.03269 6.34811 3.57814 7.22658 3.22075C7.61894 3.06114 8.3863 2.84601 8.71964 2.8009C8.82033 2.78702 8.89672 2.76967 8.8863 2.76273C8.87936 2.75579 8.55297 2.66211 8.16408 2.55454C7.53213 2.38452 7.41408 2.3637 7.04255 2.34982C6.74394 2.33941 6.57033 2.34982 6.43491 2.38799Z" fill="#FF7901"/>
<path d="M9.27572 3.30977C8.55349 3.37917 7.84169 3.58042 7.16461 3.89964C5.25488 4.80874 3.9528 6.55753 3.6403 8.63596C3.57433 9.0801 3.57433 9.98919 3.6403 10.4333C3.9528 12.5118 5.25488 14.2605 7.16461 15.1696C9.19586 16.1343 11.5604 15.9608 13.432 14.7047C14.8417 13.7609 15.7653 12.3591 16.1125 10.645C16.2028 10.1974 16.2028 8.87191 16.1125 8.4243C15.7653 6.7102 14.8417 5.30839 13.432 4.3646C12.2063 3.54225 10.734 3.17098 9.27572 3.30977ZM8.45627 5.00999C9.43197 5.21124 10.0674 6.22096 9.82086 7.17516C9.47363 8.50757 7.79655 8.96212 6.82086 7.9871C6.11947 7.2862 6.12294 6.21402 6.83127 5.50617C7.27919 5.06204 7.85558 4.88508 8.45627 5.00999ZM13.0431 5.89132C13.8486 6.09951 14.3868 6.7796 14.3868 7.58807C14.3868 8.11201 14.2375 8.48675 13.8834 8.84068C13.6403 9.08357 13.3452 9.25012 13.0292 9.32645C12.5917 9.42708 12.2236 9.38197 11.7965 9.17031C11.1021 8.83027 10.7028 8.03221 10.8556 7.29313C10.9354 6.90451 11.0674 6.65816 11.3486 6.37363C11.7132 6.0093 12.0882 5.84969 12.5986 5.84275C12.734 5.83928 12.9354 5.86357 13.0431 5.89132ZM10.2097 8.88926C10.4736 9.02458 10.6368 9.27788 10.6368 9.55546C10.6368 10.1557 10.0535 10.5235 9.50836 10.2668C9.30349 10.1731 9.24099 10.1072 9.14724 9.89897C8.84169 9.2293 9.55697 8.55268 10.2097 8.88926ZM7.5153 9.72548C7.61947 9.74283 7.83127 9.82264 7.98405 9.89897C8.67849 10.239 9.0778 11.0371 8.92502 11.7762C8.84516 12.1648 8.71322 12.4111 8.43197 12.6957C7.86252 13.2682 7.06738 13.3931 6.33822 13.0253C5.40419 12.5534 5.09516 11.3285 5.69238 10.4611C6.09169 9.88857 6.81044 9.5971 7.5153 9.72548ZM12.1438 10.6138C13.057 10.8497 13.6368 11.7692 13.4459 12.6818C13.3452 13.1571 12.932 13.6984 12.5118 13.8997C11.7931 14.2467 10.9771 14.1183 10.4389 13.5805C9.73405 12.8796 9.73058 11.7762 10.4285 11.0787C10.8729 10.638 11.5361 10.4576 12.1438 10.6138Z" fill="#FF7901"/>
<path d="M14.0742 4.13346C14.0742 4.14734 14.1437 4.20979 14.2305 4.27225C14.6263 4.57066 15.2339 5.24033 15.602 5.79204C16.1055 6.53805 16.5013 7.53389 16.6437 8.43605C16.668 8.57484 16.6923 8.6824 16.7027 8.67546C16.7096 8.66505 16.8173 8.2799 16.9423 7.81495C17.1367 7.0724 17.1645 6.93014 17.1645 6.65602C17.1645 6.04186 16.9388 5.50404 16.5048 5.07378C16.1541 4.73027 15.8416 4.57413 15.0985 4.38329C14.793 4.30348 14.4388 4.20979 14.3103 4.1751C14.1784 4.1404 14.0742 4.11958 14.0742 4.13346Z" fill="#FF7901"/>
<path d="M2.99815 10.6387C2.99815 10.6526 2.91135 10.9857 2.80718 11.3812C2.64399 12.0023 2.61621 12.1446 2.61621 12.4152C2.61621 13.0294 2.8419 13.5672 3.27246 13.994C3.64399 14.3583 3.89399 14.4798 4.81065 14.7227C5.2169 14.8302 5.55718 14.9135 5.56412 14.9101C5.57107 14.9031 5.53287 14.8615 5.47732 14.8198C5.28287 14.6706 4.6544 14.0426 4.44607 13.7858C3.81065 13.0051 3.3176 11.9711 3.10232 10.9891C3.03982 10.6942 2.99815 10.5589 2.99815 10.6387Z" fill="#FF7901"/>
<path d="M15.2029 13.8239C15.1265 13.9245 14.9217 14.1501 14.7481 14.327C13.8036 15.2743 12.564 15.9474 11.262 16.2146C11.064 16.2528 10.8939 16.2944 10.887 16.3014C10.8731 16.3152 10.8696 16.3152 11.6786 16.5304C12.7446 16.8149 13.1751 16.808 13.8245 16.4887C14.3036 16.2528 14.7307 15.7982 14.9043 15.3263C14.9946 15.0939 15.3661 13.7163 15.3522 13.6747C15.3453 13.6574 15.2793 13.7268 15.2029 13.8239Z" fill="#FF7901"/>
</svg>
