<svg width="14" height="15" viewBox="0 0 14 15" fill="none" xmlns="http://www.w3.org/2000/svg">
<g clip-path="url(#clip0_4851_20701)">
<path d="M10.1744 0.537109H3.82515C1.72121 0.537109 0.015625 2.24152 0.015625 4.34401V10.6888C0.015625 12.7913 1.72121 14.4957 3.82515 14.4957H10.1744C12.2783 14.4957 13.9839 12.7913 13.9839 10.6888V4.34401C13.9839 2.24152 12.2783 0.537109 10.1744 0.537109Z" fill="#FF7901"/>
<path d="M9.69761 7.52074C9.69761 9.01006 8.48948 10.2173 6.99919 10.2173C5.5089 10.2173 4.30078 9.01006 4.30078 7.52074C4.30078 6.03151 5.5089 4.82422 6.99919 4.82422C8.48948 4.82422 9.69761 6.03151 9.69761 7.52074Z" stroke="#2C2C2C" stroke-width="1.26984"/>
<path d="M11.1262 4.34485C11.6522 4.34485 12.0786 3.91875 12.0786 3.39313C12.0786 2.86751 11.6522 2.44141 11.1262 2.44141C10.6002 2.44141 10.1738 2.86751 10.1738 3.39313C10.1738 3.91875 10.6002 4.34485 11.1262 4.34485Z" fill="#2C2C2C"/>
</g>
<defs>
<clipPath id="clip0_4851_20701">
<rect width="13.9683" height="13.9586" fill="white" transform="translate(0.015625 0.537109)"/>
</clipPath>
</defs>
</svg>
