<svg width="85" height="24" viewBox="0 0 85 24" fill="none" xmlns="http://www.w3.org/2000/svg">
<path d="M8.64844 7.60938L9.9375 8.89062L8.64844 10.1875L7.35938 8.89062L8.64844 7.60938ZM6.00781 7.60938L7.3125 8.89062L6.00781 10.1875L4.73438 8.89062L6.00781 7.60938ZM11.7188 10.7734L13.5469 10.5547L13.7031 12.7109C13.7292 13.1224 13.8411 13.4245 14.0391 13.6172C14.237 13.8047 14.5573 13.8984 15 13.8984H15.1797V16H15C14.4062 16 13.9115 15.8906 13.5156 15.6719C13.125 15.4531 12.8021 15.1406 12.5469 14.7344C12.0781 15.1823 11.5026 15.5052 10.8203 15.7031C10.1432 15.901 9.25 16 8.14062 16H6.83594C5.91927 16 5.08333 15.9427 4.32812 15.8281C3.57292 15.7135 2.92188 15.5156 2.375 15.2344C1.82812 14.9531 1.40625 14.5651 1.10938 14.0703C0.8125 13.5703 0.664062 12.9375 0.664062 12.1719C0.664062 11.724 0.713542 11.2891 0.8125 10.8672C0.916667 10.4401 1.04427 10.0417 1.19531 9.67188L2.94531 10.3359C2.85677 10.5755 2.77083 10.8516 2.6875 11.1641C2.60417 11.4714 2.5625 11.7682 2.5625 12.0547C2.5625 12.4557 2.66927 12.7786 2.88281 13.0234C3.10156 13.2682 3.40365 13.4531 3.78906 13.5781C4.17969 13.7031 4.63281 13.7891 5.14844 13.8359C5.66927 13.8776 6.23177 13.8984 6.83594 13.8984H8.14062C8.91146 13.8984 9.56771 13.8646 10.1094 13.7969C10.6562 13.7292 11.0729 13.5911 11.3594 13.3828C11.651 13.1745 11.7969 12.8594 11.7969 12.4375C11.7969 12.1823 11.7891 11.9036 11.7734 11.6016C11.7578 11.2943 11.7396 11.0182 11.7188 10.7734ZM17.6834 8.71094C18.0897 8.96615 18.4777 9.21615 18.8475 9.46094C19.2173 9.70573 19.5558 9.95833 19.8631 10.2188C20.1704 10.474 20.4386 10.7422 20.6678 11.0234C20.897 11.3047 21.0741 11.6042 21.1991 11.9219C21.3241 12.2396 21.3866 12.5807 21.3866 12.9453C21.3866 13.7318 21.2069 14.349 20.8475 14.7969C20.4881 15.2396 19.9751 15.5521 19.3084 15.7344C18.647 15.9115 17.8579 16 16.9412 16H15.035V13.8984H16.9334C17.5116 13.8984 17.9881 13.8724 18.3631 13.8203C18.7433 13.763 19.0272 13.6641 19.2147 13.5234C19.4022 13.3828 19.4959 13.1797 19.4959 12.9141C19.4959 12.7526 19.4126 12.5755 19.2459 12.3828C19.0793 12.1901 18.8605 11.9896 18.5897 11.7812C18.3189 11.5729 18.022 11.3646 17.6991 11.1562C17.3814 10.9479 17.0636 10.7422 16.7459 10.5391C16.4334 10.3359 16.1522 10.1432 15.9022 9.96094C15.6991 9.80469 15.5428 9.60417 15.4334 9.35938C15.3241 9.11458 15.2694 8.86719 15.2694 8.61719C15.2694 8.34115 15.3345 8.08073 15.4647 7.83594C15.6001 7.59115 15.8058 7.41406 16.0819 7.30469L22.035 4.875V6.94531L17.6834 8.71094ZM21.5075 20.25L20.7731 18.3281C21.544 18.1562 22.1976 17.9271 22.7341 17.6406C23.2757 17.3594 23.6872 16.987 23.9684 16.5234C24.2497 16.0599 24.3903 15.4818 24.3903 14.7891C24.3903 14.3203 24.32 13.7995 24.1794 13.2266C24.044 12.6536 23.8903 12.1146 23.7184 11.6094L25.6637 10.9688C25.8669 11.5312 26.0205 12.1276 26.1247 12.7578C26.2289 13.388 26.2809 13.9922 26.2809 14.5703C26.2809 15.6224 26.0882 16.5365 25.7028 17.3125C25.3174 18.0938 24.7679 18.7292 24.0544 19.2188C23.3408 19.7083 22.4919 20.0521 21.5075 20.25ZM28.1753 5.08594H30.1362V12.2891C30.1362 12.8776 30.2248 13.2943 30.4019 13.5391C30.5842 13.7786 30.9331 13.8984 31.4487 13.8984H31.6441V16H31.4487C30.3185 16 29.4904 15.7057 28.9644 15.1172C28.4383 14.5286 28.1753 13.6354 28.1753 12.4375V5.08594ZM31.8431 16H31.4994L31.5072 13.8984H31.8041C32.0801 13.8984 32.3223 13.7995 32.5306 13.6016C32.739 13.4036 32.9395 13.1484 33.1322 12.8359C33.3249 12.5182 33.5228 12.1849 33.7259 11.8359C33.9343 11.4818 34.166 11.1458 34.4212 10.8281C34.6765 10.5104 34.9759 10.2526 35.3197 10.0547C35.6634 9.85677 36.0723 9.75781 36.5462 9.75781C37.1296 9.75781 37.6322 9.88021 38.0541 10.125C38.4811 10.3646 38.8275 10.6927 39.0931 11.1094C39.364 11.5208 39.5436 11.9818 39.6322 12.4922C39.6947 12.8359 39.7832 13.112 39.8978 13.3203C40.0124 13.5286 40.1452 13.6771 40.2962 13.7656C40.4525 13.8542 40.614 13.8984 40.7806 13.8984H40.9837V16H40.7728C40.4395 16 40.1114 15.9245 39.7884 15.7734C39.4655 15.6224 39.2077 15.4323 39.015 15.2031C38.7598 15.5365 38.4707 15.7839 38.1478 15.9453C37.8301 16.1016 37.4421 16.1797 36.9837 16.1797C36.6244 16.1797 36.2832 16.1276 35.9603 16.0234C35.6374 15.9193 35.3223 15.7734 35.015 15.5859C34.7129 15.3984 34.4082 15.1823 34.1009 14.9375C33.9082 15.1406 33.7129 15.3229 33.515 15.4844C33.3171 15.6406 33.0879 15.7656 32.8275 15.8594C32.5671 15.9531 32.239 16 31.8431 16ZM36.6087 11.7578C36.3848 11.7578 36.1817 11.8333 35.9994 11.9844C35.8223 12.1354 35.6634 12.3203 35.5228 12.5391C35.3874 12.7526 35.2728 12.9609 35.1791 13.1641C35.3405 13.3151 35.4968 13.4479 35.6478 13.5625C35.7989 13.6771 35.9421 13.7708 36.0775 13.8438C36.2598 13.9427 36.4265 14.013 36.5775 14.0547C36.7337 14.0964 36.8718 14.1172 36.9916 14.1172C37.2884 14.1172 37.502 14.0182 37.6322 13.8203C37.7676 13.6224 37.8353 13.3828 37.8353 13.1016C37.8353 12.7318 37.7259 12.4167 37.5072 12.1562C37.2884 11.8906 36.989 11.7578 36.6087 11.7578Z" fill="#FCFCFC"/>
<path d="M41.4719 6.61719V5.5L47.7453 2.94531V4.07031L41.4719 6.61719ZM43.4797 8.71094C43.8859 8.96615 44.274 9.21615 44.6437 9.46094C45.0135 9.70573 45.3521 9.95833 45.6594 10.2188C45.9667 10.474 46.2349 10.7422 46.4641 11.0234C46.6932 11.3047 46.8703 11.6042 46.9953 11.9219C47.1203 12.2396 47.1828 12.5807 47.1828 12.9453C47.1828 13.7318 47.0031 14.349 46.6437 14.7969C46.2844 15.2396 45.7714 15.5521 45.1047 15.7344C44.4432 15.9115 43.6542 16 42.7375 16H40.8312V13.8984H42.7297C43.3078 13.8984 43.7844 13.8724 44.1594 13.8203C44.5396 13.763 44.8234 13.6641 45.0109 13.5234C45.1984 13.3828 45.2922 13.1797 45.2922 12.9141C45.2922 12.7526 45.2089 12.5755 45.0422 12.3828C44.8755 12.1901 44.6568 11.9896 44.3859 11.7812C44.1151 11.5729 43.8182 11.3646 43.4953 11.1562C43.1776 10.9479 42.8599 10.7422 42.5422 10.5391C42.2297 10.3359 41.9484 10.1432 41.6984 9.96094C41.4953 9.80469 41.3391 9.60417 41.2297 9.35938C41.1203 9.11458 41.0656 8.86719 41.0656 8.61719C41.0656 8.34115 41.1307 8.08073 41.2609 7.83594C41.3964 7.59115 41.6021 7.41406 41.8781 7.30469L47.8312 4.875V6.94531L43.4797 8.71094ZM51.46 5.08594V15.9922H49.5069V5.08594H51.46Z" fill="#FF7901"/>
<path fill-rule="evenodd" clip-rule="evenodd" d="M73 24C79.6274 24 85 18.6274 85 12C85 5.37258 79.6274 0 73 0C66.3726 0 61 5.37258 61 12C61 13.8969 61.4401 15.691 62.2239 17.2858C62.2193 17.2753 62.2148 17.2648 62.2104 17.2544L69.466 10.0019C69.8466 9.60884 70.8909 8.76464 72.0243 8.53196C72.4559 8.4152 73.5693 8.22734 74.57 8.40999L75.3331 8.62264L73.0908 6.3959L75.2018 4.28488C75.6709 4.6487 76.5059 5.71474 76.0931 7.0683L76.9469 6.19887C77.4848 6.73784 78.3599 8.15415 77.5567 9.50771C77.5119 9.88196 77.538 10.6767 78.0008 10.8619L79.7835 11.7939L76.9469 12.3099C76.4997 12.3558 75.6359 12.7158 75.7585 13.7892C76.0014 14.4824 76.155 15.8652 74.8265 15.8502C74.4074 15.8668 73.598 15.6212 73.7131 14.5054C73.7527 14.2677 73.9564 13.7079 74.4543 13.3701C73.9831 13.5911 72.7542 14.3565 71.6083 15.65C71.2174 16.1191 70.3073 17.3576 69.7944 18.5585C69.4316 19.4811 68.7649 21.706 68.9875 23.3122C68.6762 23.2006 68.3547 23.072 68.0291 22.9252C69.5437 23.6155 71.2269 24 73 24ZM65.2404 21.1539C65.2207 21.1364 65.201 21.1188 65.1815 21.1011C65.1744 21.0959 65.1673 21.0906 65.16 21.0851C65.1867 21.1082 65.2135 21.1311 65.2404 21.1539Z" fill="#FECF3E"/>
<ellipse cx="75.7706" cy="10.7653" rx="0.634871" ry="0.644253" fill="#FECF3E"/>
</svg>
