<svg width="16" height="17" viewBox="0 0 16 17" fill="none" xmlns="http://www.w3.org/2000/svg">
<g clip-path="url(#clip0_4851_20692)">
<path d="M7.61905 0.902344C3.41116 0.902344 0 4.31115 0 8.51614C0 12.7211 3.41116 16.1299 7.61905 16.1299C11.8269 16.1299 15.2381 12.7211 15.2381 8.51614C15.2381 4.31115 11.8269 0.902344 7.61905 0.902344ZM11.5791 5.71854L10.2259 12.1743C10.2096 12.2524 10.1738 12.3251 10.122 12.3858C10.0701 12.4465 10.0039 12.4932 9.92927 12.5216C9.85467 12.55 9.77412 12.5592 9.69503 12.5484C9.61593 12.5375 9.54082 12.507 9.47661 12.4596L7.50827 11.0064L6.31577 12.1307C6.30016 12.1454 6.28178 12.1568 6.26169 12.1644C6.2416 12.1719 6.2202 12.1754 6.19876 12.1746C6.17732 12.1738 6.15625 12.1687 6.13679 12.1596C6.11733 12.1506 6.09986 12.1378 6.08542 12.1219L6.05979 12.0938L6.26699 10.09L10.0016 6.68008C10.0201 6.66325 10.0316 6.64011 10.0338 6.61523C10.0361 6.59034 10.0289 6.56553 10.0137 6.54568C9.99854 6.52582 9.97647 6.51237 9.95186 6.50798C9.92725 6.50359 9.90189 6.50857 9.88077 6.52195L5.10461 9.54278L3.04762 8.85242C2.99292 8.83406 2.94526 8.79924 2.91115 8.75273C2.87705 8.70622 2.85818 8.65031 2.85714 8.59266C2.85609 8.53501 2.87292 8.47845 2.90532 8.43074C2.93772 8.38303 2.9841 8.34651 3.0381 8.32618L11.0863 5.29645C11.1484 5.27311 11.2156 5.26686 11.2809 5.27835C11.3463 5.28985 11.4073 5.31867 11.4577 5.36181C11.508 5.40495 11.5459 5.46081 11.5673 5.52357C11.5886 5.58632 11.5927 5.65366 11.5791 5.71854Z" fill="#FF7901"/>
</g>
<defs>
<clipPath id="clip0_4851_20692">
<rect width="15.2381" height="15.2276" fill="white" transform="translate(0 0.902344)"/>
</clipPath>
</defs>
</svg>
