<svg width="19" height="18" viewBox="0 0 19 18" fill="none" xmlns="http://www.w3.org/2000/svg">
<path d="M4.93746 15.3935L5.2281 15.5387C6.43912 16.2648 7.79546 16.6037 9.15181 16.6037C13.4146 16.6037 16.9023 13.1183 16.9023 8.85847C16.9023 6.82536 16.0788 4.84065 14.6256 3.38843C13.1724 1.93621 11.2348 1.11328 9.15181 1.11328C4.88902 1.11328 1.40128 4.59861 1.44972 8.90687C1.44972 10.3591 1.88568 11.7629 2.6123 12.9731L2.80606 13.2635L2.03101 16.1196L4.93746 15.3935Z" fill="#FF7901"/>
<path d="M15.4487 2.614C13.8017 0.919741 11.525 0 9.19983 0C4.25887 0 0.286722 4.01781 0.335163 8.90696C0.335163 10.456 0.77113 11.9566 1.49774 13.312L0.238281 17.9107L4.93704 16.7006C6.24494 17.4267 7.69817 17.7655 9.15139 17.7655C14.0439 17.7655 18.0161 13.7477 18.0161 8.85856C18.0161 6.48659 17.0957 4.25985 15.4487 2.614ZM9.19983 16.2649C7.89193 16.2649 6.58403 15.926 5.46989 15.2483L5.17924 15.1031L2.36968 15.8292L3.09629 13.07L2.90253 12.7796C0.77113 9.34263 1.78839 4.79233 5.27613 2.66241C8.76386 0.532481 13.2689 1.54904 15.4003 5.03437C17.5317 8.5197 16.5144 13.0216 13.0267 15.1515C11.9125 15.8776 10.5562 16.2649 9.19983 16.2649ZM13.4626 10.8917L12.9298 10.6496C12.9298 10.6496 12.1547 10.3108 11.6703 10.0687C11.6219 10.0687 11.5734 10.0203 11.525 10.0203C11.3797 10.0203 11.2828 10.0687 11.1859 10.1171C11.1859 10.1171 11.1375 10.1656 10.4593 10.9401C10.4109 11.0369 10.314 11.0853 10.2171 11.0853H10.1686C10.1202 11.0853 10.0233 11.0369 9.97488 10.9885L9.73268 10.8917C9.19983 10.6496 8.71542 10.3592 8.3279 9.97193C8.23102 9.87511 8.08569 9.7783 7.98881 9.68148C7.64973 9.34263 7.31064 8.95537 7.06844 8.5197L7.02 8.42289C6.97155 8.37448 6.97155 8.32607 6.92311 8.22926C6.92311 8.13244 6.92311 8.03563 6.97155 7.98722C6.97155 7.98722 7.16532 7.74518 7.31064 7.59996C7.40752 7.50315 7.45596 7.35793 7.55284 7.26111C7.64973 7.11589 7.69817 6.92226 7.64973 6.77704C7.60128 6.535 7.02 5.228 6.87467 4.93756C6.77779 4.79233 6.68091 4.74393 6.53559 4.69552H6.39026C6.29338 4.69552 6.14806 4.69552 6.00274 4.69552C5.90586 4.69552 5.80897 4.74393 5.71209 4.74393L5.66365 4.79233C5.56677 4.84074 5.46989 4.93756 5.37301 4.98596C5.27613 5.08278 5.22768 5.17959 5.1308 5.27641C4.79172 5.71207 4.59795 6.24456 4.59795 6.77704C4.59795 7.1643 4.69484 7.55156 4.84016 7.89041L4.8886 8.03563C5.32457 8.95537 5.90586 9.7783 6.68091 10.5044L6.87467 10.698C7.02 10.8433 7.16532 10.9401 7.2622 11.0853C8.27946 11.9566 9.44204 12.5859 10.7499 12.9248C10.8953 12.9732 11.089 12.9732 11.2343 13.0216C11.3797 13.0216 11.5734 13.0216 11.7188 13.0216C11.961 13.0216 12.2516 12.9248 12.4454 12.828C12.5907 12.7311 12.6876 12.7311 12.7845 12.6343L12.8813 12.5375C12.9782 12.4407 13.0751 12.3923 13.172 12.2955C13.2689 12.1987 13.3657 12.1019 13.4142 12.005C13.5111 11.8114 13.5595 11.5694 13.6079 11.3273C13.6079 11.2305 13.6079 11.0853 13.6079 10.9885C13.6079 10.9885 13.5595 10.9401 13.4626 10.8917Z" fill="#272727"/>
</svg>
