<?xml version="1.0" standalone="no"?>
<!DOCTYPE svg PUBLIC "-//W3C//DTD SVG 1.1//EN" "http://www.w3.org/Graphics/SVG/1.1/DTD/svg11.dtd" >
<svg xmlns="http://www.w3.org/2000/svg">
<metadata>Generated by IcoMoon</metadata>
<defs>
<font id="Dark-Outline" horiz-adv-x="1024">
<font-face units-per-em="1024" ascent="960" descent="-64" />
<missing-glyph horiz-adv-x="1024" />
<glyph unicode="&#x20;" horiz-adv-x="512" d="" />
<glyph unicode="&#xe900;" glyph-name="Activity-1" d="M712.533 599.168c-3.755-1.923-6.966-4.317-9.719-7.158l-0.009-0.010c-2.517-2.688-19.968-36.096-38.741-74.24-30.635-62.165-34.987-70.059-42.027-76.245-19.499-17.152-51.072-16.341-68.48 1.792-5.564 6.584-10.504 14.005-14.546 21.959l-0.302 0.654c-15.872 31.061-37.376 49.877-68.523 60.032-19.115 6.229-48.555 6.571-67.413 0.768-19.755-6.016-33.323-14.379-49.067-30.251l-14.080-14.165-35.072-71.339c-19.328-39.253-35.925-74.411-36.949-78.165-2.389-9.088 0.469-19.456 7.637-27.563 5.673-6.723 14.103-10.964 23.525-10.964 8.84 0 16.807 3.734 22.412 9.71l0.015 0.017c2.517 2.688 19.968 36.096 38.741 74.24 30.635 62.165 34.987 70.059 42.027 76.245 19.499 17.152 51.072 16.341 68.48-1.792 3.883-3.968 10.539-14.165 14.848-22.613 15.957-31.189 37.12-49.749 68.523-60.075 11.563-3.84 16.811-4.523 34.133-4.651 34.56-0.213 56.789 8.875 81.365 33.28l14.763 14.677 35.157 71.339c19.371 39.253 36.011 74.581 36.992 78.549 4.736 18.859-11.221 38.528-31.147 38.315-4.518-0.042-8.823-0.9-12.793-2.431l0.249 0.085z" />
<glyph unicode="&#xe901;" glyph-name="Activity-2" d="M391.68 862.635c-120.661-3.456-172.971-20.053-223.957-71.168-40.533-40.533-58.069-81.835-67.029-157.483-6.827-57.941-6.827-314.027 0-371.968 5.419-45.909 13.824-77.781 27.435-104.107 10.368-20.096 21.931-35.627 40.064-53.717 49.621-49.664 98.688-65.963 213.248-70.869 50.645-2.176 210.475-2.176 261.12 0 114.56 4.907 163.627 21.205 213.248 70.869 40.363 40.32 58.368 81.493 66.688 152.235 4.352 37.291 6.144 108.075 5.589 220.587-0.512 105.643-0.597 108.544-4.011 114.304-2.911 4.306-6.437 7.941-10.499 10.879l-0.125 0.086c-5.973 4.224-8.747 4.992-17.451 4.992s-11.477-0.768-17.451-4.992c-3.925-2.731-8.704-7.68-10.624-10.965-3.413-5.803-3.499-8.832-4.523-150.144-0.981-137.301-1.792-159.872-6.699-193.707-6.869-47.232-24.277-80.469-56.491-107.904-31.317-26.667-65.152-36.821-138.027-41.344-36.523-2.304-263.851-2.304-300.373 0-72.875 4.523-106.709 14.677-138.027 41.344-16.291 13.569-29.55 30.169-39.024 49l-0.4 0.877c-20.053 41.131-23.936 82.731-23.936 258.56s3.883 217.429 23.936 258.56c15.095 30.126 38.951 53.982 68.202 68.679l0.875 0.398c41.685 20.352 81.749 23.893 268.8 23.936 82.475 0 122.453 0.597 127.104 1.92 9.045 2.475 18.816 12.501 21.333 21.803 3.797 14.123-1.28 27.221-13.824 35.499l-7.211 4.779-106.795 0.171c-7.867 0.033-17.172 0.052-26.481 0.052-43.845 0-87.591-0.422-131.234-1.261l6.547 0.099z" />
<glyph unicode="&#xe902;" glyph-name="Activity-3" d="M712.533 599.168c-3.755-1.923-6.966-4.317-9.719-7.158l-0.009-0.010c-2.517-2.688-19.968-36.096-38.741-74.24-30.635-62.165-34.987-70.059-42.027-76.245-19.499-17.152-51.072-16.341-68.48 1.792-5.564 6.584-10.504 14.005-14.546 21.959l-0.302 0.654c-15.872 31.061-37.376 49.877-68.523 60.032-19.115 6.229-48.555 6.571-67.413 0.768-19.755-6.016-33.323-14.379-49.067-30.251l-14.080-14.165-35.072-71.339c-19.328-39.253-35.925-74.411-36.949-78.165-2.389-9.088 0.469-19.456 7.637-27.563 5.673-6.723 14.103-10.964 23.525-10.964 8.84 0 16.807 3.734 22.412 9.71l0.015 0.017c2.517 2.688 19.968 36.096 38.741 74.24 30.635 62.165 34.987 70.059 42.027 76.245 19.499 17.152 51.072 16.341 68.48-1.792 3.883-3.968 10.539-14.165 14.848-22.613 15.957-31.189 37.12-49.749 68.523-60.075 11.563-3.84 16.811-4.523 34.133-4.651 34.56-0.213 56.789 8.875 81.365 33.28l14.763 14.677 35.157 71.339c19.371 39.253 36.011 74.581 36.992 78.549 4.736 18.859-11.221 38.528-31.147 38.315-4.518-0.042-8.823-0.9-12.793-2.431l0.249 0.085z" />
<glyph unicode="&#xe903;" glyph-name="Activity-4" d="M712.533 599.168c-3.755-1.923-6.966-4.317-9.719-7.158l-0.009-0.010c-2.517-2.688-19.968-36.139-38.784-74.283-30.592-62.080-35.029-70.101-41.984-76.245-19.499-17.109-51.072-16.299-68.48 1.835-5.564 6.584-10.504 14.005-14.546 21.959l-0.302 0.654c-15.872 31.061-37.376 49.877-68.523 60.032-19.115 6.229-48.555 6.571-67.413 0.768-19.755-6.016-33.323-14.379-49.067-30.251l-14.080-14.165-35.072-71.339c-19.328-39.253-35.925-74.411-36.949-78.165-2.389-9.088 0.469-19.456 7.637-27.563 5.673-6.723 14.103-10.964 23.525-10.964 8.84 0 16.807 3.734 22.412 9.71l0.015 0.017c2.517 2.688 19.968 36.096 38.741 74.24 30.635 62.165 34.987 70.059 42.027 76.245 19.499 17.152 51.072 16.341 68.48-1.792 3.883-3.968 10.539-14.165 14.848-22.613 15.957-31.189 37.12-49.749 68.523-60.075 11.563-3.84 16.811-4.523 34.133-4.651 34.56-0.213 56.789 8.875 81.365 33.28l14.763 14.677 35.157 71.339c19.371 39.253 36.011 74.581 36.992 78.549 4.736 18.859-11.221 38.528-31.147 38.315-4.518-0.042-8.823-0.9-12.793-2.431l0.249 0.085z" />
<glyph unicode="&#xe904;" glyph-name="Add-Category" d="M250.027 819.968c-21.077-1.536-30.848-3.925-45.739-11.221-31.009-15.455-53.835-43.399-62.085-77.065l-0.166-0.802c-4.181-18.048-4.139-120.832 0-139.093 10.683-43.107 43.976-76.399 86.27-86.912l0.813-0.171c10.197-2.347 22.4-2.816 69.547-2.816s59.349 0.469 69.547 2.816c43.107 10.683 76.399 43.976 86.912 86.27l0.171 0.813c4.139 18.133 4.139 120.96 0 139.093-9.935 40.646-40.12 72.472-79.001 84.557l-0.829 0.222c-17.92 5.376-81.749 7.552-125.44 4.309zM364.245 751.915c10.709-5.248 19.755-14.293 25.003-25.003 4.139-8.405 4.139-8.533 4.139-65.579s0-57.173-4.139-65.579c-5.291-10.709-15.36-20.779-25.472-25.472-7.637-3.541-10.197-3.669-65.109-3.669s-57.472 0.128-65.109 3.669c-11.035 5.671-19.801 14.437-25.32 25.148l-0.152 0.324c-4.053 8.235-4.139 9.472-4.693 58.923-0.341 31.147 0.128 54.357 1.28 60.416 3.499 19.072 19.84 36.352 37.803 40.021 4.139 0.853 31.36 1.408 60.459 1.237 52.224-0.299 52.992-0.341 61.312-4.437z" />
<glyph unicode="&#xe905;" glyph-name="Add-Circle" d="M503.936 606.805c-8.68-2.824-15.791-8.455-20.431-15.802l-0.091-0.155c-2.645-4.779-3.029-11.819-3.499-57.813l-0.512-52.395-105.045-1.067-7.211-4.779c-12.544-8.277-17.621-21.376-13.824-35.499 2.517-9.301 12.288-19.328 21.333-21.803 4.224-1.195 25.301-1.92 55.851-1.92h49.067v-49.067c0-28.501 0.768-51.712 1.792-55.424 4.608-16.64 22.187-26.368 39.253-21.76 9.387 2.517 19.371 12.245 21.888 21.333 1.195 4.224 1.92 25.301 1.92 55.851v49.067h49.067c30.549 0 51.627 0.725 55.851 1.92 9.045 2.475 18.816 12.501 21.333 21.803 3.797 14.123-1.28 27.221-13.824 35.499l-7.211 4.779-105.045 1.067-0.512 52.395c-0.469 49.152-0.725 52.693-4.011 58.283-6.185 9.788-16.947 16.193-29.205 16.193-2.455 0-4.849-0.257-7.159-0.745l0.225 0.040z" />
<glyph unicode="&#xe906;" glyph-name="Add-Square" d="M503.936 606.805c-8.68-2.824-15.791-8.455-20.431-15.802l-0.091-0.155c-2.645-4.779-3.029-11.819-3.499-57.813l-0.512-52.395-105.045-1.067-7.211-4.779c-12.544-8.277-17.621-21.376-13.824-35.499 2.517-9.301 12.288-19.328 21.333-21.803 4.224-1.195 25.301-1.92 55.851-1.92h49.067v-49.067c0-28.501 0.768-51.712 1.792-55.424 4.608-16.64 22.187-26.368 39.253-21.76 9.387 2.517 19.371 12.245 21.888 21.333 1.195 4.224 1.92 25.301 1.92 55.851v49.067h49.067c30.549 0 51.627 0.725 55.851 1.92 9.045 2.475 18.816 12.501 21.333 21.803 3.797 14.123-1.28 27.221-13.824 35.499l-7.211 4.779-105.045 1.067-0.512 52.395c-0.469 49.152-0.725 52.693-4.011 58.283-6.185 9.788-16.947 16.193-29.205 16.193-2.455 0-4.849-0.257-7.159-0.745l0.225 0.040z" />
<glyph unicode="&#xe907;" glyph-name="Add" d="M503.936 820.139c-8.68-2.824-15.791-8.455-20.431-15.802l-0.091-0.155c-2.773-5.077-3.029-16.811-3.456-164.565l-0.469-159.104-318.464-0.939-7.211-4.779c-12.544-8.277-17.621-21.376-13.824-35.499 2.517-9.301 12.288-19.328 21.333-21.803 4.736-1.323 54.144-1.92 162.517-1.92h155.733v-155.733c0-108.373 0.597-157.781 1.92-162.517 2.517-9.088 12.501-18.816 21.888-21.333 17.067-4.608 34.645 5.12 39.253 21.76 1.152 4.181 1.792 60.245 1.792 162.091v155.733h155.733c108.373 0 157.781 0.597 162.517 1.92 9.045 2.475 18.816 12.501 21.333 21.803 3.797 14.123-1.28 27.221-13.824 35.499l-7.211 4.779-318.464 0.939-0.469 159.104c-0.469 156.843-0.512 159.189-3.968 165.035-6.185 9.788-16.947 16.193-29.205 16.193-2.455 0-4.849-0.257-7.159-0.745l0.225 0.040z" />
<glyph unicode="&#xe908;" glyph-name="Arrow-Swap-Horizontal" d="M341.973 820.181c-3.901-1.146-7.304-2.807-10.353-4.939l0.113 0.075c-8.576-6.187-115.797-115.157-123.947-125.952-28.928-38.272-33.323-72.192-11.904-91.52 13.824-12.416-8.619-11.605 321.109-11.605 210.859 0 298.197 0.555 303.019 1.92 9.045 2.475 18.816 12.501 21.333 21.803 3.797 14.123-1.28 27.221-13.867 35.499l-7.168 4.779-561.749 1.707 59.989 60.587c52.779 53.291 60.245 61.483 61.995 68.053 0.815 2.643 1.285 5.681 1.285 8.829 0 10.951-5.683 20.575-14.26 26.083l-0.123 0.074c-5.242 3.337-11.631 5.318-18.481 5.318-2.475 0-4.889-0.259-7.217-0.75l0.227 0.040z" />
<glyph unicode="&#xe909;" glyph-name="Arrow-Swap-Vertical" d="M674.859 783.488c-9.719-4.499-17.211-12.434-21.025-22.209l-0.095-0.276c-3.499-9.301-3.499-11.093-3.499-311.808 0-202.752 0.597-304.512 1.792-308.779 7.595-27.307 45.483-31.019 59.264-5.803 2.731 4.949 2.987 25.344 3.797 290.347l0.853 285.013 60.587-59.989c53.291-52.779 61.483-60.245 68.053-61.995 2.592-0.756 5.569-1.191 8.648-1.191 17.673 0 32 14.327 32 32 0 3.067-0.431 6.033-1.237 8.841l0.055-0.226c-1.749 6.571-8.576 14.080-57.728 63.445-57.557 57.771-74.24 72.619-93.824 83.456-19.456 10.752-44.8 14.805-57.643 9.173z" />
<glyph unicode="&#xe90a;" glyph-name="Attachment" d="M661.333 905.259c-27.904-3.072-59.648-14.933-84.992-31.872-15.232-10.155-38.827-33.195-43.648-42.667-2.204-4.21-3.498-9.197-3.498-14.485 0-16.45 12.512-29.977 28.538-31.584l0.133-0.011c11.563-1.152 21.632 3.669 31.019 14.848 15.531 18.389 43.904 35.2 67.883 40.149 7.706 1.652 16.559 2.598 25.633 2.598 17.321 0 33.837-3.447 48.899-9.693l-0.847 0.311c16.469-6.912 28.587-15.317 42.069-29.141 9.643-9.899 13.909-16.128 20.736-30.080 4.693-9.685 9.429-21.291 10.496-25.856 3.157-13.611 4.053-33.621 2.005-46.592-2.176-13.952-100.395-382.293-107.008-401.408-14.233-38.974-45.823-68.557-85.159-79.739l-0.9-0.219c-17.237-4.651-48.427-4.224-64.853 0.939-42.837 13.355-72.192 42.752-85.589 85.632-3.285 10.539-3.968 16.469-3.925 34.091l0.043 21.333 22.656 84.224c24.448 90.795 24.533 91.392 16.725 102.997-5.712 8.855-15.527 14.634-26.692 14.634-11.022 0-20.728-5.632-26.398-14.176l-0.073-0.117c-5.419-7.979-48.128-169.728-50.56-191.36-6.955-61.824 22.699-129.152 73.899-167.723 31.378-23.656 71.022-37.887 113.99-37.887 16.385 0 32.287 2.069 47.458 5.961l-1.32-0.287c58.737 15.539 105.463 57.021 127.879 111.126l0.462 1.258c4.693 11.904 105.429 384.341 111.701 413.056 3.371 15.488 3.755 50.688 0.725 66.475-5.815 28.657-16.632 54.039-31.589 76.42l0.485-0.772c-9.216 13.739-33.451 37.888-47.317 47.232-13.566 9.071-29.122 17.053-45.584 23.171l-1.563 0.509c-18.762 6.076-40.349 9.579-62.754 9.579-6.748 0-13.422-0.318-20.007-0.939l0.841 0.064z" />
<glyph unicode="&#xe90b;" glyph-name="Award-1" d="M497.963 777.429c-29.909-5.376-54.315-23.509-66.261-49.237-10.581-22.741-11.989-25.088-17.451-28.757-3.968-2.731-10.069-4.224-22.101-5.547-25.216-2.773-40.661-9.984-56.789-26.496-15.949-16.955-25.75-39.854-25.75-65.041 0-6.302 0.613-12.46 1.784-18.419l-0.098 0.602c4.352-20.693 12.885-35.84 29.312-52.011 8.917-8.789 14.592-15.829 15.275-18.944 0.597-2.731 1.408-5.931 1.749-7.125 0.384-1.152-0.853-9.216-2.688-17.92-1.589-6.829-2.773-14.918-3.305-23.185l-0.023-0.452c-0.043-10.752 5.717-32.427 11.435-42.923 10.496-19.371 31.488-36.992 52.181-43.819 28.544-9.387 46.848-6.272 84.736 14.464 9.6 5.248 14.464 5.248 24.064 0 37.888-20.736 56.192-23.851 84.736-14.464 20.693 6.827 41.685 24.448 52.181 43.819 5.717 10.496 11.477 32.171 11.435 42.923 0 4.309-1.493 14.976-3.328 23.637-1.835 8.704-3.072 16.768-2.688 17.92 0.341 1.195 1.152 4.395 1.749 7.125 0.683 3.115 6.357 10.155 15.275 18.944 16.427 16.171 24.96 31.317 29.312 52.011 1.072 5.357 1.686 11.516 1.686 17.818 0 25.187-9.8 48.086-25.795 65.090l0.046-0.049c-16.171 16.555-31.829 23.808-56.789 26.411-12.245 1.28-17.877 2.688-22.059 5.547-5.504 3.755-6.912 6.101-17.493 28.843-10.622 21.572-29.095 37.92-51.597 45.512l-0.627 0.184c-12.8 3.925-31.189 5.504-42.112 3.541zM525.824 710.357c3.2-2.133 7.083-6.571 8.661-9.813l8.875-18.731c13.611-29.013 41.856-48.085 75.008-50.688 20.395-1.579 30.080-9.771 31.488-26.624 1.024-12.16-1.792-17.237-18.347-33.451-25.685-25.088-34.005-54.059-26.24-91.477 3.328-16.085 2.304-24.149-3.925-31.573-10.752-12.757-21.675-13.44-39.851-2.475-17.451 10.496-30.848 14.421-49.493 14.421s-32.043-3.925-49.493-14.421c-18.176-10.965-29.099-10.283-39.851 2.475-6.229 7.424-7.253 15.488-3.925 31.573 7.765 37.419-0.427 65.877-26.368 91.477-16.469 16.256-19.243 21.333-18.219 33.451 1.408 16.853 11.093 25.045 31.488 26.624 33.152 2.603 61.397 21.675 75.008 50.688l8.875 18.731c4.080 8.181 12.388 13.701 21.986 13.701 0.176 0 0.351-0.002 0.526-0.006h-0.026c5.547 0 9.856-1.195 13.824-3.883z" />
<glyph unicode="&#xe90c;" glyph-name="Award-2" d="M484.693 948.011c-50.656-3.46-97.432-16.932-139.406-38.444l2.020 0.94c-89.33-44.237-157.023-120.856-188.547-214.138l-0.765-2.609c-12.228-35.116-19.29-75.594-19.29-117.721 0-42.315 7.125-82.965 20.242-120.817l-0.781 2.591c7.381-22.315 7.637-23.68 4.949-27.307-11.093-15.147-27.435-42.283-72.491-120.363-67.925-117.632-70.485-122.837-70.485-143.829 0-20.181 13.995-38.912 33.749-45.099 14.763-4.651 35.84-2.731 92.544 8.405 26.539 5.205 51.371 9.472 55.125 9.472 6.784 0 6.912-0.128 11.648-10.667 2.603-5.888 11.477-30.251 19.669-54.187 17.451-50.731 25.131-66.859 37.035-77.568 21.376-19.2 49.877-16.469 71.125 6.741 11.093 12.16 14.72 18.091 72.832 119.211l47.787 83.157 8.533-1.237c4.693-0.683 24.917-1.28 44.971-1.365l36.437-0.085 50.261-87.040c55.467-96.128 59.008-101.888 70.357-113.963 21.376-22.912 52.651-24.235 72.448-3.115 11.136 11.947 17.451 25.813 36.096 79.531 9.131 26.283 18.091 50.645 19.883 54.187 2.944 5.803 3.925 6.4 10.155 6.4 3.797 0 20.48-2.645 37.077-5.931 79.616-15.573 93.525-17.109 110.592-12.032 8.789 2.603 20.181 11.136 26.197 19.584 1.92 2.645 4.651 9.472 6.101 15.104 2.347 9.173 2.347 11.563 0.043 22.613-2.796 10.937-6.52 20.492-11.23 29.446l0.35-0.731c-9.515 18.731-105.728 185.643-118.144 204.928l-8.149 12.672 3.499 8.661c7.735 19.163 14.9 42.327 20.237 66.182l0.584 3.109c26.837 131.925-22.101 272.384-124.715 357.931-76.459 63.701-169.643 94.037-268.544 87.381zM552.448 882.304c125.019-16.932 225.282-106.562 257.625-224.306l0.508-2.169c40.405-152.363-39.381-309.717-186.795-368.256-21.801-8.23-47.383-14.819-73.866-18.624l-1.996-0.235c-11.179-1.28-29.056-1.707-47.787-1.109-46.507 1.451-81.365 10.197-123.819 31.061-24.67 11.73-45.922 25.735-64.948 42.239l0.351-0.297c-47.232 39.424-84.864 99.755-99.285 159.019-31.36 128.939 18.603 259.755 127.019 332.629 48.298 33.037 107.978 52.756 172.265 52.756 14.362 0 28.493-0.984 42.332-2.889l-1.604 0.181zM208.384 358.827c40.021-57.088 104.747-107.093 169.643-131.072 8.448-3.115 15.957-6.187 16.725-6.784 0.725-0.64-19.115-36.608-44.16-80-23.491-41.969-38.715-67.556-54.267-92.919l8.315 14.583c0.74-4.281-4.157 9.476-8.941 23.286l-5.481 18.186c-7.968 24.065-14.892 42.146-22.433 59.901l1.995-5.288c-15.744 33.579-42.24 47.872-80.597 43.477-7.253-0.811-31.36-5.035-53.589-9.344s-40.789-7.467-41.259-6.997c-0.981 0.981 103.979 183.595 105.515 183.595 0.597 0.043 4.395-4.779 8.533-10.624zM868.48 273.792c27.563-47.872 49.749-87.467 49.28-87.936s-18.816 2.645-40.747 6.955c-21.931 4.267-46.421 8.491-54.4 9.387-38.4 4.352-64.597-9.856-80.299-43.477-3.541-7.509-12.715-32.085-20.437-54.613s-14.208-41.173-14.421-41.429c-0.555-0.64-87.552 150.144-88.235 152.917-0.384 1.493 5.76 4.48 18.219 8.875 45.834 16.901 85.335 40.545 119.517 70.164l-0.477-0.404c19.328 16.683 44.416 43.605 54.656 58.581 1.863 3.058 3.965 5.703 6.353 8.060l0.004 0.004c0.469 0 23.424-39.211 50.987-87.083z" />
<glyph unicode="&#xe90d;" glyph-name="Award-3" d="M484.693 948.011c-50.656-3.46-97.432-16.932-139.406-38.444l2.020 0.94c-119.68-58.837-197.035-173.739-207.659-308.48-6.784-86.016 20.096-177.963 72.619-248.405l11.093-14.848 0.683-160.853c0.768-176.64 0.64-174.080 11.264-196.779 12.331-26.325 39.339-39.509 66.688-32.512 24.448 6.272 38.016 15.659 113.579 78.592 74.155 61.781 86.4 69.76 102.4 66.773 9.899-1.877 33.024-18.944 90.453-66.773 75.563-62.933 89.131-72.32 113.579-78.592 4.273-1.138 9.178-1.792 14.236-1.792 22.237 0 41.522 12.639 51.064 31.124l0.151 0.321c11.947 23.637 12.928 39.893 12.971 214.144v146.347l11.093 14.72c52.352 69.376 79.616 162.432 72.832 248.533-10.624 134.741-87.893 249.557-207.659 308.48-48.011 24.288-104.664 38.514-164.639 38.514-9.629 0-19.172-0.367-28.616-1.087l1.256 0.077zM552.448 882.304c125.029-16.909 225.302-106.549 257.626-224.307l0.507-2.168c6.446-23.94 10.149-51.427 10.149-79.779 0-34.871-5.602-68.434-15.954-99.838l0.643 2.252c-16.939-51.328-52.523-103.936-93.099-137.813-58.667-48.981-125.525-73.515-200.32-73.515-75.008 0-141.568 24.491-200.533 73.685-40.491 33.792-75.947 86.315-92.885 137.643-9.71 29.152-15.312 62.715-15.312 97.587 0 28.351 3.703 55.838 10.651 82.003l-0.502-2.224c29.341 106.911 111.841 189.411 216.579 218.242l2.173 0.51c24.145 6.472 51.865 10.189 80.454 10.189 14.038 0 27.866-0.896 41.431-2.635l-1.607 0.168zM306.603 264.363c50.56-33.877 114.816-55.637 179.371-60.715 78.379-6.187 165.845 16.768 231.424 60.715 9.216 6.187 17.109 11.264 17.493 11.264 1.237 0 0.469-243.029-0.853-252.117-0.322-3.672-1.124-7.060-2.348-10.24l0.087 0.256c-2.389-2.347-19.883 11.008-79.957 60.928-73.387 61.013-91.307 73.472-115.797 80.683-12.075 3.541-35.968 3.541-48.043 0-24.704-7.253-41.472-18.987-116.309-81.195-51.712-43.008-77.355-62.507-79.403-60.459-1.151 2.934-1.967 6.335-2.293 9.879l-0.011 0.148c-1.323 9.088-2.091 252.117-0.853 252.117 0.384 0 8.277-5.077 17.493-11.264z" />
<glyph unicode="&#xe90e;" glyph-name="Award-4" d="M497.963 777.429c-29.909-5.376-54.315-23.509-66.261-49.237-10.581-22.741-11.989-25.088-17.451-28.757-3.968-2.731-10.069-4.224-22.101-5.547-25.216-2.773-40.661-9.984-56.789-26.496-15.949-16.955-25.75-39.854-25.75-65.041 0-6.302 0.613-12.46 1.784-18.419l-0.098 0.602c4.352-20.693 12.885-35.84 29.312-52.011 8.917-8.789 14.592-15.829 15.275-18.944 0.597-2.731 1.408-5.931 1.749-7.125 0.384-1.152-0.853-9.216-2.688-17.92-1.589-6.829-2.773-14.918-3.305-23.185l-0.023-0.452c-0.043-10.752 5.717-32.427 11.435-42.923 10.496-19.371 31.488-36.992 52.181-43.819 28.544-9.387 46.848-6.272 84.736 14.464 9.6 5.248 14.464 5.248 24.064 0 37.888-20.736 56.192-23.851 84.736-14.464 20.693 6.827 41.685 24.448 52.181 43.819 5.717 10.496 11.477 32.171 11.435 42.923 0 4.309-1.493 14.976-3.328 23.637-1.835 8.704-3.072 16.768-2.688 17.92 0.341 1.195 1.152 4.395 1.749 7.125 0.683 3.115 6.357 10.155 15.275 18.944 16.427 16.171 24.96 31.317 29.312 52.011 1.072 5.357 1.686 11.516 1.686 17.818 0 25.187-9.8 48.086-25.795 65.090l0.046-0.049c-16.128 16.512-31.573 23.723-56.789 26.496-12.032 1.323-18.133 2.816-22.101 5.547-5.461 3.669-6.869 6.016-17.451 28.757-10.622 21.572-29.095 37.92-51.597 45.512l-0.627 0.184c-12.8 3.925-31.189 5.504-42.112 3.541zM525.824 710.357c3.2-2.133 7.083-6.571 8.661-9.813l8.875-18.731c13.611-29.013 41.856-48.085 75.008-50.688 20.395-1.579 30.080-9.771 31.488-26.624 1.024-12.16-1.792-17.237-18.347-33.451-25.685-25.088-34.005-54.059-26.24-91.477 3.328-16.085 2.304-24.149-3.925-31.573-10.752-12.757-21.675-13.44-39.851-2.475-17.451 10.496-30.848 14.421-49.493 14.421s-32.043-3.925-49.493-14.421c-18.176-10.965-29.099-10.283-39.851 2.475-6.229 7.424-7.253 15.488-3.925 31.573 7.765 37.419-0.427 65.877-26.368 91.477-16.469 16.256-19.243 21.333-18.219 33.451 1.408 16.853 11.093 25.045 31.488 26.624 33.152 2.603 61.397 21.675 75.008 50.688l8.875 18.731c4.080 8.181 12.388 13.701 21.986 13.701 0.176 0 0.351-0.002 0.526-0.006h-0.026c5.547 0 9.856-1.195 13.824-3.883z" />
<glyph unicode="&#xe90f;" glyph-name="Award-5" d="M424.96 905.301c-49.493-2.261-76.885-8.789-110.592-26.368-53.78-28.186-95.073-74.053-116.716-129.733l-0.575-1.681c-3.584-9.515-4.224-10.283-9.6-10.667-41.685-3.029-57.173-6.485-80.811-18.176-42.411-20.949-70.784-55.509-85.589-104.277-4.267-14.037-4.651-17.835-4.779-44.373-0.085-25.344 0.427-30.72 3.84-42.667 8.448-29.525 26.155-58.24 47.872-77.611 8.704-7.808 122.709-90.155 128.128-92.587 0.597-0.256 4.395-7.381 8.405-15.829 19.627-41.216 50.731-77.269 86.443-100.267 33.195-21.333 122.027-59.605 167.253-72.021l20.48-5.632 0.469-54.741 0.427-54.741-147.925-1.024-7.211-4.779c-12.544-8.277-17.621-21.376-13.824-35.499 2.517-9.301 12.288-19.328 21.333-21.803 9.557-2.688 350.464-2.688 360.021 0 9.045 2.475 18.816 12.501 21.333 21.803 3.797 14.123-1.28 27.221-13.824 35.499l-7.211 4.779-147.925 1.024 0.427 54.741 0.469 54.741 20.48 5.632c45.227 12.416 134.059 50.688 167.253 72.021 18.141 12.006 33.844 25.579 47.633 40.908l0.197 0.222c13.867 16.341 31.488 43.477 39.296 60.544 3.712 8.107 7.637 15.104 8.747 15.531 1.067 0.427 28.331 19.413 60.587 42.197 74.496 52.693 88.747 66.432 104.832 101.248 11.221 24.363 13.483 35.925 13.397 68.309-0.128 26.539-0.512 30.336-4.779 44.373-14.805 48.768-43.179 83.328-85.589 104.277-23.637 11.691-39.125 15.147-80.811 18.176-5.376 0.384-6.016 1.152-9.6 10.667-13.056 34.816-38.4 72.277-64.384 95.061-35.456 31.104-77.056 51.84-117.461 58.496-32.512 5.376-146.219 7.552-220.117 4.224zM631.467 838.955c53.077-8.96 102.528-46.464 127.317-96.555 18.048-36.48 19.413-49.835 19.456-188.075 0-107.093-1.323-136.747-6.997-159.147-9.216-36.096-38.485-77.483-69.163-97.749-32.811-21.717-129.664-62.507-167.253-70.443-14.933-3.157-30.72-3.157-45.653 0-37.589 7.936-134.443 48.725-167.253 70.443-31.019 20.523-60.245 62.080-69.248 98.517-5.76 23.339-6.912 49.237-6.912 156.501 0 112.597 1.28 138.667 7.893 161.579 12.885 44.416 46.891 85.717 88.064 106.965 25.259 13.056 41.259 17.365 74.709 20.181 17.92 1.451 204.501-0.427 215.040-2.219zM181.76 558.933c0-61.952-0.213-112.64-0.512-112.64-1.323 0-60.288 42.368-68.096 48.939-11.967 11.136-21.47 24.748-27.717 40.036l-0.272 0.753c-3.493 10.154-5.51 21.855-5.51 34.027 0 12.266 2.048 24.055 5.822 35.041l-0.226-0.758c13.611 38.656 49.92 66.091 88.832 67.072l7.68 0.171v-112.64zM877.696 665.941c15.701-5.717 25.771-12.075 36.821-23.253 27.733-28.032 37.291-69.845 24.32-106.667-4.651-13.227-17.451-31.915-27.989-40.789-7.808-6.571-66.773-48.939-68.096-48.939-0.299 0-0.512 50.773-0.512 112.853v112.853l12.203-1.024c6.699-0.555 17.152-2.859 23.253-5.035z" />
<glyph unicode="&#xe910;" glyph-name="Award-6" d="M495.36 691.157c-25.248-5.499-45.364-23.328-53.979-46.72l-0.165-0.512c-1.375-3.985-3.347-7.429-5.845-10.42l0.042 0.052c-1.536-1.28-9.301-3.243-17.237-4.352-26.325-3.627-46.379-17.749-57.173-40.192-15.872-32.981-10.027-67.328 15.787-93.013l10.923-10.88-0.939-8.747c-3.285-30.251-3.243-34.688 0.427-46.763 9.387-31.019 35.456-52.736 67.157-55.979 13.525-1.408 28.672 2.219 43.605 10.453 5.888 3.243 12.245 5.888 14.037 5.888s8.149-2.645 14.037-5.888c14.933-8.235 30.080-11.861 43.605-10.453 32.073 3.37 58.151 25.688 67.016 55.425l0.142 0.553c3.669 12.075 3.712 16.512 0.427 46.763l-0.939 8.747 10.923 10.88c32.085 31.957 32.896 81.195 1.835 112.171-12.672 12.629-24.704 18.475-43.221 21.035-7.936 1.109-15.701 3.072-17.237 4.352-2.455 2.938-4.428 6.383-5.733 10.139l-0.069 0.229c-9.387 24.917-29.013 41.813-54.955 47.317-13.909 2.944-18.56 2.944-32.469-0.085zM519.253 625.92c1.451-1.664 4.907-7.979 7.68-14.080 11.648-25.6 34.773-42.112 63.573-45.355 12.715-1.451 17.067-4.864 17.067-13.44 0-4.992-1.707-7.595-10.923-16.811-11.056-10.655-19.168-24.291-23.044-39.615l-0.124-0.577c-2.091-8.704-1.792-19.883 0.981-42.283 0.939-7.509 0.555-9.301-2.517-12.373-3.797-3.797-12.843-4.949-14.763-1.877-2.347 3.797-21.845 11.989-33.195 13.952-3.604 0.773-7.745 1.216-11.989 1.216s-8.385-0.443-12.379-1.284l0.39 0.069c-11.349-1.963-30.848-10.155-33.195-13.952-1.92-3.072-10.965-1.92-14.763 1.877-3.072 3.072-3.456 4.821-2.475 12.373 3.029 24.277 3.072 34.688 0.171 44.672-3.983 15.006-11.808 27.837-22.362 37.81l-0.038 0.036c-8.96 8.875-10.923 11.861-10.923 16.384 0 9.472 3.541 12.459 16.213 13.781 29.184 2.987 52.651 19.499 64.427 45.397 6.272 13.824 9.131 17.067 14.933 17.067 2.815-0.085 5.353-1.206 7.259-2.992l-0.006 0.006z" />
<glyph unicode="&#xe911;" glyph-name="Backward-5-Seconds" d="M454.656 606.677c-39.622-5.173-72.618-29.464-89.804-63.164l-0.308-0.665c-9.899-20.224-11.563-28.971-12.501-65.365-0.939-37.248 1.109-51.328 9.6-66.176 5.845-10.197 20.736-24.704 30.549-29.696 16.043-8.192 22.443-8.661 119.125-8.661 86.827-0.043 90.709-0.171 93.525-3.285 2.603-2.859 2.901-6.827 2.432-33.707-0.512-28.203-0.853-31.104-4.693-38.869-5.291-10.709-15.36-20.779-25.472-25.472-7.765-3.584-10.197-3.669-105.344-4.523l-97.408-0.853-7.211-4.779c-12.544-8.277-17.621-21.376-13.824-35.499 3.451-10.399 11.464-18.441 21.604-21.86l0.241-0.071c5.12-1.408 34.859-1.792 103.168-1.365 85.845 0.555 97.024 0.939 106.197 3.669 40.633 11.774 71.978 43.147 83.5 82.94l0.212 0.857c2.091 7.467 3.115 19.328 3.669 43.52 1.195 48.341-3.243 63.872-23.637 82.731-10.394 10.036-23.783 17.033-38.697 19.525l-0.428 0.059c-6.571 1.067-46.251 1.792-99.029 1.792-84.309 0-88.192 0.128-90.965 3.243-2.603 2.859-2.901 6.827-2.432 33.707 0.512 28.203 0.853 31.104 4.693 38.869 5.248 10.709 14.293 19.755 25.003 25.003l8.405 4.139 92.16 0.853c101.717 0.939 97.621 0.469 107.264 11.947 12.459 14.805 8.96 36.267-7.637 47.275l-7.211 4.779-87.168 0.256c-47.957 0.128-91.861-0.384-97.579-1.152z" />
<glyph unicode="&#xe912;" glyph-name="Backward-10-Seconds" d="M342.016 570.283c-11.221-3.669-20.437-11.136-47.019-38.059-20.864-21.12-25.344-26.581-27.008-32.811-0.76-2.596-1.197-5.579-1.197-8.663 0-17.65 14.308-31.957 31.957-31.957 3.085 0 6.067 0.437 8.889 1.253l-0.226-0.056c5.973 1.621 11.136 5.632 25.813 20.096l18.347 18.048v-111.659c0-71.595 0.64-113.963 1.792-118.059 4.608-16.64 22.187-26.368 39.253-21.76 10.41 3.383 18.472 11.361 21.903 21.478l0.071 0.24c1.365 5.077 1.792 43.904 1.451 133.973l-0.469 126.805-5.632 11.435c-5.915 12.309-15.945 21.855-28.269 27.003l-0.36 0.133c-10.325 4.565-29.355 5.803-39.296 2.56z" />
<glyph unicode="&#xe913;" glyph-name="Backward" d="M376.448 734.549c-34.091-4.608-71.381-22.699-187.008-90.752-117.504-69.12-144.512-90.368-163.072-128.384-10.795-22.187-15.019-41.088-15.019-67.413 0-48.384 17.92-85.931 56.064-117.291 23.211-19.115 50.517-36.565 134.827-86.187 103.979-61.184 138.795-77.739 175.445-83.456 30.891-4.779 73.387 7.253 101.931 28.843 36.352 27.563 54.187 60.544 59.776 110.507 3.115 27.989 0.341 26.795 24.277 10.411 31.445-21.547 127.019-78.677 182.699-109.269 73.813-40.491 108.416-48.597 152.704-35.84 29.867 8.619 50.859 21.76 73.429 45.952 19.669 21.035 31.019 47.957 36.053 85.419 6.997 51.968 7.040 249.259 0.043 301.824-2.859 21.504-9.557 44.459-17.323 59.392-13.056 25.131-44.587 53.504-72.235 64.981-46.976 19.541-83.84 16.043-142.72-13.397-49.877-24.96-183.040-103.381-218.197-128.512-7.936-5.675-14.763-9.984-15.189-9.557-1.277 5.768-2.362 12.862-3.021 20.080l-0.051 0.699c-4.949 43.307-15.829 69.632-38.613 93.739-33.792 35.669-81.451 54.101-124.8 48.213zM411.093 669.099c22.955-6.101 45.568-23.637 54.827-42.496 11.179-22.784 13.611-54.528 13.611-178.603s-2.432-155.819-13.611-178.603c-9.685-19.712-33.707-37.675-57.771-43.264-29.867-6.955-54.784 3.797-181.163 78.165-86.613 50.944-110.933 67.072-130.048 86.144-22.912 22.955-28.629 63.744-13.483 96.128 11.179 23.936 34.261 40.661 150.059 108.885 120.832 71.211 146.603 81.877 177.579 73.643zM880.427 669.099c22.955-6.101 45.568-23.637 54.827-42.496 11.179-22.784 13.611-54.528 13.611-178.603s-2.432-155.819-13.611-178.603c-9.685-19.712-33.707-37.675-57.771-43.264-29.867-6.955-54.784 3.797-181.163 78.165-86.613 50.944-110.933 67.072-130.048 86.144-22.912 22.955-28.629 63.744-13.483 96.128 11.179 23.936 34.261 40.661 150.059 108.885 120.832 71.211 146.603 81.877 177.579 73.643z" />
<glyph unicode="&#xe914;" glyph-name="Bag-1" d="M486.272 915.712c-76.709-10.584-139.124-62.441-164.707-132.086l-0.456-1.418c-7.467-21.333-10.624-38.485-11.733-63.915l-0.981-22.4-14.677-3.669c-19.328-4.779-54.912-22.528-73.899-36.864-35.84-27.051-62.251-60.501-77.184-97.792-14.72-36.821-23.083-82.176-42.88-232.448-11.477-87.253-14.037-139.051-8.405-171.733 8.064-46.549 30.165-88.235 65.579-123.52 41.045-40.917 80.683-59.52 143.445-67.371 63.659-7.979 359.595-7.979 423.253 0 62.763 7.851 102.443 26.453 143.445 67.371 32.64 32.555 54.229 70.912 64 113.792 3.755 16.384 5.12 69.803 2.56 99.968-3.371 39.851-20.395 167.723-30.165 226.56-8.576 51.413-20.309 89.6-35.285 114.603-17.017 27.869-38.355 51.3-63.364 70.113l-0.636 0.458c-18.987 14.336-54.571 32.085-73.899 36.864l-14.677 3.669-0.981 22.4c-1.109 25.429-4.267 42.581-11.733 63.915-27.6 76.855-98.627 131.37-182.753 134.178l-0.33 0.009c-3.308 0.14-7.19 0.22-11.091 0.22-7.9 0-15.724-0.328-23.458-0.971l1.013 0.068zM552.107 847.445c58.155-18.389 98.133-71.723 98.133-130.987v-13.312h-276.48v13.312c0 63.403 44.885 118.741 108.373 133.547 15.829 3.712 54.613 2.261 69.973-2.56zM650.624 566.187c0.469-70.187 0.597-73.216 4.053-79.787 5.67-9.828 16.041-16.386 27.96-16.597h0.030c11.949 0.211 22.319 6.77 27.905 16.439l0.084 0.158c3.456 6.528 3.584 9.643 4.053 75.435l0.512 68.608 6.4-2.304c30.379-10.709 63.872-36.224 83.285-63.445 21.632-30.293 29.184-58.88 44.843-169.6 17.963-126.848 21.163-156.672 21.163-196.267-0.043-43.648-5.675-64.341-26.027-95.317-11.259-17.649-25.109-32.531-41.207-44.573l-0.436-0.312c-26.752-20.224-53.504-29.355-100.096-34.219-30.549-3.2-351.744-3.2-382.293 0-46.592 4.864-73.344 13.995-100.096 34.219-32.043 24.192-56.917 61.781-65.024 98.176-3.285 14.933-3.584 62.635-0.597 91.52 5.291 50.304 25.088 193.749 31.104 225.28 11.051 57.899 22.912 83.968 51.2 112.512 18.091 18.261 42.795 34.219 64.981 42.069l6.357 2.261 0.512-68.608c0.469-65.792 0.597-68.907 4.053-75.435 11.349-21.76 44.629-21.76 55.979 0 3.456 6.571 3.584 9.6 4.053 79.787l0.469 72.96h276.309l0.469-72.96z" />
<glyph unicode="&#xe915;" glyph-name="Bag-2" d="M489.515 948.053c-76.646-7.254-142.285-48.832-182.089-108.997l-0.567-0.912c-22.443-34.091-33.621-66.645-39.765-115.456-0.939-7.509-1.323-7.979-10.709-12.544-29.44-14.336-65.749-44.715-86.741-72.619-25.045-33.323-37.248-66.56-48.469-131.968-5.675-33.28-19.968-134.4-26.581-188.117-5.973-48.256-7.467-105.216-3.456-130.389 9.6-60.587 48.853-120.064 103.083-156.16 27.093-18.048 51.499-27.477 86.485-33.408 42.155-7.168 59.392-7.723 231.296-7.723 123.648 0 170.624 0.555 188.587 2.261 62.336 5.888 93.995 15.445 129.323 38.912 54.059 35.968 92.8 94.677 102.869 155.733 4.139 25.003 2.645 81.877-3.371 130.773-6.613 53.717-20.907 154.88-26.539 187.733-11.392 66.56-24.192 100.693-50.517 135.083-19.883 25.941-56.491 56.149-84.651 69.845-9.984 4.864-11.563 7.211-11.605 17.152-0.085 18.176-11.093 58.069-22.869 82.859-43.179 90.965-142.933 147.413-243.712 137.941zM542.933 882.389c58.235-10.256 106.044-47.437 130.775-97.971l0.468-1.058c8.448-17.365 18.859-49.152 16.725-51.157-6.282 0.072-12.385 0.55-18.364 1.41l0.743-0.088c-23.253 2.517-299.307 2.517-322.56 0-9.387-1.024-17.323-1.621-17.621-1.323-0.341 0.299 1.067 7.296 3.072 15.616 5.248 21.547 20.821 52.565 35.371 70.443 27.136 32.483 64.651 55.49 107.399 63.933l1.187 0.195c9.437 1.446 20.323 2.272 31.403 2.272s21.966-0.826 32.602-2.42l-1.199 0.148zM661.333 669.781c29.312-2.005 51.755-6.101 67.243-12.373 25.728-10.411 55.296-33.152 73.045-56.277l7.936-10.325-62.165-61.568c-124.629-123.435-166.869-154.88-220.544-164.224-52.821-9.173-101.589 14.592-183.808 89.6-24.576 22.4-131.413 128.469-131.413 130.475 0 3.669 18.389 25.984 31.531 38.272 32.085 29.952 64.299 42.837 115.755 46.293 30.507 2.091 272.341 2.176 302.421 0.128zM841.259 483.968c2.859-17.408 8.661-57.045 12.971-88.021 22.613-163.797 22.784-199.467 1.237-242.347-22.4-44.501-62.72-78.72-105.387-89.344-37.12-9.259-64.512-10.453-238.080-10.453s-200.96 1.195-238.080 10.453c-34.731 8.661-70.485 34.859-93.141 68.224-10.539 15.488-21.419 39.765-24.747 55.253-4.309 19.712-3.925 65.621 0.853 108.373 5.675 50.56 21.717 165.76 28.501 204.416l2.773 15.829 48.853-48.299c70.443-69.589 107.563-102.016 145.621-127.061 72.704-47.872 141.397-54.315 213.845-20.053 46.464 21.973 105.131 71.040 204.8 171.264 31.061 31.275 32.469 32.427 33.621 28.075 0.683-2.517 3.541-18.859 6.357-36.309z" />
<glyph unicode="&#xe916;" glyph-name="Bag-3" d="M333.269 521.472c-13.792-3.797-23.755-16.228-23.755-30.985 0-3.018 0.417-5.939 1.196-8.708l-0.054 0.226c3.797-14.080 43.264-50.645 74.88-69.376 36.181-21.6 79.798-34.371 126.399-34.371 59.35 0 113.861 20.714 156.7 55.307l-0.475-0.371c22.699 18.347 42.837 40.107 45.184 48.725 0.839 2.683 1.322 5.768 1.322 8.966 0 17.155-13.907 31.061-31.061 31.061-0.21 0-0.419-0.002-0.628-0.006h0.031c-0.309 0.009-0.672 0.014-1.036 0.014-4.616 0-9.042-0.818-13.139-2.318l0.265 0.085c-2.304-1.237-12.629-10.325-22.955-20.181-10.368-9.856-25.259-22.187-33.195-27.307-28.444-18.892-63.382-30.144-100.949-30.144s-72.506 11.252-101.631 30.569l0.681-0.425c-12.339 8.753-23.172 17.717-33.302 27.409l0.107-0.102c-10.325 9.856-20.267 18.731-22.101 19.712-4.475 1.828-9.668 2.888-15.109 2.888-2.608 0-5.159-0.244-7.631-0.71l0.255 0.040z" />
<glyph unicode="&#xe917;" glyph-name="Bag-4" d="M247.936 564.139c-16.896-4.139-27.221-22.101-22.699-39.509 1.664-6.4 5.803-11.307 27.904-33.237 58.283-57.941 116.565-89.771 191.445-104.619 106.411-21.077 221.269 10.197 303.531 82.645 7.637 6.784 21.717 20.267 31.232 29.995 13.696 14.037 17.707 19.243 19.328 25.173 0.839 2.683 1.322 5.768 1.322 8.966 0 17.155-13.907 31.061-31.061 31.061-0.21 0-0.419-0.002-0.628-0.006h0.031c-0.3 0.008-0.652 0.013-1.006 0.013-4.656 0-9.121-0.818-13.259-2.317l0.271 0.086c-2.347-1.237-14.251-11.989-26.453-23.893-25.813-25.216-42.624-38.827-62.976-51.157-27.239-16.807-58.947-29.694-92.768-36.859l-1.952-0.346c-19.541-4.181-24.832-4.565-58.197-4.565s-38.656 0.384-58.197 4.565c-35.773 7.511-67.481 20.398-96.016 37.947l1.296-0.741c-20.352 12.331-37.163 25.941-62.976 51.157-12.203 11.904-23.723 22.443-25.6 23.381-4.503 1.853-9.73 2.928-15.209 2.928-2.602 0-5.148-0.243-7.616-0.707l0.254 0.040z" />
<glyph unicode="&#xe918;" glyph-name="Bag-5" d="M494.933 948.693c-78.293-6.699-146.048-46.507-188.032-110.464-17.408-26.496-31.616-61.696-35.968-88.917l-2.048-12.885-30.763-0.043c-48.512-0.043-95.872-2.859-115.627-6.827-53.76-10.88-83.157-44.16-88.448-100.096-2.389-24.917-0.299-50.987 15.403-191.787 18.773-168.619 24.363-208.469 35.968-255.915 20.821-85.12 59.349-135.936 124.288-163.925 30.891-13.312 70.784-21.376 128.213-25.856 19.925-1.536 70.784-2.176 174.080-2.176 152.149 0 177.877 0.853 225.28 7.723 117.077 16.896 176.896 74.112 203.861 194.944 10.411 46.72 16.768 93.952 34.987 258.944 14.421 130.987 16.213 154.069 13.739 178.517-5.717 56.149-34.645 88.747-88.363 99.627-19.755 3.968-67.115 6.784-115.627 6.827l-30.763 0.043-2.048 12.885c-4.395 27.52-19.968 65.408-37.845 91.861-36.779 54.528-97.067 93.611-160.555 104.064-17.195 2.859-46.933 4.565-59.733 3.456zM542.933 882.389c56.552-10.25 103.221-45.502 128.846-93.654l0.476-0.981c8.107-15.872 17.237-41.259 17.237-48 0-3.285-2.688-3.328-177.707-3.328h-177.707l1.024 6.4c3.371 21.12 19.541 54.528 36.608 75.563 27.090 32.43 64.549 55.394 107.232 63.806l1.184 0.194c9.437 1.446 20.323 2.272 31.403 2.272s21.966-0.826 32.602-2.42l-1.199 0.148zM886.869 667.733c21.419-4.864 32.512-12.928 36.437-26.496 3.243-11.349 3.925-33.28 1.835-59.349-2.773-34.859-28.16-261.931-33.493-299.733-15.317-108.587-32.683-155.264-68.864-185.131-31.317-25.856-71.296-36.779-152.064-41.557-36.565-2.176-280.875-2.176-317.44 0-80.768 4.779-120.747 15.701-152.064 41.557-36.139 29.867-53.547 76.629-68.821 184.917-4.864 34.347-30.421 261.803-33.536 298.325-2.091 24.832-1.365 50.005 1.835 60.971 4.992 17.195 19.968 25.131 53.76 28.544 7.509 0.768 172.629 1.237 366.933 1.067 319.189-0.299 354.475-0.597 365.483-3.115z" />
<glyph unicode="&#xe919;" glyph-name="Bag-6" d="M494.933 948.693c-78.293-6.699-146.048-46.507-188.032-110.464-17.408-26.496-31.616-61.696-35.968-88.917l-2.048-12.885-30.763-0.043c-48.512-0.043-95.872-2.859-115.627-6.827-53.76-10.88-83.157-44.16-88.448-100.096-2.389-24.917-0.299-50.987 15.403-191.787 18.773-168.619 24.363-208.469 35.968-255.915 20.821-85.12 59.349-135.936 124.288-163.925 30.891-13.312 70.784-21.376 128.213-25.856 19.925-1.536 70.784-2.176 174.080-2.176 152.149 0 177.877 0.853 225.28 7.723 117.077 16.896 176.896 74.112 203.861 194.944 10.411 46.72 16.768 93.952 34.987 258.944 14.421 130.987 16.213 154.069 13.739 178.517-5.717 56.149-34.645 88.747-88.363 99.627-19.755 3.968-67.115 6.784-115.627 6.827l-30.763 0.043-2.048 12.885c-2.475 15.445-11.605 43.392-19.925 60.928-33.024 69.632-102.955 122.539-178.475 134.997-17.195 2.859-46.933 4.565-59.733 3.456zM542.933 882.389c56.552-10.25 103.221-45.502 128.846-93.654l0.476-0.981c8.107-15.872 17.237-41.259 17.237-48 0-3.285-2.688-3.328-177.707-3.328h-177.707l1.024 6.4c3.371 21.12 19.541 54.528 36.608 75.563 27.090 32.43 64.549 55.394 107.232 63.806l1.184 0.194c9.437 1.446 20.323 2.272 31.403 2.272s21.966-0.826 32.602-2.42l-1.199 0.148zM886.869 667.733c21.419-4.864 32.512-12.928 36.437-26.496 3.243-11.349 3.925-33.28 1.835-59.349-2.773-34.859-28.16-261.931-33.493-299.733-15.317-108.587-32.683-155.264-68.864-185.131-31.317-25.856-71.296-36.779-152.064-41.557-36.565-2.176-280.875-2.176-317.44 0-80.768 4.779-120.747 15.701-152.064 41.557-36.139 29.867-53.547 76.629-68.821 184.917-4.864 34.347-30.421 261.803-33.536 298.325-2.091 24.832-1.365 50.005 1.835 60.971 4.992 17.195 19.968 25.131 53.76 28.544 7.509 0.768 172.629 1.237 366.933 1.067 319.189-0.299 354.475-0.597 365.483-3.115z" />
<glyph unicode="&#xe91a;" glyph-name="Bag-7" d="M333.269 606.805c-12.134-3.414-21.277-13.356-23.48-25.701l-0.029-0.197c-2.688-14.293 8.107-31.531 22.229-35.413 9.557-2.688 350.464-2.688 360.021 0 9.045 2.475 18.816 12.501 21.333 21.803 3.797 14.123-1.28 27.221-13.824 35.499l-7.211 4.779-176.768 0.256c-97.237 0.171-179.243-0.299-182.272-1.024z" />
<glyph unicode="&#xe91b;" glyph-name="Bag-8" d="M247.936 564.096c-12.151-3.36-21.313-13.307-23.481-25.661l-0.028-0.195c-2.688-14.293 8.107-31.531 22.229-35.413 9.6-2.688 521.088-2.688 530.688 0 9.045 2.475 18.816 12.501 21.333 21.803 3.797 14.123-1.28 27.221-13.867 35.499l-7.168 4.779-262.101 0.256c-144.171 0.171-264.576-0.341-267.605-1.067z" />
<glyph unicode="&#xe91c;" glyph-name="Battery-Charging" d="M391.040 606.507c-10.155-2.987-13.483-6.485-34.987-36.267-37.163-51.499-43.861-63.445-46.421-82.688-2.987-22.741 12.928-52.224 33.963-62.891 14.848-7.509 27.477-9.088 80.512-10.24 27.221-0.555 50.859-1.536 52.565-2.133 2.688-0.981 2.347-2.176-3.541-11.264-10.799-15.772-19.718-28.042-28.906-40.095l1.77 2.42c-25.771-34.517-28.203-40.875-21.248-56.235 5.091-11.236 16.208-18.911 29.118-18.911 6.165 0 11.922 1.75 16.799 4.782l-0.136-0.078c6.357 3.925 50.731 62.763 61.269 81.237 10.368 18.176 13.781 32 11.349 46.037-3.541 20.651-16.64 40.021-32.597 48.171-15.232 7.765-24.021 8.875-80.768 10.069-29.739 0.64-54.571 1.707-55.253 2.347-1.664 1.707 6.827 15.019 31.061 48.597 22.059 30.592 26.197 37.931 26.197 46.635-0.693 11.961-7.296 22.241-16.909 28.029l-0.158 0.088c-4.53 2.091-9.83 3.31-15.415 3.31-2.93 0-5.781-0.336-8.518-0.97l0.253 0.049z" />
<glyph unicode="&#xe91d;" glyph-name="Battery-Fully" d="M246.101 563.883c-8.021-2.389-18.56-13.611-20.864-22.187-2.517-9.387-1.28-15.317 6.912-32.725 18.475-39.467 18.347-83.328-0.341-122.24-9.003-18.731-9.771-30.080-2.773-40.661 11.051-16.683 32.725-20.267 47.445-7.893 9.301 7.851 23.083 39.765 30.080 69.717 2.517 10.667 3.157 19.84 3.029 41.813-0.128 24.405-0.725 30.336-4.48 44.373-5.035 18.773-13.013 39.893-19.712 52.011-8.107 14.72-24.619 22.187-39.296 17.792z" />
<glyph unicode="&#xe91e;" glyph-name="Battery-Low" d="M246.101 563.883c-8.021-2.389-18.56-13.611-20.864-22.187-2.517-9.387-1.28-15.317 6.912-32.725 18.475-39.467 18.347-83.328-0.341-122.24-9.003-18.731-9.771-30.080-2.773-40.661 11.051-16.683 32.725-20.267 47.445-7.893 9.301 7.851 23.083 39.765 30.080 69.717 2.517 10.667 3.157 19.84 3.029 41.813-0.128 24.405-0.725 30.336-4.48 44.373-5.035 18.773-13.013 39.893-19.712 52.011-8.107 14.72-24.619 22.187-39.296 17.792z" />
<glyph unicode="&#xe91f;" glyph-name="Battery-Normal" d="M246.101 563.883c-8.021-2.389-18.56-13.611-20.864-22.187-2.517-9.387-1.28-15.317 6.912-32.725 18.475-39.467 18.347-83.328-0.341-122.24-9.003-18.731-9.771-30.080-2.773-40.661 11.051-16.683 32.725-20.267 47.445-7.893 9.301 7.851 23.083 39.765 30.080 69.717 2.517 10.667 3.157 19.84 3.029 41.813-0.128 24.405-0.725 30.336-4.48 44.373-5.035 18.773-13.013 39.893-19.712 52.011-8.107 14.72-24.619 22.187-39.296 17.792z" />
<glyph unicode="&#xe920;" glyph-name="Bold" d="M399.36 691.883c-28.117-4.736-53.205-28.416-59.648-56.363-2.347-10.24-2.347-364.8 0-375.040 6.528-28.331 30.848-51.2 60.203-56.619 6.4-1.195 39.168-1.621 93.824-1.237l83.968 0.597 15.317 4.736c24.32 7.509 37.205 15.189 54.827 32.64 12.8 12.629 16.853 18.005 22.656 29.909 10.283 21.077 14.080 37.504 15.061 64.853 0.683 18.773 0.213 26.027-2.56 39.253-5.931 28.288-15.445 47.872-31.488 64.811l-8.149 8.576 8.149 8.576c16.043 16.939 25.557 36.523 31.488 64.811 2.773 13.227 3.243 20.48 2.56 39.253-0.981 27.349-4.779 43.776-15.061 64.853-5.803 11.904-9.899 17.28-22.656 29.909-17.536 17.408-33.749 26.752-58.197 33.536-13.141 3.627-16.811 3.797-97.28 4.139-45.995 0.213-87.851-0.299-93.013-1.195zM582.315 624.128c18.219-7.339 31.36-22.485 36.608-42.155 2.901-11.008 2.944-43.605 0-54.613-6.101-22.784-20.48-37.504-43.563-44.501-6.315-1.92-24.533-2.389-90.24-2.432h-82.347v71.552c0 63.445 0.299 71.893 2.731 74.325 2.475 2.432 11.307 2.688 84.907 2.219 81.28-0.469 82.261-0.512 91.904-4.395zM582.315 410.795c18.219-7.339 31.36-22.485 36.608-42.155 2.901-11.008 2.944-43.605 0-54.613-6.101-22.784-20.48-37.504-43.563-44.501-6.272-1.92-24.149-2.389-87.552-2.432-70.187 0-80 0.299-82.347 2.688-2.347 2.347-2.688 11.477-2.688 74.283v71.637l84.907-0.512c84.139-0.469 84.992-0.512 94.635-4.395z" />
<glyph unicode="&#xe921;" glyph-name="Bookmark-1" d="M424.96 862.635c-49.493-2.261-76.885-8.789-110.592-26.368-65.621-34.261-112.469-95.104-126.592-164.565-6.443-31.531-7.125-66.261-6.4-315.008 0.811-257.92 0.597-252.587 10.411-280.747 10.368-29.867 39.211-56.149 73.472-66.901 15.147-4.779 41.685-5.931 55.595-2.432 28.971 7.296 46.293 19.456 134.827 94.72 34.133 29.013 36.139 30.080 56.32 30.080s22.187-1.067 56.32-30.080c88.533-75.264 105.856-87.424 134.827-94.72 13.909-3.499 40.448-2.347 55.595 2.432 34.261 10.752 63.104 37.035 73.472 66.901 9.813 28.117 9.6 22.955 10.411 279.893 0.768 248.235 0 284.416-6.443 316.117-7.723 37.888-24.875 72.619-52.139 105.557-33.792 40.789-88.363 72.576-138.965 80.896-32.512 5.376-146.219 7.552-220.117 4.224zM631.467 796.288c26.411-4.48 57.557-18.944 80.256-37.333 31.957-25.856 56.32-66.688 63.317-106.155 1.408-7.893 2.176-82.176 2.688-258.56 0.683-242.517 0.171-273.792-4.693-293.205-4.352-17.237-25.515-32.085-46.336-32.512-9.301-0.213-12.117 0.555-20.992 5.547-13.909 7.851-36.309 25.301-75.947 59.179-52.651 45.013-65.451 53.632-88.875 59.904-14.677 3.925-43.093 3.925-57.771 0-23.424-6.272-36.224-14.891-88.875-59.904-39.637-33.877-62.037-51.328-75.947-59.179-8.875-4.992-11.691-5.76-20.992-5.547-20.821 0.427-41.984 15.275-46.336 32.512-4.864 19.371-5.376 50.773-4.693 293.205 0.512 176.853 1.28 250.624 2.688 258.56 9.216 51.84 45.739 101.248 92.757 125.525 25.259 13.056 41.259 17.365 74.709 20.181 17.92 1.451 204.501-0.427 215.040-2.219z" />
<glyph unicode="&#xe922;" glyph-name="Bookmark-2" d="M375.936 606.805c-12.134-3.414-21.277-13.356-23.48-25.701l-0.029-0.197c-2.688-14.293 8.107-31.531 22.229-35.413 9.515-2.645 265.173-2.645 274.688 0 9.045 2.475 18.816 12.501 21.333 21.803 3.797 14.123-1.28 27.221-13.824 35.499l-7.211 4.779-134.101 0.256c-73.771 0.171-136.576-0.299-139.605-1.024z" />
<glyph unicode="&#xe923;" glyph-name="Bookmark-3" d="M503.936 734.805c-22.187-5.376-31.232-33.664-16.427-51.285 6.912-8.192 13.141-10.453 33.707-12.203 36.011-3.115 63.317-15.659 88.235-40.533 24.875-24.917 37.419-52.224 40.533-88.235 1.749-20.565 4.011-26.795 12.203-33.707 5.507-4.596 12.66-7.387 20.465-7.387 9.809 0 18.589 4.408 24.467 11.351l0.039 0.047c7.253 8.619 8.704 16.981 6.571 38.4-4.693 47.232-22.101 85.931-53.803 119.595-18.347 19.499-32.725 30.549-54.144 41.6-15.738 8.523-33.983 15.24-53.236 19.192l-1.292 0.222c-16.213 3.2-40.149 4.651-47.317 2.944z" />
<glyph unicode="&#xe924;" glyph-name="Buy-1" d="M418.603 478.805c-8.68-2.824-15.791-8.455-20.431-15.802l-0.091-0.155c-2.731-4.992-3.029-13.568-3.456-96.384-0.341-63.616 0.085-93.056 1.451-98.048 1.752-5.274 4.561-9.789 8.197-13.488l-0.005 0.005c5.747-5.838 13.734-9.455 22.567-9.455 14.534 0 26.78 9.794 30.5 23.142l0.053 0.223c1.195 4.437 1.664 37.461 1.323 97.621-0.469 88.107-0.597 91.093-3.968 96.853-6.185 9.788-16.947 16.193-29.205 16.193-2.455 0-4.849-0.257-7.159-0.745l0.225 0.040z" />
<glyph unicode="&#xe925;" glyph-name="Buy-2" d="M32.512 904.917c-8.405-2.773-18.304-13.312-20.693-22.059-1.92-6.955-0.768-12.501 22.912-108.032 13.739-55.381 37.291-152.149 52.352-215.040 39.381-164.608 50.091-203.307 68.096-245.76 26.283-61.909 65.963-101.803 122.453-123.051 26.411-9.941 60.629-16.171 108.928-19.755 38.912-2.901 277.888-2.816 313.173 0.085 82.176 6.784 126.123 24.235 170.027 67.584 42.24 41.685 59.264 83.157 95.317 232.149 24.533 101.504 29.056 128.384 26.325 156.587-3.883 40.661-31.36 75.819-69.077 88.363-29.099 9.685-3.755 9.088-423.509 9.728l-386.048 0.555-1.707 6.357c37.448-175.067 30.45-147.899 23.49-120.716l-43.799 201.698c-10.24 41.088-19.925 76.587-21.461 78.976-6.912 10.496-24.448 16.427-36.779 12.331zM887.808 659.243c17.067-3.541 25.6-8.491 32.939-19.157 10.325-15.019 9.643-35.285-3.157-91.392l-5.632-24.747-324.267-1.707-7.211-4.779c-12.544-8.277-17.621-21.376-13.824-35.499 2.517-9.301 12.288-19.328 21.333-21.803 4.693-1.323 52.821-1.92 157.568-1.92 119.893 0 150.656-0.427 150.059-2.133-0.384-1.195-4.096-15.36-8.192-31.488l-7.467-29.355-164.267-1.024-7.211-4.779c-16.597-11.008-20.096-32.469-7.637-47.275 9.429-11.221 7.979-11.008 85.504-11.947l70.4-0.853-7.893-13.995c-9.868-17.259-22.571-31.745-37.633-43.312l-0.34-0.251c-30.165-24.021-61.44-33.152-126.635-37.12-36.864-2.261-240.896-2.219-282.325 0.043-84.267 4.565-120.107 16.171-152.747 49.451-15.189 15.445-26.539 33.963-37.632 61.312-15.061 37.077-23.637 68.523-58.795 215.125-27.238 125.674-35.543 159.082-43.973 192.441l19.909-92.985c-0.896 2.944 14.763 3.029 372.523 2.475 333.312-0.555 374.869-0.896 386.603-3.328z" />
<glyph unicode="&#xe926;" glyph-name="Buy-3" d="M418.603 393.472c-12.134-3.414-21.277-13.356-23.48-25.701l-0.029-0.197c-2.688-14.293 8.107-31.531 22.229-35.413 9.515-2.645 265.173-2.645 274.688 0 9.045 2.475 18.816 12.501 21.333 21.803 3.797 14.123-1.28 27.221-13.824 35.499l-7.211 4.779-134.101 0.256c-73.771 0.171-136.576-0.299-139.605-1.024z" />
<glyph unicode="&#xe927;" glyph-name="Calender-1" d="M375.936 393.472c-12.134-3.414-21.277-13.356-23.48-25.701l-0.029-0.197c-2.688-14.293 8.107-31.531 22.229-35.413 9.515-2.645 265.173-2.645 274.688 0 9.045 2.475 18.816 12.501 21.333 21.803 3.797 14.123-1.28 27.221-13.824 35.499l-7.211 4.779-134.101 0.256c-73.771 0.171-136.576-0.299-139.605-1.024z" />
<glyph unicode="&#xe928;" glyph-name="Calender-2" d="M375.936 905.472c-8.68-2.824-15.791-8.455-20.431-15.802l-0.091-0.155c-2.475-4.523-3.072-10.965-3.541-38.016l-0.555-32.555-26.667-2.901c-74.325-8.107-115.541-25.771-156.928-67.243-40.533-40.533-58.069-81.835-67.029-157.483-6.827-57.941-6.827-314.027 0-371.968 7.168-60.587 20.48-100.053 44.672-132.139 11.349-15.061 33.451-37.163 48.512-48.512 23.424-17.664 56.448-31.573 91.563-38.656 45.056-9.003 113.92-11.819 259.84-10.624 61.013 0.555 120.917 1.792 133.12 2.773 87.851 7.253 132.949 24.875 177.408 69.333s62.080 89.557 69.333 177.408c0.981 12.203 2.219 72.107 2.773 133.12 1.749 207.744-4.395 269.739-32.085 323.413-19.413 37.717-55.467 73.941-92.885 93.312-28.16 14.549-57.045 22.187-103.595 27.264l-26.667 2.901-0.555 32.555c-0.64 37.035-1.579 40.277-14.677 49.451-5.973 4.224-8.747 4.992-17.451 4.992s-11.477-0.768-17.451-4.992c-13.013-9.131-14.037-12.544-14.677-48.469l-0.555-31.573h-190.635l-0.555 31.573c-0.512 28.16-0.939 32.213-4.053 37.504-6.185 9.788-16.947 16.193-29.205 16.193-2.455 0-4.849-0.257-7.159-0.745l0.225 0.040zM607.573 750.507c0.043-27.179 25.003-43.776 47.957-31.915 9.643 4.992 16.853 17.92 16.896 30.208 0 4.395 0.469 4.693 7.253 4.651 11.136-0.043 41.856-4.437 58.667-8.448 44.661-11.402 80.861-40.999 100.883-80.23l0.408-0.88c19.84-40.661 23.893-83.328 23.936-251.093v-102.571l-7.936-1.109c-5.542-0.665-11.976-1.052-18.498-1.067h-0.020c-24.533 0-61.909-9.643-89.344-22.997-50.987-24.832-89.728-62.848-113.835-111.744-15.317-31.019-22.229-57.045-25.131-94.379l-1.92-25.173h-108.459c-153.6 0-198.016 3.627-235.648 19.072-34.306 14.988-61.567 40.801-78.009 73.051l-0.412 0.89c-20.053 41.131-23.936 82.731-23.936 258.56s3.883 217.429 23.936 258.56c20.429 40.11 56.63 69.707 100.214 80.875l1.077 0.234c16.811 4.011 47.531 8.405 58.667 8.448 6.784 0.043 7.253-0.256 7.253-4.651 0.043-14.976 10.325-29.184 23.808-32.811 21.973-5.931 41.003 10.112 41.045 34.517v6.4h191.147v-6.4zM860.117 237.653c0-3.968-1.152-15.616-2.475-25.813-6.699-50.261-19.584-78.293-49.28-107.307-27.691-27.093-58.667-40.192-107.776-45.611l-22.613-2.56-5.547-0.683v10.88c0 45.355 19.84 92.373 52.907 125.44 31.448 31.488 74.507 51.375 122.206 52.688l0.247 0.005 12.373 0.213-0.043-7.253z" />
<glyph unicode="&#xe929;" glyph-name="Call-Missed" d="M251.733 862.805c-13.099-1.536-25.941-5.76-40.96-13.44-9.856-5.035-17.707-11.776-44.971-38.613-18.176-17.877-36.309-37.12-40.32-42.752-20.693-28.971-31.915-68.736-29.141-103.083 1.451-17.749 13.184-65.28 24.96-100.864 40.977-122.521 107.076-227.204 192.649-312.329l0.034-0.034c99.84-99.84 217.131-167.936 355.371-206.293 36.821-10.24 52.651-12.629 76.288-11.648 14.464 0.64 25.6 2.091 34.091 4.565 36.139 10.411 51.157 20.736 94.123 64.341 28.971 29.44 34.176 35.541 39.723 46.677 8.287 15.705 13.151 34.323 13.151 54.078 0 20.366-5.17 39.525-14.27 56.236l0.308-0.618c-6.528 12.629-11.221 18.091-47.403 54.741-43.179 43.733-54.4 53.589-71.936 63.232-25.472 13.995-48.128 18.987-79.957 17.664-20.053-0.853-22.912-1.408-45.312-9.173-22.869-7.979-24.661-8.32-41.813-8.235-20.523 0.128-30.635 3.2-47.317 14.421-14.763 9.899-121.515 118.059-128.043 129.707-7.68 13.781-10.667 25.813-10.667 43.093 0 13.397 0.853 17.707 7.595 37.632 9.344 27.648 11.904 43.136 10.624 64.341-1.548 28.253-10.717 54.088-25.466 75.83l0.335-0.523c-8.96 13.355-83.883 89.429-98.261 99.797-19.302 13.802-43.384 22.068-69.397 22.068-4.939 0-9.809-0.298-14.592-0.877l0.576 0.057zM290.133 794.539c9.771-4.907 81.195-75.477 90.581-89.472 10.197-15.232 14.080-29.995 13.141-50.219-0.512-11.605-1.92-19.627-4.651-26.795-16.469-43.221-17.92-75.221-5.205-113.109 9.557-28.587 15.915-36.693 76.8-98.304 58.453-59.136 73.856-73.429 89.301-82.688 22.239-13.382 49.082-21.297 77.775-21.297 21.109 0 41.218 4.284 59.503 12.031l-1.001-0.377c10.178 4.516 22.051 7.146 34.538 7.146 14.159 0 27.528-3.381 39.345-9.379l-0.496 0.228c11.179-5.333 16.555-10.069 52.267-45.525 46.549-46.251 50.389-51.925 50.389-73.6 0-20.011-3.627-25.643-39.296-60.8-33.579-33.067-41.856-38.571-65.749-43.648-16.683-3.541-30.421-2.176-61.909 6.059-34.766 8.803-64.049 18.615-92.358 30.305l4.465-1.633c-167.125 65.749-304.725 192.213-386.304 354.987-20.461 40.782-38.691 88.609-52.121 138.406l-1.255 5.466c-7.552 29.867-9.003 48.555-5.035 65.536 4.949 21.077 10.965 29.867 42.709 62.208 35.712 36.309 41.515 39.808 64.085 38.912 9.131-0.384 15.019-1.664 20.48-4.437z" />
<glyph unicode="&#xe92a;" glyph-name="Call-Silent" d="M811.52 828.715c-4.779-2.219-111.829-108.288-353.579-350.251l-346.795-347.051-1.152-8.277c-0.326-1.698-0.513-3.65-0.513-5.646 0-9.091 3.869-17.279 10.050-23.007l0.020-0.019c11.307-10.795 27.264-11.776 40.576-2.517 8.533 5.973 688.853 686.891 691.584 692.224 2.404 4.415 3.818 9.67 3.818 15.254 0 3.184-0.459 6.26-1.316 9.167l0.058-0.229c-2.044 9.338-8.469 16.833-16.963 20.326l-0.189 0.069c-3.716 1.904-8.106 3.020-12.758 3.020-4.685 0-9.105-1.132-13.002-3.137l0.16 0.075z" />
<glyph unicode="&#xe92b;" glyph-name="Call" d="M251.733 862.805c-13.099-1.536-25.941-5.76-40.96-13.44-9.856-5.035-17.707-11.776-44.971-38.613-18.176-17.877-36.309-37.12-40.32-42.752-20.693-28.971-31.915-68.736-29.141-103.083 1.451-17.749 13.184-65.28 24.96-100.864 40.977-122.521 107.076-227.204 192.649-312.329l0.034-0.034c99.84-99.84 217.131-167.936 355.371-206.293 36.821-10.24 52.651-12.629 76.288-11.648 14.464 0.64 25.6 2.091 34.091 4.565 36.139 10.411 51.157 20.736 94.123 64.341 28.971 29.44 34.176 35.541 39.723 46.677 8.287 15.705 13.151 34.323 13.151 54.078 0 20.366-5.17 39.525-14.27 56.236l0.308-0.618c-6.528 12.629-11.221 18.091-47.403 54.741-43.179 43.733-54.4 53.589-71.936 63.232-25.472 13.995-48.128 18.987-79.957 17.664-20.053-0.853-22.912-1.408-45.312-9.173-22.869-7.979-24.661-8.32-41.813-8.235-20.523 0.128-30.635 3.2-47.317 14.421-14.763 9.899-121.515 118.059-128.043 129.707-7.68 13.781-10.667 25.813-10.667 43.093 0 13.397 0.853 17.707 7.595 37.632 9.344 27.648 11.904 43.136 10.624 64.341-1.548 28.253-10.717 54.088-25.466 75.83l0.335-0.523c-8.96 13.355-83.883 89.429-98.261 99.797-19.302 13.802-43.384 22.068-69.397 22.068-4.939 0-9.809-0.298-14.592-0.877l0.576 0.057zM290.133 794.539c9.771-4.907 81.195-75.477 90.581-89.472 10.197-15.232 14.080-29.995 13.141-50.219-0.512-11.605-1.92-19.627-4.651-26.795-16.469-43.221-17.92-75.221-5.205-113.109 9.557-28.587 15.915-36.693 76.8-98.304 58.453-59.136 73.856-73.429 89.301-82.688 22.239-13.382 49.082-21.297 77.775-21.297 21.109 0 41.218 4.284 59.503 12.031l-1.001-0.377c10.178 4.516 22.051 7.146 34.538 7.146 14.159 0 27.528-3.381 39.345-9.379l-0.496 0.228c11.179-5.333 16.555-10.069 52.267-45.525 46.549-46.251 50.389-51.925 50.389-73.6 0-20.011-3.627-25.643-39.296-60.8-33.579-33.067-41.856-38.571-65.749-43.648-16.683-3.541-30.421-2.176-61.909 6.059-34.766 8.803-64.049 18.615-92.358 30.305l4.465-1.633c-167.125 65.749-304.725 192.213-386.304 354.987-20.461 40.782-38.691 88.609-52.121 138.406l-1.255 5.466c-7.552 29.867-9.003 48.555-5.035 65.536 4.949 21.077 10.965 29.867 42.709 62.208 35.712 36.309 41.515 39.808 64.085 38.912 9.131-0.384 15.019-1.664 20.48-4.437z" />
<glyph unicode="&#xe92c;" glyph-name="Calling-1" d="M503.936 905.557c-27.861-7.253-32.171-45.568-6.656-59.52 4.651-2.56 13.355-3.072 69.333-3.968 70.443-1.152 83.541-2.645 118.4-13.568 71.942-23.254 130.931-69.718 169.572-130.403l0.754-1.266c18.859-30.336 33.664-67.371 40.576-101.547 4.693-23.168 6.869-57.216 6.869-108.544 0.043-38.101 0.384-42.923 3.285-48.64 3.073-6.922 8.756-12.216 15.768-14.704l0.189-0.059c3.683-1.649 7.983-2.609 12.506-2.609 13.954 0 25.774 9.139 29.801 21.759l0.061 0.221c1.28 4.139 1.621 27.051 1.152 70.144-0.768 69.077-1.451 75.691-11.691 115.797-26.027 101.547-97.835 189.867-193.451 237.867-33.422 17.348-72.26 30.081-113.287 36.070l-1.998 0.239c-21.973 3.2-131.371 5.291-141.184 2.731z" />
<glyph unicode="&#xe92d;" glyph-name="Calling-2" d="M251.733 862.805c-13.099-1.536-25.941-5.76-40.96-13.44-9.856-5.035-17.707-11.776-44.971-38.613-18.176-17.877-36.309-37.12-40.32-42.752-20.693-28.971-31.915-68.736-29.141-103.083 1.451-17.749 13.184-65.28 24.96-100.864 40.977-122.521 107.076-227.204 192.649-312.329l0.034-0.034c99.84-99.84 217.131-167.936 355.371-206.293 36.821-10.24 52.651-12.629 76.288-11.648 14.464 0.64 25.6 2.091 34.091 4.565 36.139 10.411 51.157 20.736 94.123 64.341 28.971 29.44 34.176 35.541 39.723 46.677 8.287 15.705 13.151 34.323 13.151 54.078 0 20.366-5.17 39.525-14.27 56.236l0.308-0.618c-6.528 12.629-11.221 18.091-47.403 54.741-43.179 43.733-54.4 53.589-71.936 63.232-25.472 13.995-48.128 18.987-79.957 17.664-20.053-0.853-22.912-1.408-45.312-9.173-22.869-7.979-24.661-8.32-41.813-8.235-20.523 0.128-30.635 3.2-47.317 14.421-14.763 9.899-121.515 118.059-128.043 129.707-7.68 13.781-10.667 25.813-10.667 43.093 0 13.397 0.853 17.707 7.595 37.632 9.344 27.648 11.904 43.136 10.624 64.341-1.548 28.253-10.717 54.088-25.466 75.83l0.335-0.523c-8.96 13.355-83.883 89.429-98.261 99.797-19.302 13.802-43.384 22.068-69.397 22.068-4.939 0-9.809-0.298-14.592-0.877l0.576 0.057zM290.133 794.539c9.771-4.907 81.195-75.477 90.581-89.472 10.197-15.232 14.080-29.995 13.141-50.219-0.512-11.605-1.92-19.627-4.651-26.795-16.469-43.221-17.92-75.221-5.205-113.109 9.557-28.587 15.915-36.693 76.8-98.304 58.453-59.136 73.856-73.429 89.301-82.688 22.239-13.382 49.082-21.297 77.775-21.297 21.109 0 41.218 4.284 59.503 12.031l-1.001-0.377c10.178 4.516 22.051 7.146 34.538 7.146 14.159 0 27.528-3.381 39.345-9.379l-0.496 0.228c11.179-5.333 16.555-10.069 52.267-45.525 46.549-46.251 50.389-51.925 50.389-73.6 0-20.011-3.627-25.643-39.296-60.8-33.579-33.067-41.856-38.571-65.749-43.648-16.683-3.541-30.421-2.176-61.909 6.059-34.766 8.803-64.049 18.615-92.358 30.305l4.465-1.633c-167.125 65.749-304.725 192.213-386.304 354.987-20.461 40.782-38.691 88.609-52.121 138.406l-1.255 5.466c-7.552 29.867-9.003 48.555-5.035 65.536 4.949 21.077 10.965 29.867 42.709 62.208 35.712 36.309 41.515 39.808 64.085 38.912 9.131-0.384 15.019-1.664 20.48-4.437z" />
<glyph unicode="&#xe92e;" glyph-name="Camera-1" d="M490.368 606.592c-25.244-2.862-48.238-10.050-69.073-20.829l1.105 0.52c-24.96-12.331-38.613-22.485-58.325-43.435-62.848-66.731-72.619-165.931-24.064-244.821 12.331-20.053 44.629-52.352 64.683-64.683 37.845-23.296 84.011-34.219 125.653-29.781 33.291 3.236 63.536 13.894 89.835 30.29l-0.875-0.508c20.053 12.331 52.352 44.629 64.683 64.683 19.179 30.456 30.559 67.499 30.559 107.2s-11.38 76.744-31.055 108.045l0.496-0.845c-10.496 16.811-34.219 42.709-50.517 55.083-15.744 11.989-48.853 27.989-68.736 33.237-15.317 4.011-43.691 7.851-55.296 7.424-8.1-0.511-14.684-1.073-21.23-1.763l2.158 0.184zM554.411 536.917c22.741-7.637 37.888-17.024 55.040-34.133 16.981-17.024 26.368-32.043 34.304-55.040 5.291-15.317 5.504-17.024 5.504-42.411s-0.213-27.093-5.504-42.411c-7.037-21.709-18.85-40.212-34.259-54.997l-0.045-0.043c-14.853-15.54-33.4-27.424-54.236-34.253l-0.932-0.264c-15.019-5.077-17.152-5.333-42.283-5.333s-27.264 0.256-42.283 5.333c-21.768 7.093-40.315 18.978-55.121 34.468l-0.047 0.050c-15.429 14.749-27.227 33.167-34 53.86l-0.262 0.924c-5.333 15.573-5.547 17.237-5.547 42.667s0.213 27.093 5.547 42.667c7.851 22.741 17.152 37.632 34.261 54.784 16.085 16.085 31.147 25.771 51.157 32.939 18.048 6.485 27.307 7.765 51.413 7.125 18.475-0.469 23.467-1.28 37.291-5.931z" />
<glyph unicode="&#xe92f;" glyph-name="Camera-2" d="M477.013 626.176c-34.164-6.632-64.28-20.609-89.799-40.262l0.498 0.368c-38.571-29.781-63.872-70.571-74.709-120.363-4.053-18.773-4.053-59.733 0-78.507 16.085-73.771 66.219-130.091 136.619-153.472 38.656-12.8 86.101-12.8 124.757 0 70.4 23.381 120.533 79.701 136.619 153.472 4.096 18.859 4.053 59.776-0.043 78.507-16.128 73.643-66.901 130.603-136.661 153.387-19.023 6.021-40.901 9.491-63.59 9.491-11.893 0-23.563-0.953-34.939-2.788l1.249 0.166zM547.243 560.597c39.088-10.758 70.644-37.073 88.168-71.695l0.365-0.796c11.264-23.339 13.525-33.493 13.525-61.44 0-27.989-2.261-38.187-13.525-61.44-17.842-35.697-49.629-62.183-88.033-72.566l-0.97-0.223c-18.987-5.163-50.645-5.12-69.76 0.043-39.311 10.588-71.037 37.067-88.428 71.947l-0.361 0.8c-11.264 23.253-13.525 33.451-13.525 61.44 0 27.947 2.261 38.101 13.525 61.44 20.387 40.5 58.907 69.28 104.602 75.817l0.742 0.087c4.917 0.515 10.624 0.809 16.399 0.809 13.218 0 26.076-1.539 38.406-4.447l-1.13 0.225z" />
<glyph unicode="&#xe930;" glyph-name="Camera-Slash-1" d="M925.867 896.981c-4.352-2.048-22.741-19.157-50.901-47.445l-44.075-44.288 10.112-3.669c5.547-2.048 12.715-5.461 15.915-7.595 14.635-9.771 15.659-32.299 2.048-44.885-11.093-10.325-25.685-11.819-47.445-4.864-7.115 2.342-15.498 4.186-24.136 5.19l-0.61 0.058-11.093 0.896-85.333-85.675c-46.933-47.104-84.48-85.973-83.456-86.4 1.024-0.384 7.637-4.48 14.72-9.131 15.232-10.027 19.2-16.469 18.005-29.184-1.109-11.307-6.997-19.413-18.048-24.875-12.715-6.272-21.803-5.035-44.544 6.101-5.345 2.879-11.83 5.81-18.519 8.325l-1.151 0.379c-1.024 0-41.344-39.467-89.557-87.723l-87.723-87.765 9.813-20.651c9.387-19.669 9.813-21.163 9.173-31.531-1.195-18.859-12.971-30.72-30.592-30.805-12.501-0.043-18.603 4.565-28.843 21.803l-7.68 12.928-181.248-181.035 6.997-13.696c6.912-13.483 6.997-13.952 6.997-31.829 0-19.755-1.792-25.173-12.373-37.675l-4.992-5.888-5.077 3.627c-7.814 6.79-14.94 13.673-21.692 20.911l-0.154 0.167-16.725 17.408-23.509-23.723c-26.752-26.965-29.611-32.128-25.813-46.293 5.845-21.931 29.568-31.488 48.128-19.413 4.181 2.688 199.765 197.205 434.603 432.213 336.683 336.853 427.776 428.885 430.464 434.944 4.309 9.515 4.352 15.957 0.299 24.747-7.723 16.768-25.984 23.851-41.984 16.341z" />
<glyph unicode="&#xe931;" glyph-name="Camera-Slash-2" d="M926.72 871.979c-3.669-1.579-26.368-22.912-58.453-54.955-17.687-17.4-34.795-34.791-51.614-52.459l-0.866-0.917c0-0.555 4.053-2.005 8.96-3.243 20.821-5.248 28.587-13.227 28.587-29.397 0.027-0.451 0.043-0.978 0.043-1.509 0-5.818-1.854-11.203-5.004-15.596l0.055 0.081c-9.173-14.464-23.083-17.835-52.139-12.629-7.606 1.357-16.87 2.436-26.275 2.996l-0.691 0.033-13.227 0.512-137.429-137.685 4.224-2.859c14.592-9.941 23.893-18.133 26.283-23.168 1.694-3.664 2.682-7.952 2.682-12.471 0-5.296-1.357-10.275-3.743-14.608l0.079 0.157c-9.685-17.195-33.152-20.693-53.419-7.936-4.693 2.944-11.861 7.296-15.957 9.6l-7.424 4.224-91.989-91.947c-50.603-50.603-91.989-92.8-91.989-93.867 0-1.024 3.2-6.784 7.083-12.8 10.411-16.043 13.312-23.424 13.355-33.835 0.043-12.8-5.035-22.869-14.336-28.331-9.173-5.333-21.589-5.717-29.525-0.853-4.693 2.859-17.451 18.176-22.656 27.221-1.237 2.133-19.584-15.317-91.221-86.912-49.323-49.28-89.685-90.453-89.685-91.52 0-2.731 21.717-22.869 34.048-31.573l10.411-7.339-14.123-14.208c-15.531-15.701-21.461-19.925-30.123-21.547-10.795-2.005-18.304 1.621-33.323 16.043l-14.080 13.483-28.288-28.501c-31.829-32.128-34.475-36.523-30.635-50.944 2.816-10.581 6.4-15.445 15.104-20.523 4.513-2.816 9.994-4.486 15.864-4.486 5.842 0 11.297 1.654 15.924 4.518l-0.13-0.075c4.053 2.389 198.315 195.541 436.693 434.091 377.045 377.387 429.611 430.635 431.36 436.821 2.688 9.557 2.432 13.995-1.28 21.973-7.467 16.256-25.472 23.637-41.131 16.939z" />
<glyph unicode="&#xe932;" glyph-name="Card-1" d="M546.603 265.472c-12.145-3.395-21.298-13.346-23.481-25.703l-0.029-0.196c-2.688-14.293 8.107-31.531 22.229-35.413 9.387-2.645 179.968-2.645 189.355 0 9.045 2.475 18.816 12.501 21.333 21.803 3.797 14.123-1.28 27.221-13.824 35.499l-7.211 4.779-91.435 0.299c-50.304 0.128-93.909-0.341-96.939-1.067z" />
<glyph unicode="&#xe933;" glyph-name="Card-2" d="M247.936 265.472c-12.134-3.414-21.277-13.356-23.48-25.701l-0.029-0.197c-2.688-14.293 8.107-31.531 22.229-35.413 9.131-2.56 94.891-2.56 104.021 0 9.045 2.475 18.816 12.501 21.333 21.803 3.797 14.123-1.28 27.221-13.824 35.499l-7.211 4.779-48.768 0.299c-26.837 0.171-51.243-0.299-54.272-1.067z" />
<glyph unicode="&#xe934;" glyph-name="Category" d="M250.027 819.968c-21.077-1.536-30.848-3.925-45.739-11.221-31.009-15.455-53.835-43.399-62.085-77.065l-0.166-0.802c-4.181-18.048-4.139-120.832 0-139.093 10.683-43.107 43.976-76.399 86.27-86.912l0.813-0.171c10.197-2.347 22.4-2.816 69.547-2.816s59.349 0.469 69.547 2.816c43.107 10.683 76.399 43.976 86.912 86.27l0.171 0.813c4.139 18.133 4.139 120.96 0 139.093-9.935 40.646-40.12 72.472-79.001 84.557l-0.829 0.222c-17.92 5.376-81.749 7.552-125.44 4.309zM364.245 751.915c10.709-5.248 19.755-14.293 25.003-25.003 4.139-8.405 4.139-8.533 4.139-65.579s0-57.173-4.139-65.579c-5.291-10.709-15.36-20.779-25.472-25.472-7.637-3.541-10.197-3.669-65.109-3.669s-57.472 0.128-65.109 3.669c-11.035 5.671-19.801 14.437-25.32 25.148l-0.152 0.324c-4.053 8.235-4.139 9.472-4.693 58.923-0.341 31.147 0.128 54.357 1.28 60.416 3.499 19.072 19.84 36.352 37.803 40.021 4.139 0.853 31.36 1.408 60.459 1.237 52.224-0.299 52.992-0.341 61.312-4.437z" />
<glyph unicode="&#xe935;" glyph-name="Chart" d="M503.936 692.139c-8.68-2.824-15.791-8.455-20.431-15.802l-0.091-0.155c-2.773-5.12-3.029-19.669-3.456-224.512-0.299-156.544 0.085-221.013 1.451-226.048 3.56-10.299 11.602-18.229 21.731-21.563l0.242-0.069c2.602-0.766 5.591-1.207 8.683-1.207 14.53 0 26.787 9.737 30.601 23.041l0.055 0.225c1.195 4.48 1.621 77.824 1.323 225.621-0.469 217.259-0.512 219.093-3.968 224.981-6.185 9.788-16.947 16.193-29.205 16.193-2.455 0-4.849-0.257-7.159-0.745l0.225 0.040z" />
<glyph unicode="&#xe936;" glyph-name="Close-Circle" d="M414.421 559.019c-17.323-3.328-28.288-21.717-23.595-39.509 1.749-6.528 6.912-12.459 38.912-44.629l36.907-37.077-36.864-37.163c-37.973-38.229-40.704-41.899-40.619-55.040 0.043-5.845 5.461-17.109 10.411-21.675 5.937-5.069 13.515-8.377 21.839-9.037l0.134-0.009c11.136 0 17.621 4.907 54.187 41.429l36.267 36.181 36.267-36.181c36.864-36.779 43.051-41.472 54.571-41.387 12.928 0.085 26.752 10.795 30.251 23.467 2.219 7.979 2.219 9.899-0.128 18.304-1.536 5.589-8.661 13.653-38.741 43.947l-36.864 37.163 36.907 37.077c32 32.171 37.163 38.101 38.912 44.629 6.4 24.192-13.653 44.288-38.869 38.997-7.467-1.579-10.837-4.437-45.184-38.528l-37.12-36.821-37.12 36.821c-30.037 29.781-38.272 37.077-43.093 38.016-7.569 1.355-10.453 1.948-13.331 2.558l4.798-0.852c-0.574 0.036-1.245 0.056-1.921 0.056-2.449 0-4.834-0.269-7.129-0.78l0.217 0.041z" />
<glyph unicode="&#xe937;" glyph-name="Close-Square" d="M414.421 559.019c-17.323-3.328-28.288-21.717-23.595-39.509 1.749-6.528 6.912-12.459 38.912-44.629l36.907-37.077-36.864-37.163c-37.973-38.229-40.704-41.899-40.619-55.040 0.043-5.845 5.461-17.109 10.411-21.675 5.937-5.069 13.515-8.377 21.839-9.037l0.134-0.009c11.136 0 17.621 4.907 54.187 41.429l36.267 36.181 36.267-36.181c36.864-36.779 43.051-41.472 54.571-41.387 12.928 0.085 26.752 10.795 30.251 23.467 2.219 7.979 2.219 9.899-0.128 18.304-1.536 5.589-8.661 13.653-38.741 43.947l-36.864 37.163 36.907 37.077c32 32.171 37.163 38.101 38.912 44.629 6.4 24.192-13.653 44.288-38.869 38.997-7.467-1.579-10.837-4.437-45.184-38.528l-37.12-36.821-37.12 36.821c-30.037 29.781-38.272 37.077-43.093 38.016-7.569 1.355-10.453 1.948-13.331 2.558l4.798-0.852c-0.574 0.036-1.245 0.056-1.921 0.056-2.449 0-4.834-0.269-7.129-0.78l0.217 0.041z" />
<glyph unicode="&#xe938;" glyph-name="Close" d="M205.269 777.472c-16.896-4.139-27.221-22.144-22.656-39.509 1.792-6.827 14.72-20.309 143.061-148.736l141.056-141.227-141.056-141.227c-127.701-127.829-141.269-141.952-143.061-148.693-0.758-2.596-1.194-5.577-1.194-8.661 0-17.673 14.327-32 32-32 3.084 0 6.065 0.436 8.887 1.25l-0.226-0.056c6.741 1.792 20.864 15.36 148.693 143.061l141.227 141.056 141.227-141.056c127.829-127.701 141.952-141.269 148.693-143.061 2.596-0.758 5.577-1.194 8.661-1.194 17.673 0 32 14.327 32 32 0 3.084-0.436 6.065-1.25 8.887l0.056-0.226c-1.792 6.741-15.36 20.864-143.061 148.693l-141.056 141.227 141.056 141.227c127.701 127.829 141.269 141.952 143.061 148.693 5.461 20.907-9.045 40.021-30.379 40.021-0.28 0.007-0.609 0.011-0.939 0.011-4.676 0-9.165-0.801-13.336-2.273l0.28 0.086c-2.347-1.195-67.413-65.237-144.64-142.336l-140.373-140.16-140.373 140.16c-77.184 77.099-141.909 140.928-143.787 141.867-4.496 1.795-9.707 2.836-15.16 2.836-2.619 0-5.182-0.24-7.669-0.699l0.258 0.040z" />
<glyph unicode="&#xe939;" glyph-name="Color-Picker" d="M610.048 862.635c-25.472-3.115-50.816-13.184-121.813-48.427-34.901-17.323-48.341-23.168-55.125-23.979-9.472-1.152-15.787 0.256-73.003 16.256-30.763 8.619-47.915 10.112-68.309 5.973-41.963-8.262-75.294-38.387-88.007-77.776l-0.228-0.816c-6.272-19.029-6.613-48.384-0.725-67.413 5.419-17.493 13.909-32.171 26.368-45.483 12.885-13.781 19.712-18.432 66.048-44.971 20.181-11.52 37.675-21.888 38.869-22.997 1.749-1.579-10.837-22.912-61.995-104.917-62.208-99.797-73.173-118.485-80.981-138.325-4.736-12.032-32.213-108.629-41.003-144.213-7.168-29.056-11.904-56.491-11.861-69.12 0-11.392 4.48-28.245 11.051-41.771 14.293-29.525 42.709-52.565 75.947-61.611 16.469-4.523 43.52-4.224 58.965 0.555 24.789 7.68 42.624 22.229 108.501 88.619 57.301 57.685 67.456 68.693 79.915 86.741 5.12 7.424 35.285 62.251 67.072 121.856 51.532 101.42 70.976 137.128 90.59 172.73l-32.137-63.631c0.384 0.384 19.456-10.155 42.411-23.424s45.867-25.941 50.859-28.16c42.539-18.816 93.952-8.832 127.531 24.789 13.525 13.483 22.571 28.245 28.715 46.72 3.925 11.819 4.565 16.512 4.608 34.987 0 18.987-0.512 22.827-4.736 34.987-8.235 23.765-12.885 29.952-53.163 70.827-44.117 44.757-41.472 39.979-46.891 85.333-13.867 116.181-20.309 145.408-37.803 171.605-19.064 27.848-50.691 45.885-86.531 45.885-4.632 0-9.193-0.301-13.665-0.885l0.527 0.056zM641.408 795.136c21.205-10.581 26.112-26.837 38.741-128.128 9.216-73.984 11.819-84.907 24.96-104.32 2.987-4.395 21.675-24.533 41.557-44.715 39.723-40.32 41.813-43.477 41.813-63.147 0-13.739-4.181-24.277-13.781-34.816-16-17.493-38.571-21.888-59.861-11.648-5.973 2.859-104.533 59.264-219.051 125.355-227.968 131.541-224.085 129.067-230.357 147.925-3.883 11.776-2.944 30.507 2.091 40.277 5.035 9.813 15.019 19.413 25.045 24.107 14.507 6.741 25.813 5.76 68.053-6.059 47.403-13.227 54.229-14.464 74.24-13.312 21.76 1.237 31.403 4.864 85.973 32.128 82.091 41.045 100.224 46.507 120.576 36.352zM471.040 474.453l71.296-41.045c0.768-0.469-110.421-208.981-118.357-221.909-4.096-6.656-15.787-21.248-26.027-32.427-28.8-31.488-109.227-110.080-120.32-117.632-8.661-5.845-11.435-6.827-21.333-7.339-27.563-1.536-53.205 20.053-53.205 44.8 0 12.203 6.997 44.544 19.627 90.539 19.413 70.827 26.453 93.397 33.963 109.227 5.675 11.947 62.379 104.277 131.925 214.741 3.84 6.101 4.395 6.357 7.851 4.139 2.091-1.28 35.627-20.693 74.581-43.093z" />
<glyph unicode="&#xe93a;" glyph-name="Crop-1" d="M159.573 906.24c-1.419-0.443-3.554-0.988-5.716-1.461l-0.642-0.118c-6.272-1.365-16.64-10.709-19.499-17.536-1.579-3.84-2.304-13.611-2.304-31.915v-26.411l-28.715-0.512c-27.392-0.512-29.013-0.768-35.029-4.821-7.168-4.864-14.763-18.475-14.72-26.368 0.085-11.221 10.368-25.813 20.992-29.824 2.645-1.024 16.597-1.835 31.019-1.835h26.24l0.683-210.347c0.725-211.413 0.981-219.989 7.339-269.227 14.379-111.061 66.944-176 162.859-201.131 58.795-15.445 94.251-17.237 337.493-17.28l189.867-0.043v-26.325c0-14.507 0.811-28.501 1.835-31.147 4.011-10.624 18.603-20.907 29.824-20.992 7.893-0.043 21.504 7.552 26.368 14.72 4.053 6.016 4.309 7.68 4.821 34.901l0.512 28.629 28.629 0.512c27.221 0.512 28.885 0.768 34.901 4.821 7.168 4.864 14.763 18.432 14.763 26.411 0 7.595-6.613 19.499-14.251 25.557l-6.528 5.205-57.728 1.067v188.928c0 105.771-0.768 203.136-1.749 221.312-4.779 88.747-17.365 142.123-43.264 183.168-1.716 2.412-3.222 5.168-4.387 8.097l-0.093 0.266c0 0.768 22.357 23.595 49.664 50.816 51.2 50.987 56.021 57.003 56.107 69.589-0.312 8.485-3.33 16.209-8.211 22.396l0.062-0.081c-4.267 4.821-15.616 9.557-22.997 9.6-12.971 0.085-17.536-3.584-69.973-55.893l-50.816-50.731-6.357 3.84c-41.856 25.387-80.768 35.925-159.957 43.307-13.227 1.237-94.080 2.219-228.267 2.688l-207.787 0.768v26.197c0 14.421-0.811 28.373-1.835 31.019-3.343 7.060-8.579 12.763-15.056 16.587l-0.176 0.096c-4.608 2.347-15.147 4.437-17.92 3.499zM614.4 762.197c58.197-4.267 96.171-11.605 121.387-23.424 7.381-3.456 13.44-6.741 13.44-7.296s-117.163-118.144-260.352-261.291c-238.848-238.763-260.48-259.968-262.357-256.853-10.411 17.365-19.883 50.944-24.149 85.333-5.589 45.099-6.357 74.453-7.296 269.44l-0.939 197.76 197.76-0.939c112-0.555 208.512-1.707 222.507-2.731zM802.773 671.787c11.861-25.216 19.157-63.232 23.381-121.387 1.024-13.952 2.219-111.061 2.773-222.293l0.939-197.547-172.16 0.043c-246.613 0-297.899 2.773-349.653 18.816-14.421 4.48-33.28 12.843-33.28 14.72 0 1.579 519.125 521.088 520.704 521.088 0.555 0 3.84-6.059 7.296-13.44z" />
<glyph unicode="&#xe93b;" glyph-name="Crop-2" d="M159.573 906.24c-1.419-0.443-3.554-0.988-5.716-1.461l-0.642-0.118c-6.272-1.365-16.64-10.709-19.499-17.536-1.579-3.84-2.304-13.611-2.304-31.915v-26.411l-28.715-0.512c-27.392-0.512-29.013-0.768-35.029-4.821-7.168-4.864-14.763-18.475-14.72-26.368 0.085-11.221 10.368-25.813 20.992-29.824 2.645-1.024 16.597-1.835 31.019-1.835h26.24l0.683-210.347c0.725-211.413 0.981-219.989 7.339-269.227 14.379-111.061 66.944-176 162.859-201.131 58.795-15.445 94.251-17.237 337.493-17.28l189.867-0.043v-26.325c0-14.507 0.811-28.501 1.835-31.147 4.011-10.624 18.603-20.907 29.824-20.992 7.893-0.043 21.504 7.552 26.368 14.72 4.053 6.016 4.309 7.68 4.821 34.901l0.512 28.629 28.629 0.512c27.221 0.512 28.885 0.768 34.901 4.821 7.168 4.864 14.763 18.432 14.763 26.411 0 7.595-6.613 19.499-14.251 25.557l-6.528 5.205-57.728 1.067-0.043 189.781c-0.043 212.267-1.195 249.856-9.515 301.525-19.669 122.453-86.485 183.979-216.576 199.552-43.691 5.248-62.677 5.717-264.107 6.443l-207.787 0.768v26.197c0 14.421-0.811 28.373-1.835 31.019-3.343 7.060-8.579 12.763-15.056 16.587l-0.176 0.096c-4.608 2.347-15.147 4.437-17.92 3.499zM562.347 763.776c78.677-2.304 115.883-6.272 149.717-16.128 66.091-19.243 98.944-64.341 109.568-150.315 5.547-44.971 6.357-74.581 7.296-269.227l0.939-197.547-172.16 0.043c-176.299 0-238.891 1.323-282.069 6.016-61.824 6.699-98.987 20.139-124.8 45.141-32.981 31.957-46.421 73.472-53.035 163.84-1.024 13.995-2.176 110.464-2.731 222.293l-0.939 197.547 156.8-0.043c86.229-0.043 181.376-0.768 211.413-1.621z" />
<glyph unicode="&#xe93c;" glyph-name="Crop-3" d="M497.323 564.011c-39.617-5.188-72.606-29.474-89.804-63.165l-0.308-0.665c-8.917-18.176-11.947-31.445-11.947-52.181 0-20.693 3.029-34.005 11.904-52.096 15.45-30.115 42.439-52.463 74.979-61.414l0.84-0.197c14.976-4.096 43.093-4.053 58.027 0 33.451 9.173 62.336 32.981 76.715 63.232 8.021 16.896 11.008 30.549 11.008 50.475 0 28.032-7.467 49.877-24.533 72.021-21.918 27.413-55.358 44.82-92.864 44.82-4.94 0-9.809-0.302-14.59-0.888l0.574 0.057zM534.912 495.872c10.667-5.205 19.755-14.251 25.003-24.96 5.973-12.117 5.931-33.749-0.043-45.909-19.584-39.765-76.373-39.765-95.701 0-4.907 10.069-6.485 27.947-3.371 37.76 5.12 16.128 17.92 29.611 33.749 35.627 9.899 3.797 30.080 2.517 40.363-2.517z" />
<glyph unicode="&#xe93d;" glyph-name="Cup-of-Tea" d="M287.872 573.227c-10.752-3.285-21.845-14.293-25.643-25.387-2.347-6.955-2.816-16.128-2.816-57.173 0-56.149 0.768-60.629 12.757-72.576 12.032-12.032 16.341-12.757 73.301-12.672 53.333 0.085 57.088 0.555 68.352 9.173 3.285 2.475 8.064 8.149 10.667 12.544l4.736 8.064v110.933l-4.736 8.064c-5.16 8.998-13.297 15.793-23.042 19.112l-0.296 0.088c-10.496 3.712-101.077 3.584-113.28-0.171z" />
<glyph unicode="&#xe93e;" glyph-name="Cup" d="M251.179 564.096c-10.174-2.946-18.089-10.623-21.313-20.428l-0.063-0.222-3.157-9.259 23.125-131.157c25.557-144.597 24.789-141.568 38.656-149.376 4.457-2.518 9.787-4.002 15.463-4.002 15.822 0 28.951 11.529 31.445 26.644l0.025 0.185c1.408 9.429-43.904 265.344-48.299 272.853-6.613 11.349-22.741 17.963-35.883 14.763z" />
<glyph unicode="&#xe93f;" glyph-name="Danger-Circle" d="M497.664 317.312c-9.756-3.576-17.648-10.295-22.631-18.908l-0.11-0.206c-4.053-6.869-4.736-9.941-4.736-20.864s0.683-13.995 4.736-20.864c7.409-12.97 21.156-21.571 36.912-21.571 11.757 0 22.396 4.789 30.072 12.523l0.003 0.003c7.68 7.68 12.757 19.584 12.757 29.909 0 28.757-30.080 49.835-57.003 39.979z" />
<glyph unicode="&#xe940;" glyph-name="Danger-Triangle" d="M503.936 692.139c-8.68-2.824-15.791-8.455-20.431-15.802l-0.091-0.155c-2.773-5.035-3.029-15.616-3.456-139.093-0.299-89.429 0.128-135.851 1.323-140.288 3.813-13.535 16.050-23.291 30.565-23.291 8.823 0 16.804 3.604 22.552 9.421l0.003 0.003c3.605 3.681 6.408 8.162 8.118 13.151l0.074 0.247c1.365 5.035 1.792 46.123 1.451 140.757-0.469 131.157-0.555 133.76-3.968 139.563-6.185 9.788-16.947 16.193-29.205 16.193-2.455 0-4.849-0.257-7.159-0.745l0.225 0.040z" />
<glyph unicode="&#xe941;" glyph-name="Delete-1" d="M490.368 905.259c-31.957-3.072-74.283-19.669-99.84-39.083-16.299-12.373-40.021-38.272-50.517-55.083-18.915-30.618-30.393-67.593-31.101-107.197l-0.003-0.195v-9.771l-147.883-1.024-7.211-4.779c-12.544-8.277-17.621-21.376-13.824-35.499 2.517-9.301 12.288-19.328 21.333-21.803 9.643-2.688 691.712-2.688 701.355 0 9.045 2.475 18.816 12.501 21.333 21.803 3.797 14.123-1.28 27.221-13.824 35.499l-7.211 4.779-147.883 1.024v9.771c-0.711 39.799-12.189 76.774-31.633 108.315l0.529-0.923c-10.496 16.811-34.219 42.709-50.517 55.083-15.744 11.989-48.853 27.989-68.736 33.237-15.317 4.011-43.691 7.851-55.296 7.424-8.1-0.511-14.684-1.073-21.23-1.763l2.158 0.184zM554.411 835.584c22.741-7.637 37.888-17.024 55.040-34.133 25.387-25.429 38.485-54.357 40.32-89.131l0.981-18.56h-277.504l0.981 18.56c1.53 33.857 15.551 64.171 37.529 86.682l-0.025-0.026c13.874 14.854 30.952 26.53 50.149 33.948l0.923 0.314c20.096 7.552 29.227 8.917 54.315 8.277 18.475-0.469 23.467-1.28 37.291-5.931z" />
<glyph unicode="&#xe942;" glyph-name="Delete-2" d="M490.368 905.259c-31.957-3.072-74.283-19.669-99.84-39.083-16.299-12.373-40.021-38.272-50.517-55.083-18.915-30.618-30.393-67.593-31.101-107.197l-0.003-0.195v-9.771l-147.883-1.024-7.211-4.779c-12.544-8.277-17.621-21.376-13.824-35.499 2.517-9.301 12.288-19.328 21.333-21.803 9.643-2.688 691.712-2.688 701.355 0 9.045 2.475 18.816 12.501 21.333 21.803 3.797 14.123-1.28 27.221-13.824 35.499l-7.211 4.779-147.883 1.024v9.771c-0.711 39.799-12.189 76.774-31.633 108.315l0.529-0.923c-10.496 16.811-34.219 42.709-50.517 55.083-15.744 11.989-48.853 27.989-68.736 33.237-15.317 4.011-43.691 7.851-55.296 7.424-8.1-0.511-14.684-1.073-21.23-1.763l2.158 0.184zM554.411 835.584c22.741-7.637 37.888-17.024 55.040-34.133 25.387-25.429 38.485-54.357 40.32-89.131l0.981-18.56h-277.504l0.981 18.56c1.53 33.857 15.551 64.171 37.529 86.682l-0.025-0.026c13.874 14.854 30.952 26.53 50.149 33.948l0.923 0.314c20.096 7.552 29.227 8.917 54.315 8.277 18.475-0.469 23.467-1.28 37.291-5.931z" />
<glyph unicode="&#xe943;" glyph-name="Discount-Circle" d="M611.84 589.781c-4.651-2.176-46.379-42.837-131.712-128.384-112.725-113.024-125.056-125.909-126.848-132.651-0.758-2.596-1.194-5.577-1.194-8.661 0-17.673 14.327-32 32-32 3.084 0 6.065 0.436 8.887 1.25l-0.226-0.056c6.741 1.792 19.627 14.123 133.333 127.701 101.291 101.163 126.464 127.147 128.683 132.992 1.306 3.332 2.063 7.19 2.063 11.225 0 17.437-14.136 31.573-31.573 31.573-4.87 0-9.483-1.103-13.602-3.072l0.19 0.082z" />
<glyph unicode="&#xe944;" glyph-name="Discount-Shape-1" d="M611.84 589.781c-4.651-2.176-46.379-42.837-131.712-128.384-112.725-113.024-125.056-125.909-126.848-132.651-0.758-2.596-1.194-5.577-1.194-8.661 0-17.673 14.327-32 32-32 3.084 0 6.065 0.436 8.887 1.25l-0.226-0.056c6.741 1.792 19.627 14.123 133.333 127.701 101.291 101.163 126.464 127.147 128.683 132.992 1.306 3.332 2.063 7.19 2.063 11.225 0 17.437-14.136 31.573-31.573 31.573-4.87 0-9.483-1.103-13.602-3.072l0.19 0.082z" />
<glyph unicode="&#xe945;" glyph-name="Discount-Shape-2" d="M369.664 615.979c-9.756-3.576-17.648-10.295-22.631-18.908l-0.11-0.206c-4.053-6.869-4.736-9.941-4.736-20.864s0.683-13.995 4.736-20.864c7.409-12.97 21.156-21.571 36.912-21.571 11.757 0 22.396 4.789 30.072 12.523l0.003 0.003c7.731 7.619 12.521 18.205 12.521 29.909s-4.79 22.29-12.516 29.904l-0.005 0.005c-7.695 7.718-18.338 12.494-30.096 12.494-5.072 0-9.936-0.888-14.445-2.518l0.296 0.093z" />
<glyph unicode="&#xe946;" glyph-name="Discount-Shape-3" d="M369.664 615.979c-9.756-3.576-17.648-10.295-22.631-18.908l-0.11-0.206c-4.053-6.869-4.736-9.941-4.736-20.864s0.683-13.995 4.736-20.864c7.409-12.97 21.156-21.571 36.912-21.571 11.757 0 22.396 4.789 30.072 12.523l0.003 0.003c7.731 7.619 12.521 18.205 12.521 29.909s-4.79 22.29-12.516 29.904l-0.005 0.005c-7.695 7.718-18.338 12.494-30.096 12.494-5.072 0-9.936-0.888-14.445-2.518l0.296 0.093z" />
<glyph unicode="&#xe947;" glyph-name="Discount-Square" d="M369.664 615.979c-9.756-3.576-17.648-10.295-22.631-18.908l-0.11-0.206c-4.053-6.869-4.736-9.941-4.736-20.864s0.683-13.995 4.736-20.864c7.409-12.97 21.156-21.571 36.912-21.571 11.757 0 22.396 4.789 30.072 12.523l0.003 0.003c7.731 7.619 12.521 18.205 12.521 29.909s-4.79 22.29-12.516 29.904l-0.005 0.005c-7.695 7.718-18.338 12.494-30.096 12.494-5.072 0-9.936-0.888-14.445-2.518l0.296 0.093z" />
<glyph unicode="&#xe948;" glyph-name="Discovery-1" d="M588.843 613.205c-8.363-1.877-116.053-45.781-136.576-55.68-15.317-7.424-39.040-29.781-47.36-44.672-9.387-16.896-57.088-135.040-59.008-146.347-8.149-47.147 37.461-92.757 84.608-84.608 11.349 1.963 129.621 49.664 146.347 59.051 12.075 6.784 35.413 30.123 42.197 42.197 9.387 16.725 57.088 134.997 59.051 146.347 8.491 49.28-39.936 94.677-89.259 83.712zM611.285 547.584c1.707-1.579 3.115-4.437 3.157-6.4 0-1.963-11.307-31.189-25.131-64.939-33.621-81.963-23.765-71.979-104.192-105.131-34.048-14.037-63.531-25.515-65.579-25.515-4.821 0-9.941 4.736-9.984 9.216 0 1.963 11.307 31.232 25.131 65.024 33.365 81.451 23.979 72.064 104.619 105.301 33.323 13.739 62.464 25.045 64.725 25.131 2.768-0.072 5.289-1.074 7.274-2.705l-0.021 0.017z" />
<glyph unicode="&#xe949;" glyph-name="Discovery-2" d="M588.843 613.205c-8.363-1.877-116.053-45.781-136.576-55.68-15.317-7.424-39.040-29.781-47.36-44.672-9.387-16.896-57.088-135.040-59.008-146.347-8.149-47.147 37.461-92.757 84.608-84.608 11.349 1.963 129.621 49.664 146.347 59.051 12.075 6.784 35.413 30.123 42.197 42.197 9.387 16.725 57.088 134.997 59.051 146.347 8.491 49.28-39.936 94.677-89.259 83.712zM611.285 547.584c1.707-1.579 3.115-4.437 3.157-6.4 0-1.963-11.307-31.189-25.131-64.939-33.621-81.963-23.765-71.979-104.192-105.131-34.048-14.037-63.531-25.515-65.579-25.515-4.821 0-9.941 4.736-9.984 9.216 0 1.963 11.307 31.232 25.131 65.024 33.365 81.451 23.979 72.064 104.619 105.301 33.323 13.739 62.464 25.045 64.725 25.131 2.768-0.072 5.289-1.074 7.274-2.705l-0.021 0.017z" />
<glyph unicode="&#xe94a;" glyph-name="Dislike" d="M216.832 819.968c-60.446-8.393-108.072-54.473-118.7-113.412l-0.127-0.849c-3.413-18.816-3.413-368.597 0-387.413 5.461-29.867 17.408-52.608 39.211-74.411 16.981-16.939 30.677-25.685 52.395-33.365 41.472-14.677 86.613-8.405 124.416 17.365 11.563 7.893 29.781 26.795 37.419 38.869 3.115 4.949 5.845 8.789 6.059 8.533l56.363-91.819c47.957-78.208 57.643-92.928 67.413-102.656 19.84-19.755 41.771-28.117 69.973-26.624 40.96 2.176 73.216 27.435 85.163 66.731 5.035 16.469 4.565 30.379-2.56 76.587-6.741 43.904-6.869 55.893-0.725 73.728 9.6 27.904 35.883 51.157 64.555 57.131 4.992 1.024 19.968 1.877 33.28 1.877 62.848 0.043 105.643 16.725 142.976 55.68 30.393 31.209 49.136 73.893 49.136 120.955 0 3.484-0.103 6.944-0.305 10.377l0.022-0.473c-1.621 34.091-5.077 43.904-40.576 115.541-36.907 74.411-46.293 89.387-73.131 116.181-43.605 43.648-92.971 66.517-154.581 71.637-25.643 2.133-139.776 2.048-161.536-0.171-25.053-2.464-48.013-9.114-68.965-19.259l1.21 0.528c-21.090-9.83-39.108-22.621-54.429-38.087l-0.014-0.014c-7.723-7.509-14.336-13.312-14.677-12.928-0.717 0.884-3.175 4.456-5.606 8.049l-1.861 2.916c-10.418 14.107-22.563 26.157-36.302 36.15l-0.477 0.33c-25.771 17.579-63.787 26.496-95.019 22.315zM266.837 749.525c15.488-7.68 28.245-20.693 35.755-36.565l5.461-11.52v-379.051l-6.357-12.843c-7.942-15.911-20.666-28.442-36.268-35.936l-0.468-0.203c-10.795-5.12-12.715-5.461-30.293-5.461s-19.499 0.341-30.293 5.461c-16.070 7.696-28.794 20.228-36.532 35.688l-0.204 0.451-6.357 12.843v379.051l5.461 11.52c6.784 14.379 19.712 28.245 32.768 35.2 13.653 7.253 20.608 8.704 39.040 8.064 14.165-0.512 17.152-1.195 28.288-6.699zM681.301 751.403c19.285-5.248 40.747-14.891 56.192-25.301 15.872-10.709 38.016-32.896 48.427-48.555 12.245-18.432 66.816-128.811 70.016-141.568 3.285-13.227 3.243-41.728-0.043-54.784-10.622-38.884-39.609-69.265-76.819-81.637l-0.834-0.24c-6.784-2.091-19.499-3.285-46.080-4.267-40.533-1.493-54.101-3.797-75.392-12.8-36.053-15.189-68.011-47.701-81.664-83.115-13.099-33.92-13.909-54.4-4.608-113.109 6.528-41.088 6.571-46.635 0.469-55.979-4.853-6.379-11.916-10.859-20.029-12.302l-0.195-0.029c-8.107-1.536-19.371 2.517-25.387 9.045-4.096 4.437-106.24 169.685-125.056 202.283-11.477 19.84-17.109 33.237-21.888 52.011-3.755 14.72-3.797 16.299-3.797 139.477v124.587l5.632 16.213c3.115 8.917 8.747 21.504 12.587 27.947 11.542 17.818 25.843 32.771 42.473 44.678l0.492 0.335c13.141 8.704 36.651 18.304 50.944 20.779 4.992 0.853 47.061 1.365 93.525 1.195l84.48-0.341 16.555-4.523z" />
<glyph unicode="&#xe94b;" glyph-name="Display-1" d="M503.936 308.139c-12.134-3.414-21.277-13.356-23.48-25.701l-0.029-0.197c-2.688-14.293 8.107-31.531 22.229-35.413 9.515-2.645 265.173-2.645 274.688 0 9.045 2.475 18.816 12.501 21.333 21.803 3.797 14.123-1.28 27.221-13.824 35.499l-7.211 4.779-134.101 0.256c-73.771 0.171-136.576-0.299-139.605-1.024z" />
<glyph unicode="&#xe94c;" glyph-name="Display-2" d="M428.373 916.309l-39.253-2.432c-78.514-4.996-150.271-13.77-220.695-26.389l11.628 1.728c-38.059-6.613-57.941-13.867-83.584-30.592-40.704-26.539-68.053-65.835-81.451-117.077l-3.797-14.507-0.597-193.707c-0.384-133.632 0-198.827 1.323-210.176 5.684-49.873 28.524-93.564 62.379-125.786l0.085-0.080c16.768-15.659 37.888-29.653 57.6-38.187 38.955-16.811 70.443-19.883 129.963-12.587 51.761 7.054 113.874 12.141 176.776 14.095l2.851 0.070 37.973 1.152v-123.435h-5.547c-20.565-0.043-130.645-23.808-147.669-31.915-7.424-3.541-15.147-13.995-16.555-22.571-0.194-1.346-0.305-2.9-0.305-4.48 0-14.785 9.716-27.301 23.111-31.51l0.234-0.063c7.168-1.963 10.155-1.493 46.891 7.509 74.965 18.347 79.701 19.029 132.267 19.029s57.301-0.683 132.267-19.029c36.736-9.003 39.723-9.472 46.891-7.509 13.629 4.273 23.345 16.789 23.345 31.574 0 1.58-0.111 3.134-0.325 4.654l0.020-0.175c-1.408 8.576-9.131 19.029-16.555 22.571-17.024 8.107-127.104 31.872-147.669 31.915h-5.547v123.435l37.973-1.152c59.861-1.792 112.256-5.931 179.627-14.165 44.629-5.461 72.747-4.992 98.133 1.621 81.547 21.268 142.393 89.911 151.81 174.097l0.084 0.922c1.323 11.349 1.707 76.757 1.365 210.176l-0.555 193.707-4.523 16.341c-8.747 31.915-18.944 52.693-36.992 75.307-23.399 29.102-54.699 50.971-90.644 62.435l-1.346 0.371c-32.768 10.155-139.648 24.576-241.067 32.597-21.845 1.707-189.995 3.499-209.92 2.219zM584.533 852.437c84.352-3.499 158.464-11.179 240.64-24.917 44.629-7.424 65.365-16.853 88.021-39.936 10.325-10.496 14.72-16.768 21.845-30.891 14.72-29.355 14.037-16.853 13.44-241.365-0.512-218.624 0.384-202.069-12.459-229.291-20.382-42.93-60.991-73.336-109.17-79.041l-0.654-0.063c-13.184-1.664-19.371-1.365-52.395 2.688-99.925 12.16-157.184 15.573-261.803 15.573s-161.877-3.413-261.803-15.573c-32.939-4.011-39.253-4.352-52.096-2.688-49.493 6.315-89.259 34.901-110.123 79.104-12.843 27.221-11.947 10.667-12.459 229.291-0.597 224.512-1.28 212.011 13.44 241.365 7.125 14.123 11.52 20.395 21.845 30.891 22.656 23.083 43.392 32.512 88.021 39.936 94.063 16.756 202.347 26.335 312.869 26.335 25.616 0 51.112-0.515 76.478-1.534l-3.64 0.116z" />
<glyph unicode="&#xe94d;" glyph-name="Display-3" d="M331.947 862.72c-48.341-1.835-74.112-5.504-100.907-14.507-50.773-17.067-104.363-63.403-129.365-111.787-19.84-38.485-27.093-72.619-43.605-205.653-12.629-101.504-13.867-114.261-14.891-156.16-1.067-43.989 1.28-66.304 9.685-92.032 16-48.939 51.584-94.848 96.683-124.629 50.688-33.451 98.816-40.96 263.040-41.003l66.987-0.043v-78.507h-5.547c-20.565-0.043-130.645-23.808-147.669-31.915-7.424-3.541-15.147-13.995-16.555-22.571-0.194-1.346-0.305-2.9-0.305-4.48 0-14.785 9.716-27.301 23.111-31.51l0.234-0.063c7.168-1.963 10.155-1.493 46.891 7.509 74.965 18.347 79.701 19.029 132.267 19.029s57.301-0.683 132.267-19.029c36.736-9.003 39.723-9.472 46.891-7.509 13.629 4.273 23.345 16.789 23.345 31.574 0 1.58-0.111 3.134-0.325 4.654l0.020-0.175c-1.408 8.576-9.131 19.029-16.555 22.571-17.024 8.107-127.104 31.872-147.669 31.915h-5.547v78.507l66.987 0.043c164.224 0.043 212.352 7.552 263.040 41.003 45.056 29.781 80.683 75.691 96.683 124.587 16.299 49.92 13.611 114.133-12.971 308.821-16.043 117.291-31.829 156.8-81.963 204.715-42.197 40.32-84.224 58.581-150.016 65.067-22.912 2.261-342.059 3.541-394.24 1.579zM710.272 797.781c57.045-3.925 86.955-15.488 120.107-46.464 37.973-35.499 49.536-64 62.123-153.131 5.333-37.973 18.304-144.171 21.547-176.64 3.712-37.504 3.84-85.845 0.213-103.595-11.648-56.875-62.805-111.616-117.547-125.739-9.28-2.284-21.441-4.555-33.785-6.254l-2.055-0.232c-21.035-2.901-39.808-3.115-248.875-3.115s-227.84 0.213-248.875 3.115c-41.728 5.675-62.293 13.227-87.040 31.829-30.763 23.211-55.936 59.008-64.256 91.349-9.045 35.072-7.168 75.904 9.429 209.92 15.445 124.245 21.035 153.771 34.773 182.613 9.131 19.243 19.413 32.896 37.589 49.877 32.128 29.995 63.531 42.581 115.328 46.251 31.232 2.219 369.579 2.389 401.323 0.213z" />
<glyph unicode="&#xe94e;" glyph-name="Display-4" d="M279.040 862.635c-62.123-2.048-97.707-8.405-128.299-22.869-50.567-24.238-90.499-63.908-114.439-112.83l-0.633-1.431c-20.736-43.392-25.387-86.443-25.387-234.837s4.651-191.445 25.387-234.837c24.27-49.992 63.755-89.422 112.358-112.994l1.434-0.627c43.563-20.821 85.845-25.216 242.645-25.259l87.467-0.043v-78.507h-5.547c-20.565-0.043-130.645-23.808-147.669-31.915-7.424-3.541-15.147-13.995-16.555-22.571-0.194-1.346-0.305-2.9-0.305-4.48 0-14.785 9.716-27.301 23.111-31.51l0.234-0.063c7.168-1.963 10.155-1.493 46.891 7.509 74.965 18.347 79.701 19.029 132.267 19.029s57.301-0.683 132.267-19.029c36.736-9.003 39.723-9.472 46.891-7.509 13.629 4.273 23.345 16.789 23.345 31.574 0 1.58-0.111 3.134-0.325 4.654l0.020-0.175c-1.408 8.576-9.131 19.029-16.555 22.571-17.024 8.107-127.104 31.872-147.669 31.915h-5.547v78.507l87.467 0.043c156.971 0.043 198.912 4.437 242.987 25.429 49.937 24.092 89.315 63.47 112.786 111.982l0.622 1.426c20.693 43.477 25.429 86.912 25.429 234.88 0 147.925-4.736 191.403-25.429 234.837-24.545 50.359-64.467 90.033-113.576 113.632l-1.453 0.629c-31.701 15.019-64.341 20.565-135.125 22.955-53.12 1.835-403.157 1.749-459.093-0.085zM793.6 795.563c26.112-3.883 41.771-8.277 57.643-16.299 41.515-20.907 76.16-61.696 87.381-102.955 8.747-32.128 9.429-45.568 9.429-185.643s-0.683-153.515-9.429-185.643c-14.165-52.096-63.531-100.395-116.309-113.792-34.091-8.619-33.365-8.619-310.315-8.619s-276.224 0-310.315 8.619c-52.779 13.397-102.144 61.696-116.309 113.792-8.747 32.128-9.429 45.568-9.429 185.643s0.683 153.515 9.429 185.643c11.221 41.259 45.867 82.048 87.381 102.955 21.291 10.709 45.184 15.957 84.949 18.603 10.795 0.683 131.371 1.152 267.947 0.939 224.043-0.299 250.24-0.64 267.947-3.243z" />
<glyph unicode="&#xe94f;" glyph-name="Document-Add-1" d="M461.269 564.139c-8.68-2.824-15.791-8.455-20.431-15.802l-0.091-0.155c-2.645-4.779-3.029-11.819-3.499-57.813l-0.512-52.395-105.045-1.067-7.211-4.779c-12.544-8.277-17.621-21.376-13.824-35.499 2.517-9.301 12.288-19.328 21.333-21.803 4.224-1.195 25.301-1.92 55.851-1.92h49.067v-49.067c0-28.501 0.768-51.712 1.792-55.424 4.608-16.64 22.187-26.368 39.253-21.76 9.387 2.517 19.371 12.245 21.888 21.333 1.195 4.224 1.92 25.301 1.92 55.851v49.067h49.067c30.549 0 51.627 0.725 55.851 1.92 9.045 2.475 18.816 12.501 21.333 21.803 3.797 14.123-1.28 27.221-13.824 35.499l-7.211 4.779-105.045 1.067-0.512 52.395c-0.469 49.152-0.725 52.693-4.011 58.283-6.185 9.788-16.947 16.193-29.205 16.193-2.455 0-4.849-0.257-7.159-0.745l0.225 0.040z" />
<glyph unicode="&#xe950;" glyph-name="Document-Align-Center-2" d="M333.269 564.139c-12.134-3.414-21.277-13.356-23.48-25.701l-0.029-0.197c-2.688-14.293 8.107-31.531 22.229-35.413 9.557-2.688 350.464-2.688 360.021 0 9.045 2.475 18.816 12.501 21.333 21.803 3.797 14.123-1.28 27.221-13.824 35.499l-7.211 4.779-176.768 0.256c-97.237 0.171-179.243-0.299-182.272-1.024z" />
<glyph unicode="&#xe951;" glyph-name="Document-Align-Left-2" d="M333.269 564.139c-12.134-3.414-21.277-13.356-23.48-25.701l-0.029-0.197c-2.688-14.293 8.107-31.531 22.229-35.413 9.301-2.603 137.387-2.603 146.688 0 9.045 2.475 18.816 12.501 21.333 21.803 3.797 14.123-1.28 27.221-13.824 35.499l-7.211 4.779-70.101 0.299c-38.571 0.171-72.576-0.299-75.605-1.067z" />
<glyph unicode="&#xe952;" glyph-name="Document-Align-Left-3" d="M333.269 564.139c-12.134-3.414-21.277-13.356-23.48-25.701l-0.029-0.197c-2.688-14.293 8.107-31.531 22.229-35.413 9.301-2.603 137.387-2.603 146.688 0 9.045 2.475 18.816 12.501 21.333 21.803 3.797 14.123-1.28 27.221-13.824 35.499l-7.211 4.779-70.101 0.299c-38.571 0.171-72.576-0.299-75.605-1.067z" />
<glyph unicode="&#xe953;" glyph-name="Document-Align-Right-1" d="M546.603 564.139c-12.134-3.414-21.277-13.356-23.48-25.701l-0.029-0.197c-2.688-14.293 8.107-31.531 22.229-35.413 9.301-2.603 137.387-2.603 146.688 0 9.045 2.475 18.816 12.501 21.333 21.803 3.797 14.123-1.28 27.221-13.824 35.499l-7.211 4.779-70.101 0.299c-38.571 0.171-72.576-0.299-75.605-1.067z" />
<glyph unicode="&#xe954;" glyph-name="Document-Justify-Left-1" d="M333.269 564.139c-12.134-3.414-21.277-13.356-23.48-25.701l-0.029-0.197c-2.688-14.293 8.107-31.531 22.229-35.413 9.557-2.688 350.464-2.688 360.021 0 9.045 2.475 18.816 12.501 21.333 21.803 3.797 14.123-1.28 27.221-13.824 35.499l-7.211 4.779-176.768 0.256c-97.237 0.171-179.243-0.299-182.272-1.024z" />
<glyph unicode="&#xe955;" glyph-name="Document-Minus-3" d="M418.603 393.472c-12.134-3.414-21.277-13.356-23.48-25.701l-0.029-0.197c-2.688-14.293 8.107-31.531 22.229-35.413 9.515-2.645 265.173-2.645 274.688 0 9.045 2.475 18.816 12.501 21.333 21.803 3.797 14.123-1.28 27.221-13.824 35.499l-7.211 4.779-134.101 0.256c-73.771 0.171-136.576-0.299-139.605-1.024z" />
<glyph unicode="&#xe956;" glyph-name="Document-Upload-1" d="M453.12 606.592c-20.736-3.157-37.376-11.392-59.733-29.483-7.509-6.101-38.357-35.925-68.565-66.261-48.341-48.597-55.125-56.064-56.875-62.635-0.75-2.582-1.181-5.548-1.181-8.615 0-17.673 14.327-32 32-32 3.079 0 6.056 0.435 8.874 1.246l-0.226-0.056c6.571 1.749 14.763 9.216 68.053 61.995l60.587 59.989 0.853-152.747c0.939-169.045 0.171-157.909 11.947-167.851 5.664-4.364 12.681-7.239 20.329-7.925l0.151-0.011c7.799 0.697 14.817 3.572 20.572 8.004l-0.092-0.068c11.776 9.941 11.008-1.195 11.947 167.851l0.853 152.747 60.587-59.989c53.291-52.779 61.483-60.245 68.053-61.995 2.592-0.756 5.569-1.191 8.648-1.191 17.673 0 32 14.327 32 32 0 3.067-0.431 6.033-1.237 8.841l0.055-0.226c-1.749 6.571-8.576 14.080-57.728 63.445-57.557 57.771-74.24 72.619-93.824 83.456-14.7 7.913-32.168 12.563-50.722 12.563-5.406 0-10.721-0.395-15.916-1.157l0.59 0.071z" />
<glyph unicode="&#xe957;" glyph-name="Document-Add-2" d="M503.936 564.139c-8.68-2.824-15.791-8.455-20.431-15.802l-0.091-0.155c-2.645-4.779-3.029-11.819-3.499-57.813l-0.512-52.395-105.045-1.067-7.211-4.779c-12.544-8.277-17.621-21.376-13.824-35.499 2.517-9.301 12.288-19.328 21.333-21.803 4.224-1.195 25.301-1.92 55.851-1.92h49.067v-49.067c0-28.501 0.768-51.712 1.792-55.424 4.608-16.64 22.187-26.368 39.253-21.76 9.387 2.517 19.371 12.245 21.888 21.333 1.195 4.224 1.92 25.301 1.92 55.851v49.067h49.067c30.549 0 51.627 0.725 55.851 1.92 9.045 2.475 18.816 12.501 21.333 21.803 3.797 14.123-1.28 27.221-13.824 35.499l-7.211 4.779-105.045 1.067-0.512 52.395c-0.469 49.152-0.725 52.693-4.011 58.283-6.185 9.788-16.947 16.193-29.205 16.193-2.455 0-4.849-0.257-7.159-0.745l0.225 0.040z" />
<glyph unicode="&#xe958;" glyph-name="Document-Add-3" d="M546.603 564.139c-8.68-2.824-15.791-8.455-20.431-15.802l-0.091-0.155c-2.645-4.779-3.029-11.819-3.499-57.813l-0.512-52.395-105.045-1.067-7.211-4.779c-12.544-8.277-17.621-21.376-13.824-35.499 2.517-9.301 12.288-19.328 21.333-21.803 4.224-1.195 25.301-1.92 55.851-1.92h49.067v-49.067c0-28.501 0.768-51.712 1.792-55.424 4.608-16.64 22.187-26.368 39.253-21.76 9.387 2.517 19.371 12.245 21.888 21.333 1.195 4.224 1.92 25.301 1.92 55.851v49.067h49.067c30.549 0 51.627 0.725 55.851 1.92 9.045 2.475 18.816 12.501 21.333 21.803 3.797 14.123-1.28 27.221-13.824 35.499l-7.211 4.779-105.045 1.067-0.512 52.395c-0.469 49.152-0.725 52.693-4.011 58.283-6.185 9.788-16.947 16.193-29.205 16.193-2.455 0-4.849-0.257-7.159-0.745l0.225 0.040z" />
<glyph unicode="&#xe959;" glyph-name="Document-Add-4" d="M503.936 564.139c-8.68-2.824-15.791-8.455-20.431-15.802l-0.091-0.155c-2.645-4.779-3.029-11.819-3.499-57.813l-0.512-52.395-105.045-1.067-7.211-4.779c-12.544-8.277-17.621-21.376-13.824-35.499 2.517-9.301 12.288-19.328 21.333-21.803 4.224-1.195 25.301-1.92 55.851-1.92h49.067v-49.067c0-28.501 0.768-51.712 1.792-55.424 4.608-16.64 22.187-26.368 39.253-21.76 9.387 2.517 19.371 12.245 21.888 21.333 1.195 4.224 1.92 25.301 1.92 55.851v49.067h49.067c30.549 0 51.627 0.725 55.851 1.92 9.045 2.475 18.816 12.501 21.333 21.803 3.797 14.123-1.28 27.221-13.824 35.499l-7.211 4.779-105.045 1.067-0.512 52.395c-0.469 49.152-0.725 52.693-4.011 58.283-6.185 9.788-16.947 16.193-29.205 16.193-2.455 0-4.849-0.257-7.159-0.745l0.225 0.040z" />
<glyph unicode="&#xe95a;" glyph-name="Document-Align-Center-1" d="M418.603 478.805c-12.145-3.395-21.298-13.346-23.481-25.703l-0.029-0.196c-2.688-14.293 8.107-31.531 22.229-35.413 9.387-2.645 179.968-2.645 189.355 0 9.045 2.475 18.816 12.501 21.333 21.803 3.797 14.123-1.28 27.221-13.824 35.499l-7.211 4.779-91.435 0.299c-50.304 0.128-93.909-0.341-96.939-1.067z" />
<glyph unicode="&#xe95b;" glyph-name="Document-Align-Center-3" d="M333.269 649.472c-12.134-3.414-21.277-13.356-23.48-25.701l-0.029-0.197c-2.688-14.293 8.107-31.531 22.229-35.413 9.557-2.688 350.464-2.688 360.021 0 9.045 2.475 18.816 12.501 21.333 21.803 3.797 14.123-1.28 27.221-13.824 35.499l-7.211 4.779-176.768 0.256c-97.237 0.171-179.243-0.299-182.272-1.024z" />
<glyph unicode="&#xe95c;" glyph-name="Document-Align-Center-4" d="M418.603 649.472c-12.145-3.395-21.298-13.346-23.481-25.703l-0.029-0.196c-2.688-14.293 8.107-31.531 22.229-35.413 9.387-2.645 179.968-2.645 189.355 0 9.045 2.475 18.816 12.501 21.333 21.803 3.797 14.123-1.28 27.221-13.824 35.499l-7.211 4.779-91.435 0.299c-50.304 0.128-93.909-0.341-96.939-1.067z" />
<glyph unicode="&#xe95d;" glyph-name="Document-Align-Center-5" d="M418.603 649.472c-12.145-3.395-21.298-13.346-23.481-25.703l-0.029-0.196c-2.688-14.293 8.107-31.531 22.229-35.413 9.387-2.645 179.968-2.645 189.355 0 9.045 2.475 18.816 12.501 21.333 21.803 3.797 14.123-1.28 27.221-13.824 35.499l-7.211 4.779-91.435 0.299c-50.304 0.128-93.909-0.341-96.939-1.067z" />
<glyph unicode="&#xe95e;" glyph-name="Document-Align-Center-6" d="M418.603 649.472c-12.145-3.395-21.298-13.346-23.481-25.703l-0.029-0.196c-2.688-14.293 8.107-31.531 22.229-35.413 9.387-2.645 179.968-2.645 189.355 0 9.045 2.475 18.816 12.501 21.333 21.803 3.797 14.123-1.28 27.221-13.824 35.499l-7.211 4.779-91.435 0.299c-50.304 0.128-93.909-0.341-96.939-1.067z" />
<glyph unicode="&#xe95f;" glyph-name="Document-Align-Center-7" d="M418.603 649.472c-12.145-3.395-21.298-13.346-23.481-25.703l-0.029-0.196c-2.688-14.293 8.107-31.531 22.229-35.413 9.387-2.645 179.968-2.645 189.355 0 9.045 2.475 18.816 12.501 21.333 21.803 3.797 14.123-1.28 27.221-13.824 35.499l-7.211 4.779-91.435 0.299c-50.304 0.128-93.909-0.341-96.939-1.067z" />
<glyph unicode="&#xe960;" glyph-name="Document-Align-Left-1" d="M333.269 478.805c-12.134-3.414-21.277-13.356-23.48-25.701l-0.029-0.197c-2.688-14.293 8.107-31.531 22.229-35.413 9.301-2.603 137.387-2.603 146.688 0 9.045 2.475 18.816 12.501 21.333 21.803 3.797 14.123-1.28 27.221-13.824 35.499l-7.211 4.779-70.101 0.299c-38.571 0.171-72.576-0.299-75.605-1.067z" />
<glyph unicode="&#xe961;" glyph-name="Document-Align-Left-4" d="M333.269 564.139c-12.134-3.414-21.277-13.356-23.48-25.701l-0.029-0.197c-2.688-14.293 8.107-31.531 22.229-35.413 9.557-2.688 350.464-2.688 360.021 0 9.045 2.475 18.816 12.501 21.333 21.803 3.797 14.123-1.28 27.221-13.824 35.499l-7.211 4.779-176.768 0.256c-97.237 0.171-179.243-0.299-182.272-1.024z" />
<glyph unicode="&#xe962;" glyph-name="Document-Align-Left-5" d="M333.269 649.472c-12.134-3.414-21.277-13.356-23.48-25.701l-0.029-0.197c-2.688-14.293 8.107-31.531 22.229-35.413 9.301-2.603 137.387-2.603 146.688 0 9.045 2.475 18.816 12.501 21.333 21.803 3.797 14.123-1.28 27.221-13.824 35.499l-7.211 4.779-70.101 0.299c-38.571 0.171-72.576-0.299-75.605-1.067z" />
</font>
</defs>
</svg>
